<?xml version="1.0" standalone="no"?>
<!DOCTYPE svg PUBLIC "-//W3C//DTD SVG 1.1//EN" "http://www.w3.org/Graphics/SVG/1.1/DTD/svg11.dtd" >
<svg xmlns="http://www.w3.org/2000/svg" width="100%" height="100%">
<metadata>
Created by FontXChange 20100429 at Sun Aug  3 15:07:27 2014
 By Oto Peradze
Copyright \(C\) 1993-1999 PARACHUTE TYPE FOUNDRY. All rights reserved. Designed by Panos Vassiliou.
</metadata>
<defs>
<font id="PFFuturaRounded-Light" horiz-adv-x="538" >
  <font-face 
    font-family="PFFuturaRounded"
    font-weight="300"
    font-stretch="normal"
    units-per-em="1000"
    panose-1="2 0 4 3 8 0 0 2 0 4"
    ascent="784"
    descent="-216"
    x-height="532"
    cap-height="718"
    bbox="-216.667 -216 1047 922"
    underline-thickness="50"
    underline-position="-75"
    unicode-range="U+0020-E007"
  />
<missing-glyph horiz-adv-x="278" 
 />
    <glyph glyph-name=".notdef" horiz-adv-x="278" 
 />
    <glyph glyph-name=".null" horiz-adv-x="0" 
 />
    <glyph glyph-name="FL0017" horiz-adv-x="278" 
 />
    <glyph glyph-name="space" unicode=" " horiz-adv-x="250" 
 />
    <glyph glyph-name="exclam" unicode="!" horiz-adv-x="296" 
d="M104 238q0 -22 12 -34.5t32 -12.5t32 12.5t12 34.5v433q0 22 -12 34.5t-32 12.5t-32 -12.5t-12 -34.5v-433zM97 45q0 -21 15 -36t36 -15t36 15t15 36t-15 36t-36 15t-36 -15t-15 -36z" />
    <glyph glyph-name="quotedbl" unicode="&#x22;" horiz-adv-x="334" 
d="M197 539q0 -19 10 -31t31 -12t31 12t10 31v136q0 19 -10 31t-31 12t-31 -12t-10 -31v-136zM55 539q0 -19 10 -31t31 -12t31 12t10 31v136q0 19 -10 31t-31 12t-31 -12t-10 -31v-136z" />
    <glyph glyph-name="numbersign" unicode="#" horiz-adv-x="536" 
d="M381 216h70q17 0 29 8t12 25t-12 25t-29 8h-61l21 148h70q17 0 29 8t12 25t-12 25t-29 8h-61l20 146l3.5 24t1.5 18q0 14 -8 24t-26 10q-20 0 -28 -9.5t-10 -26.5l-26 -186h-119l20 146l3.5 24t1.5 18q0 14 -8 24t-26 10q-20 0 -28 -9.5t-10 -26.5l-26 -186h-70
q-17 0 -29 -8t-12 -25t12 -25t29 -8h61l-21 -148h-70q-17 0 -29 -8t-12 -25t12 -25t29 -8h61l-20 -146l-3.5 -24t-1.5 -18q0 -14 8 -24t26 -10q20 0 28 9.5t10 26.5l26 186h119l-20 -146l-3.5 -24t-1.5 -18q0 -14 8 -24t26 -10q20 0 28 9.5t10 26.5zM317 282h-119l21 148
h119z" />
    <glyph glyph-name="dollar" unicode="$" horiz-adv-x="481" 
d="M218 439q-21 8 -38.5 17t-30 21t-20 27.5t-7.5 36.5q0 42 27 69t69 32v-203zM218 70q-33 0 -57.5 8.5t-43 19l-33 19t-28.5 8.5q-17 0 -26 -13t-9 -29t16.5 -32t44 -28.5t63 -20.5t73.5 -8v-47q0 -9 5.5 -15t15.5 -6t15.5 6t5.5 15v51q48 6 85.5 26t63 50t38.5 67.5
t13 77.5q0 51 -18 84.5t-47 56t-64.5 37t-70.5 26.5v219q25 -4 41 -11.5t28 -15l22.5 -13.5t23.5 -6q17 0 27.5 11.5t10.5 27.5t-12.5 30t-34 25t-49 18.5t-57.5 9.5v47q0 9 -5.5 15t-15.5 6t-15.5 -6t-5.5 -15v-47q-45 -4 -80.5 -22t-59.5 -44t-37 -56.5t-13 -60.5
q0 -47 17 -78t44 -51.5t61 -33.5l68 -25v-277zM260 332q22 -8 41 -18t33.5 -24t23 -32t8.5 -43q0 -54 -27.5 -91.5t-78.5 -48.5v257z" />
    <glyph glyph-name="percent" unicode="%" horiz-adv-x="741" 
d="M194 434q-24 0 -40.5 10.5t-26.5 27t-14.5 37t-4.5 40.5t4.5 40.5t14.5 37t26.5 27t40.5 10.5t40.5 -10.5t26.5 -27t14.5 -37t4.5 -40.5t-4.5 -40.5t-14.5 -37t-26.5 -27t-40.5 -10.5zM547 -6q38 0 66 14t47.5 37t29 54t9.5 64t-9.5 64t-29 54t-47.5 37t-66 14
q-37 0 -65.5 -14t-48 -37t-29 -54t-9.5 -64t9.5 -64t29 -54t48 -37t65.5 -14zM547 48q-24 0 -40.5 10.5t-26.5 27t-14.5 37t-4.5 40.5t4.5 40.5t14.5 37t26.5 27t40.5 10.5t40.5 -10.5t26.5 -27t14.5 -37t4.5 -40.5t-4.5 -40.5t-14.5 -37t-26.5 -27t-40.5 -10.5zM194 380
q38 0 66 14t47.5 37t29 54t9.5 64t-9.5 64t-29 54t-47.5 37t-66 14q-37 0 -65.5 -14t-48 -37t-29 -54t-9.5 -64t9.5 -64t29 -54t48 -37t65.5 -14zM209 58q-8 -20 -11 -29.5t-3 -15.5q0 -10 8 -18.5t25 -8.5q14 0 22 7t15 23l266 638q9 21 11.5 30t2.5 15q0 9 -8.5 18
t-26.5 9q-22 0 -35 -30z" />
    <glyph glyph-name="ampersand" unicode="&#x26;" horiz-adv-x="667" 
d="M318 417q24 14 47 30t41 37t29 47.5t11 60.5q0 27 -12.5 50.5t-34 40t-49.5 26t-60 9.5q-36 0 -67.5 -8t-55.5 -25t-37.5 -45t-13.5 -67q0 -36 24.5 -72t54.5 -67q-37 -22 -66.5 -44.5t-50 -49t-31.5 -60.5t-11 -79q0 -49 18 -87.5t48 -65t70 -40.5t83 -14q57 0 113.5 26
t106.5 89l86 -99q13 -16 34 -16q15 0 25.5 10t10.5 26q0 11 -4.5 19t-13.5 19l-87 103q54 65 73.5 102.5t19.5 57.5q0 15 -11 22.5t-26 7.5q-11 0 -21.5 -10.5t-22 -28l-25 -40t-30.5 -45.5l-6 -8zM204 575q0 37 23.5 55t55.5 18q30 0 55.5 -17.5t25.5 -53.5q0 -17 -9 -32
t-23 -28.5t-30.5 -24.5t-31.5 -20q-26 29 -46 54.5t-20 48.5zM124 211q0 24 5.5 45.5t19.5 42t37 39.5t58 39l182 -210q-42 -51 -79.5 -71t-83.5 -20q-35 0 -61 10.5t-43.5 29t-26 43t-8.5 52.5z" />
    <glyph glyph-name="quotesingle" unicode="'" horiz-adv-x="204" 
d="M61 539q0 -19 10 -31t31 -12t31 12t10 31v136q0 19 -10 31t-31 12t-31 -12t-10 -31v-136z" />
    <glyph glyph-name="parenleft" unicode="(" horiz-adv-x="241" 
d="M65 318q0 -103 15 -201t43 -172q7 -18 17 -31.5t27 -13.5q18 0 26.5 9t8.5 20t-4.5 23.5t-9.5 29.5q-20 62 -30.5 143t-10.5 193t10.5 193t30.5 143q5 17 9.5 29.5t4.5 23.5t-8.5 20t-26.5 9q-17 0 -27 -13.5t-17 -31.5q-28 -74 -43 -172t-15 -201z" />
    <glyph glyph-name="parenright" unicode=")" horiz-adv-x="241" 
d="M176 318q0 103 -15 201t-43 172q-7 18 -17 31.5t-27 13.5q-18 0 -26.5 -9t-8.5 -20t4.5 -23.5t9.5 -29.5q20 -62 30.5 -143t10.5 -193t-10.5 -193t-30.5 -143q-5 -17 -9.5 -29.5t-4.5 -23.5t8.5 -20t26.5 -9q17 0 27 13.5t17 31.5q28 74 43 172t15 201z" />
    <glyph glyph-name="asterisk" unicode="*" horiz-adv-x="390" 
d="M150 541l-89 -37q-16 -7 -19.5 -14.5t-3.5 -17.5q0 -14 10 -24t25 -10q9 0 20 6t23 16l25.5 21.5t28.5 21.5q0 -27 -5.5 -55.5t-5.5 -48.5q0 -14 9.5 -24.5t26.5 -10.5t26.5 10.5t9.5 24.5q0 20 -5.5 48.5t-5.5 55.5q15 -10 28.5 -21.5l25.5 -21.5t23 -16t20 -6
q15 0 25 10t10 24q0 10 -3.5 17.5t-19.5 14.5l-89 37l89 37q16 7 19.5 14.5t3.5 17.5q0 14 -10 24t-25 10q-9 0 -20 -6t-23 -16l-25.5 -21t-28.5 -22q0 27 5.5 55.5t5.5 48.5q0 14 -9.5 24.5t-26.5 10.5t-26.5 -10.5t-9.5 -24.5q0 -20 5.5 -48.5t5.5 -55.5q-15 11 -28.5 22
l-25.5 21t-23 16t-20 6q-15 0 -25 -10t-10 -24q0 -10 3.5 -17.5t19.5 -14.5z" />
    <glyph glyph-name="plus" unicode="+" horiz-adv-x="600" 
d="M259 294h-169q-19 0 -31 -10t-12 -31t12 -31t31 -10h169v-169q0 -19 10 -31t31 -12t31 12t10 31v169h169q19 0 31 10t12 31t-12 31t-31 10h-169v169q0 19 -10 31t-31 12t-31 -12t-10 -31v-169z" />
    <glyph glyph-name="comma" unicode="," horiz-adv-x="250" 
d="M33 -51q-11 -22 -11 -37q0 -17 12 -27.5t28 -10.5q20 0 29.5 11.5t17.5 25.5l56 110q11 22 11 37q0 17 -12 27.5t-28 10.5q-20 0 -29.5 -11.5t-17.5 -25.5z" />
    <glyph glyph-name="hyphen" unicode="-" horiz-adv-x="352" 
d="M279 230q16 0 27 11t11 27t-11 27t-27 11h-206q-16 0 -27 -11t-11 -27t11 -27t27 -11h206z" />
    <glyph glyph-name="period" unicode="." horiz-adv-x="250" 
d="M74 45q0 -21 15 -36t36 -15t36 15t15 36t-15 36t-36 15t-36 -15t-15 -36z" />
    <glyph glyph-name="slash" unicode="/" horiz-adv-x="407" 
d="M34 75q-14 -31 -14 -44q0 -17 11 -27t28 -10t26.5 9t14.5 21l273 613q14 31 14 44q0 17 -11 27t-28 10t-26.5 -9t-14.5 -21z" />
    <glyph glyph-name="zero" unicode="0" horiz-adv-x="536" 
d="M33 356q0 -86 18.5 -153t50.5 -113.5t74.5 -71t91.5 -24.5t91.5 24.5t74.5 71t50.5 113.5t18.5 153t-18.5 153t-50.5 113.5t-74.5 71t-91.5 24.5t-91.5 -24.5t-74.5 -71t-50.5 -113.5t-18.5 -153zM127 356q0 75 11 129t30 89t45 51.5t55 16.5t55 -16.5t45 -51.5t30 -89
t11 -129t-11 -129t-30 -89t-45 -51.5t-55 -16.5t-55 16.5t-45 51.5t-30 89t-11 129z" />
    <glyph glyph-name="one" unicode="1" horiz-adv-x="352" 
d="M164 41q0 -22 12 -34.5t32 -12.5t32 12.5t12 34.5v647q0 17 -7 20.5t-20 3.5h-153q-16 0 -27 -11t-11 -27t11 -27t27 -11h92v-595z" />
    <glyph glyph-name="two" unicode="2" horiz-adv-x="536" 
d="M182 76l239 318q34 45 41.5 80.5t7.5 66.5q0 35 -13.5 66.5t-38.5 56.5t-60.5 39.5t-79.5 14.5q-55 0 -97.5 -18t-71 -49t-43.5 -71.5t-15 -84.5q0 -54 43 -54q14 0 26.5 8.5t12.5 31.5q0 33 8.5 62.5t25 51.5t40.5 34.5t56 12.5q48 0 80.5 -31t32.5 -80q0 -32 -15 -64.5
t-37 -61.5l-246 -329q-11 -16 -15 -24t-4 -16q0 -11 10 -23.5t38 -12.5h345q16 0 27 11t11 27t-11 27t-27 11h-270z" />
    <glyph glyph-name="three" unicode="3" horiz-adv-x="536" 
d="M476 210q0 61 -31 108t-91 65q42 26 63 66t21 85q0 38 -13 71t-37 58.5t-58 40t-77 14.5q-44 0 -79 -15t-59 -39.5t-36.5 -57t-12.5 -68.5q0 -17 10.5 -29t29.5 -12q6 0 12.5 1t13 4.5t11 12t5.5 23.5q2 20 8 39t18 33.5t30.5 23t44.5 8.5q46 0 73.5 -32.5t27.5 -83.5
q0 -49 -23 -76t-77 -39q-25 -5 -35.5 -14t-10.5 -24q0 -17 14 -27.5t40 -10.5q25 0 47.5 -6t39.5 -21t27 -40.5t10 -65.5q0 -27 -10 -51t-28 -42t-42.5 -28.5t-54.5 -10.5q-51 0 -79 26.5t-41 64.5q-8 23 -18.5 34.5t-30.5 11.5q-16 0 -26.5 -13t-10.5 -36q0 -20 11.5 -48
t37 -54t65 -44t94.5 -18q48 0 89 15t72 42.5t48.5 67.5t17.5 91z" />
    <glyph glyph-name="four" unicode="4" horiz-adv-x="536" 
d="M334 183v-142q0 -22 12 -34.5t32 -12.5t32 12.5t12 34.5v142h45q16 0 27 11t11 27t-11 27t-27 11h-45v386q0 39 -19 56t-48 17q-23 0 -39 -8.5t-30 -31.5l-252 -413q-10 -16 -16 -28.5t-6 -22.5q0 -14 7.5 -22.5t30.5 -8.5h284zM122 259l210 365h2v-365h-212z" />
    <glyph glyph-name="five" unicode="5" horiz-adv-x="536" 
d="M228 636h203q16 0 27 11t11 27t-11 27t-27 11h-247q-16 0 -23.5 -4.5t-9.5 -18.5l-37 -249q-2 -17 -4.5 -34t-2.5 -25q0 -11 7 -19t23 -8q9 0 20 4l25.5 9.5t33 9.5t42.5 4q32 0 55.5 -12t38.5 -32t22 -47.5t7 -59.5q0 -31 -9.5 -59t-27 -49t-42.5 -33.5t-57 -12.5
q-38 0 -64 11.5t-45 25.5t-32.5 25.5t-27.5 11.5q-17 0 -24.5 -12t-7.5 -26q0 -16 14.5 -36.5t41 -38.5t63.5 -30.5t81 -12.5q54 0 97 18t72.5 51t45.5 80t16 104q0 42 -13 81t-36.5 69t-57 48t-75.5 18q-25 0 -48.5 -4.5t-45.5 -15.5z" />
    <glyph glyph-name="six" unicode="6" horiz-adv-x="536" 
d="M266 -6q47 0 87 18t69 49.5t45.5 74t16.5 90.5q0 47 -12 89t-34.5 74.5t-56 51.5t-77.5 19q-36 0 -62 -7.5t-51 -20.5h-2q20 37 38.5 65.5t37 51.5t37.5 42.5t40 38.5q19 17 27 26.5t8 20.5q0 20 -12.5 30.5t-23.5 10.5q-9 0 -18 -4.5t-23 -15.5q-40 -34 -84 -81
t-80.5 -105t-60 -126.5t-23.5 -146.5q0 -53 16 -98t44.5 -77.5t68 -51t85.5 -18.5zM140 230q0 31 7.5 59t22.5 49t38.5 33.5t56.5 12.5q66 0 95.5 -41.5t29.5 -112.5q0 -31 -7.5 -59t-22.5 -49t-38.5 -33.5t-56.5 -12.5t-56.5 12.5t-38.5 33.5t-22.5 49t-7.5 59z" />
    <glyph glyph-name="seven" unicode="7" horiz-adv-x="500" 
d="M366 636v-2l-249 -559q-8 -20 -11 -31t-3 -16q0 -17 12 -25.5t21 -8.5q14 0 29 5.5t24 26.5l266 605l12.5 30.5t4.5 22.5q0 16 -12.5 22t-32.5 6h-361q-16 0 -27 -11t-11 -27t11 -27t27 -11h300z" />
    <glyph glyph-name="eight" unicode="8" horiz-adv-x="536" 
d="M86 555q0 -57 22.5 -92.5t70.5 -65.5q-31 -7 -55 -24t-40.5 -41t-25 -53t-8.5 -60q0 -43 14.5 -84t42.5 -72t68.5 -50t92.5 -19t92.5 19t68.5 50t42.5 72t14.5 84q0 31 -8.5 60t-25 53t-40.5 41t-55 24q48 30 70.5 65.5t22.5 92.5q0 41 -16 71.5t-41.5 51t-58 30.5
t-66.5 10t-66.5 -10t-58 -30.5t-41.5 -51t-16 -71.5zM168 538q0 45 26 74.5t74 29.5t74 -29.5t26 -74.5q0 -46 -26 -75.5t-74 -29.5t-74 29.5t-26 75.5zM144 215q0 27 8 53t23.5 45.5t38.5 31.5t54 12t54 -12t38.5 -31.5t23.5 -45.5t8 -53q0 -34 -10 -61t-27 -46
t-39.5 -28.5t-47.5 -9.5t-47.5 9.5t-39.5 28.5t-27 46t-10 61z" />
    <glyph glyph-name="nine" unicode="9" horiz-adv-x="536" 
d="M270 718q-47 0 -87 -18t-69 -49.5t-45.5 -74t-16.5 -90.5q0 -46 12 -88.5t34.5 -75t56.5 -51.5t77 -19q36 0 62 7.5t51 20.5h2q-20 -37 -38.5 -65.5t-37 -51.5t-37.5 -42.5t-40 -38.5q-19 -17 -27 -26.5t-8 -20.5q0 -20 12.5 -30.5t23.5 -10.5q9 0 18 4.5t23 15.5
q41 34 84.5 81t80 105t60 126.5t23.5 146.5q0 53 -16 98t-44.5 77.5t-67.5 51t-86 18.5zM396 482q0 -31 -7.5 -59t-22.5 -49t-38.5 -33.5t-56.5 -12.5q-66 0 -95.5 41.5t-29.5 112.5q0 31 7.5 59t22.5 49t38.5 33.5t56.5 12.5t56.5 -12.5t38.5 -33.5t22.5 -49t7.5 -59z" />
    <glyph glyph-name="colon" unicode=":" horiz-adv-x="250" 
d="M74 45q0 -21 15 -36t36 -15t36 15t15 36t-15 36t-36 15t-36 -15t-15 -36zM74 381q0 -21 15 -36t36 -15t36 15t15 36t-15 36t-36 15t-36 -15t-15 -36z" />
    <glyph glyph-name="semicolon" unicode=";" horiz-adv-x="250" 
d="M33 -51q-11 -22 -11 -37q0 -17 12 -27.5t28 -10.5q20 0 29.5 11.5t17.5 25.5l56 110q11 22 11 37q0 17 -12 27.5t-28 10.5q-20 0 -29.5 -11.5t-17.5 -25.5zM74 381q0 -21 15 -36t36 -15t36 15t15 36t-15 36t-36 15t-36 -15t-15 -36z" />
    <glyph glyph-name="semicolon" unicode="&#x37e;" horiz-adv-x="250" 
d="M33 -51q-11 -22 -11 -37q0 -17 12 -27.5t28 -10.5q20 0 29.5 11.5t17.5 25.5l56 110q11 22 11 37q0 17 -12 27.5t-28 10.5q-20 0 -29.5 -11.5t-17.5 -25.5zM74 381q0 -21 15 -36t36 -15t36 15t15 36t-15 36t-36 15t-36 -15t-15 -36z" />
    <glyph glyph-name="less" unicode="&#x3c;" horiz-adv-x="600" 
d="M150 253l372 184q11 6 21.5 14t10.5 24t-10 26.5t-23 10.5q-9 0 -21 -5t-28 -13l-390 -195q-20 -10 -28 -20.5t-8 -25.5t8 -25.5t28 -20.5l390 -195q16 -8 28 -13t21 -5q13 0 23 10.5t10 26.5t-10.5 24t-21.5 14z" />
    <glyph glyph-name="equal" unicode="=" horiz-adv-x="600" 
d="M510 316q19 0 31 10t12 31t-12 31t-31 10h-420q-19 0 -31 -10t-12 -31t12 -31t31 -10h420zM510 108q19 0 31 10t12 31t-12 31t-31 10h-420q-19 0 -31 -10t-12 -31t12 -31t31 -10h420z" />
    <glyph glyph-name="greater" unicode="&#x3e;" horiz-adv-x="600" 
d="M78 69q-11 -6 -21.5 -14t-10.5 -24t10 -26.5t23 -10.5q9 0 21 5t28 13l390 195q20 10 28 20.5t8 25.5t-8 25.5t-28 20.5l-390 195q-16 8 -28 13t-21 5q-13 0 -23 -10.5t-10 -26.5t10.5 -24t21.5 -14l372 -184z" />
    <glyph glyph-name="question" unicode="?" horiz-adv-x="444" 
d="M258 338q75 16 121.5 65.5t46.5 130.5q0 40 -16.5 73.5t-45 58t-67.5 38.5t-84 14q-35 0 -69 -11t-61.5 -31.5t-45 -48t-19.5 -60.5q-1 -21 12.5 -33.5t30.5 -12.5q14 0 23 6.5t16 26.5q17 48 46.5 65t69.5 17q51 0 83.5 -29.5t32.5 -80.5q0 -14 -3.5 -30.5t-13 -31.5
t-27.5 -27.5t-48 -18.5q-26 -5 -40 -10t-21 -12t-8 -17.5t-1 -27.5v-113q0 -22 12 -34.5t32 -12.5t32 12.5t12 34.5v100zM163 45q0 -21 15 -36t36 -15t36 15t15 36t-15 36t-36 15t-36 -15t-15 -36z" />
    <glyph glyph-name="at" unicode="@" horiz-adv-x="800" 
d="M266 308q0 28 9 59t26.5 56.5t44.5 42t63 16.5q75 0 75 -72q0 -21 -7.5 -53.5t-23.5 -63.5t-42 -53t-63 -22q-34 0 -58 25t-24 65zM598 494q5 16 6.5 23.5t1.5 12.5q0 12 -10 17t-22 5q-16 0 -25.5 -6t-14.5 -23l-13 -40q-20 41 -50 58t-67 17q-51 0 -92.5 -22.5
t-71 -59.5t-46 -83t-16.5 -94q0 -32 11.5 -60.5t32 -50t48 -34t59.5 -12.5q33 0 64 17t51 40h2q10 -57 70 -57q33 0 76 16t81.5 50t64.5 86.5t26 125.5q0 66 -28 121t-76 94.5t-111.5 61t-134.5 21.5q-78 0 -146.5 -28t-120 -77t-81.5 -115t-30 -142t29.5 -142.5t81 -115
t121 -76.5t148.5 -28q50 0 102.5 16t95.5 39.5t71 50t28 47.5q0 11 -7 17t-18 6q-21 0 -41.5 -17t-49 -38t-70 -38t-104.5 -17q-66 0 -123 22t-99 61t-65.5 93.5t-23.5 119.5q0 62 23 116t63.5 94t95.5 63t120 23q54 0 103.5 -16.5t87.5 -47.5t60.5 -76.5t22.5 -103.5
q0 -39 -11.5 -74.5t-30.5 -63t-42.5 -44t-47.5 -16.5q-15 0 -21.5 8t-6.5 21q0 10 2.5 20l5.5 21z" />
    <glyph glyph-name="A" unicode="A" horiz-adv-x="612" 
d="M141 155h330l46 -128q5 -14 15 -23.5t28 -9.5q17 0 29.5 10t12.5 27q0 9 -5 23t-7 21l-221 589q-9 23 -23 38.5t-40 15.5t-40 -15.5t-23 -38.5l-221 -589q-2 -7 -7 -21t-5 -23q0 -17 12.5 -27t29.5 -10q18 0 28 9.5t15 23.5zM444 231h-276l137 385h2z" />
    <glyph glyph-name="B" unicode="B" horiz-adv-x="537" 
d="M146 636h103q59 0 87 -31t28 -79q0 -49 -30.5 -82t-87.5 -33h-100v225zM146 339h128q35 0 61.5 -10t45.5 -28t28.5 -42t9.5 -51q0 -60 -42 -96t-107 -36h-124v263zM58 48q0 -20 11 -34t36 -14h169q56 0 99.5 17t73 45.5t45 66t15.5 79.5q0 35 -12 66t-33 54t-49 38
t-60 18v2q44 14 71.5 55.5t27.5 100.5q0 30 -12.5 60.5t-36.5 55t-60 39.5t-83 15h-155q-25 0 -36 -14t-11 -34v-616z" />
    <glyph glyph-name="C" unicode="C" horiz-adv-x="593" 
d="M125 356q0 51 12.5 102t39.5 92t69.5 66.5t101.5 25.5q41 0 67 -11t44 -24t31 -24t28 -11q17 0 26.5 12.5t9.5 29.5q0 14 -14.5 31.5t-41.5 34t-65 27.5t-85 11q-79 0 -138.5 -30.5t-99 -81t-59.5 -116t-20 -134.5t20 -134.5t59 -116t97.5 -81t135.5 -30.5q47 0 88 9
t72 23.5t48.5 32t17.5 34.5q0 19 -9.5 30t-25.5 11q-14 0 -30.5 -10t-39 -22t-52 -22t-69.5 -10q-57 0 -98 25.5t-67.5 66.5t-39.5 92t-13 102z" />
    <glyph glyph-name="D" unicode="D" horiz-adv-x="630" 
d="M63 48q0 -20 11 -34t36 -14h185q72 0 128.5 26.5t95.5 74t59.5 113.5t20.5 146q0 71 -19.5 134.5t-59 112t-98.5 77t-139 28.5h-173q-25 0 -36 -14t-11 -34v-616zM151 636h120q63 0 107.5 -22.5t72.5 -60.5t41 -88t13 -105q0 -54 -12.5 -105.5t-39.5 -91t-70.5 -63.5
t-105.5 -24h-126v560z" />
    <glyph glyph-name="E" unicode="E" horiz-adv-x="444" 
d="M146 315h193q19 0 31 10t12 31t-12 31t-31 10h-193v233h212q19 0 31 10t12 31t-12 31t-31 10h-253q-25 0 -36 -14t-11 -34v-616q0 -20 11 -34t36 -14h253q19 0 31 10t12 31t-12 31t-31 10h-212v233z" />
    <glyph glyph-name="F" unicode="F" horiz-adv-x="407" 
d="M146 315h185q19 0 31 10t12 31t-12 31t-31 10h-185v233h209q19 0 31 10t12 31t-12 31t-31 10h-250q-25 0 -36 -14t-11 -34v-623q0 -22 12 -34.5t32 -12.5t32 12.5t12 34.5v274z" />
    <glyph glyph-name="G" unicode="G" horiz-adv-x="667" 
d="M559 326v-42q0 -36 -12.5 -74t-38 -69t-64 -51t-90.5 -20q-62 0 -105.5 25.5t-71 66.5t-40 92t-12.5 102t12.5 102t40 92t70 66.5t102.5 25.5q48 0 80.5 -12.5t55 -27.5t39.5 -27.5t33 -12.5q19 0 30.5 12.5t11.5 29.5q0 14 -17.5 33.5t-49.5 37.5t-77 30.5t-100 12.5
q-84 0 -145 -30.5t-101 -81t-59.5 -116t-19.5 -134.5t20 -134.5t59 -116t97.5 -81t135.5 -30.5q91 0 149.5 29.5t93 77.5t48 109.5t13.5 125.5q0 42 -15 57t-49 15h-148q-19 0 -31 -10t-12 -31t12 -31t31 -10h124z" />
    <glyph glyph-name="H" unicode="H" horiz-adv-x="667" 
d="M146 319h375v-272q0 -26 12 -39.5t32 -13.5t32 13.5t12 39.5v618q0 26 -12 39.5t-32 13.5t-32 -13.5t-12 -39.5v-270h-375v270q0 26 -12 39.5t-32 13.5t-32 -13.5t-12 -39.5v-618q0 -26 12 -39.5t32 -13.5t32 13.5t12 39.5v272z" />
    <glyph glyph-name="I" unicode="I" horiz-adv-x="204" 
d="M146 671q0 22 -12 34.5t-32 12.5t-32 -12.5t-12 -34.5v-630q0 -22 12 -34.5t32 -12.5t32 12.5t12 34.5v630z" />
    <glyph glyph-name="J" unicode="J" horiz-adv-x="370" 
d="M224 172q0 -21 -3.5 -39.5t-12.5 -32.5t-24 -22t-38 -8q-28 0 -44.5 6.5t-28 14l-21 14t-24.5 6.5q-16 0 -25.5 -10t-9.5 -27q0 -19 16 -34t39 -25.5t48 -15.5t43 -5q47 0 80 13.5t53.5 38t30 59t9.5 76.5v490q0 22 -12 34.5t-32 12.5t-32 -12.5t-12 -34.5v-499z" />
    <glyph glyph-name="K" unicode="K" horiz-adv-x="574" 
d="M146 339l332 -326q14 -13 23.5 -16t19.5 -3q18 0 30.5 11.5t12.5 27.5q0 10 -3.5 18t-14.5 18l-319 308l292 263q8 7 13 15t5 25t-10.5 27.5t-27.5 10.5q-14 0 -25 -8.5t-23 -19.5l-305 -279v260q0 22 -12 34.5t-32 12.5t-32 -12.5t-12 -34.5v-630q0 -22 12 -34.5
t32 -12.5t32 12.5t12 34.5v298z" />
    <glyph glyph-name="L" unicode="L" horiz-adv-x="389" 
d="M146 671q0 22 -12 34.5t-32 12.5t-32 -12.5t-12 -34.5v-623q0 -20 11 -34t36 -14h229q19 0 31 10t12 31t-12 31t-31 10h-188v589z" />
    <glyph glyph-name="M" unicode="M" horiz-adv-x="834" 
d="M200 604h2l170 -574q7 -22 18.5 -29t26.5 -7t26.5 7t18.5 29l170 574h2l83 -572q3 -23 16.5 -30.5t30.5 -7.5q20 0 30.5 12.5t10.5 32.5q0 8 -1.5 17.5l-3.5 22.5l-97 572q-6 38 -25.5 52.5t-43.5 14.5q-26 0 -41 -10.5t-23 -35.5l-152 -521h-2l-152 521q-8 25 -23 35.5
t-41 10.5q-24 0 -43.5 -14.5t-25.5 -52.5l-97 -572l-3.5 -22.5t-1.5 -17.5q0 -20 10.5 -32.5t30.5 -12.5q17 0 30.5 7.5t16.5 30.5z" />
    <glyph glyph-name="N" unicode="N" horiz-adv-x="668" 
d="M146 557h2l360 -517q18 -26 30 -36t32 -10q40 0 40 52v625q0 22 -12 34.5t-32 12.5t-32 -12.5t-12 -34.5v-516h-2l-360 517q-18 26 -30 36t-32 10q-40 0 -40 -52v-625q0 -22 12 -34.5t32 -12.5t32 12.5t12 34.5v516z" />
    <glyph glyph-name="O" unicode="O" horiz-adv-x="686" 
d="M125 356q0 51 11.5 102t37.5 92t67.5 66.5t101.5 25.5t101.5 -25.5t67.5 -66.5t37.5 -92t11.5 -102t-11.5 -102t-37.5 -92t-67.5 -66.5t-101.5 -25.5t-101.5 25.5t-67.5 66.5t-37.5 92t-11.5 102zM31 356q0 -69 20 -134.5t59.5 -116t98 -81t134.5 -30.5t134.5 30.5t98 81
t59.5 116t20 134.5t-20 134.5t-59.5 116t-98 81t-134.5 30.5t-134.5 -30.5t-98 -81t-59.5 -116t-20 -134.5z" />
    <glyph glyph-name="P" unicode="P" horiz-adv-x="519" 
d="M146 266h136q49 0 90.5 17.5t72 47.5t48 70.5t17.5 86.5q0 47 -16 87.5t-46 71t-72.5 48t-96.5 17.5h-174q-25 0 -36 -14t-11 -34v-623q0 -22 12 -34.5t32 -12.5t32 12.5t12 34.5v225zM146 636h126q41 0 69.5 -13.5t46.5 -34.5t26 -47.5t8 -52.5q0 -30 -10.5 -57
t-30 -46.5t-46 -31t-59.5 -11.5h-130v294z" />
    <glyph glyph-name="Q" unicode="Q" horiz-adv-x="685" 
d="M485 127q-26 -27 -61 -42t-81 -15q-60 0 -101.5 25.5t-67.5 66.5t-37.5 92t-11.5 102t11.5 102t37.5 92t67.5 66.5t101.5 25.5t101.5 -25.5t67.5 -66.5t37.5 -92t11.5 -102q0 -42 -7.5 -84t-24.5 -78l-49 48q-16 16 -33 16t-28 -11.5t-11 -28.5q0 -10 5 -17.5t13 -15.5z
M612 2q5 -5 13 -10.5t21 -5.5q17 0 27.5 11.5t10.5 25.5q0 11 -4.5 19t-12.5 16l-74 73q31 48 46.5 105.5t15.5 119.5q0 69 -20 134.5t-59.5 116t-98 81t-134.5 30.5t-134.5 -30.5t-98 -81t-59.5 -116t-20 -134.5t20 -134.5t59.5 -116t98 -81t134.5 -30.5q62 0 111.5 20.5
t87.5 56.5z" />
    <glyph glyph-name="R" unicode="R" horiz-adv-x="519" 
d="M146 312l272 -298q8 -8 17 -14t23 -6q17 0 28.5 10t11.5 24q0 22 -17 40l-227 249l38 1q40 1 75 12.5t61.5 35.5t42 62t15.5 92q0 44 -18.5 79t-48.5 60.5t-69.5 39t-81.5 13.5h-163q-25 0 -36 -14t-11 -34v-623q0 -22 12 -34.5t32 -12.5t32 12.5t12 34.5v271zM146 636
h118q31 0 55.5 -10t42 -26.5t27 -38.5t9.5 -47q0 -69 -31.5 -100t-100.5 -31h-120v253z" />
    <glyph glyph-name="S" unicode="S" horiz-adv-x="481" 
d="M238 718q-49 0 -88 -17t-66 -43.5t-41.5 -59t-14.5 -63.5q0 -58 25 -92.5t62.5 -56t81.5 -35.5t81.5 -30t62.5 -40t25 -66q0 -30 -10 -56t-29 -46t-46 -31.5t-61 -11.5t-59 8.5t-44.5 19t-33.5 19t-25 8.5q-19 0 -28 -13.5t-9 -31.5q0 -19 17.5 -34.5t46 -27t64 -18
t70.5 -6.5q58 0 103 18.5t75.5 49.5t46.5 72t16 85q0 60 -25 96.5t-62.5 59t-81.5 36.5t-81.5 30t-62.5 38.5t-25 61.5q0 45 32 73t81 28q33 0 53.5 -7t35 -16l25.5 -16t26 -7q17 0 27.5 11.5t10.5 27.5q0 17 -15 32.5t-39.5 26.5t-56 17.5t-64.5 6.5z" />
    <glyph glyph-name="T" unicode="T" horiz-adv-x="444" 
d="M178 41q0 -22 12 -34.5t32 -12.5t32 12.5t12 34.5v589h133q19 0 31 10t12 31t-12 31t-31 10h-354q-19 0 -31 -10t-12 -31t12 -31t31 -10h133v-589z" />
    <glyph glyph-name="U" unicode="U" horiz-adv-x="668" 
d="M58 282q0 -90 26 -146t66.5 -87.5t89 -43t94.5 -11.5t94.5 11.5t89 43t66.5 87.5t26 146v389q0 22 -12 34.5t-32 12.5t-32 -12.5t-12 -34.5v-423q0 -84 -52 -131t-136 -47t-136 47t-52 131v423q0 22 -12 34.5t-32 12.5t-32 -12.5t-12 -34.5v-389z" />
    <glyph glyph-name="V" unicode="V" horiz-adv-x="556" 
d="M279 142h-2l-180 519q-8 23 -18 40t-36 17q-18 0 -28.5 -11t-10.5 -25q0 -16 6 -34l217 -606q8 -22 18 -35t33 -13t33 13t18 35l217 606q6 18 6 34q0 14 -10.5 25t-28.5 11q-26 0 -36 -17t-18 -40z" />
    <glyph glyph-name="W" unicode="W" horiz-adv-x="834" 
d="M208 108h-2l-93 569q-7 41 -48 41q-19 0 -29.5 -11.5t-10.5 -28.5q0 -8 1 -18.5t4 -26.5l108 -581q2 -12 6 -22.5t11 -18.5t18.5 -12.5t27.5 -4.5q26 0 42 10.5t27 47.5l146 522h2l146 -522q11 -37 27 -47.5t42 -10.5q33 0 46 17.5t17 40.5l108 581q3 16 4 26.5t1 18.5
q0 17 -10.5 28.5t-29.5 11.5q-41 0 -48 -41l-93 -569h-2l-164 575q-6 20 -17 27.5t-28 7.5t-28 -7.5t-17 -27.5z" />
    <glyph glyph-name="X" unicode="X" horiz-adv-x="594" 
d="M297 313l204 -291q14 -19 23.5 -23.5t20.5 -4.5q15 0 27.5 10.5t12.5 26.5q0 11 -4.5 20t-9.5 16l-223 315l186 263q14 20 14 36q0 17 -11.5 27t-27.5 10q-11 0 -21.5 -5t-23.5 -23l-167 -244l-167 244q-13 18 -23.5 23t-21.5 5q-16 0 -27.5 -10t-11.5 -27q0 -16 14 -36
l186 -263l-223 -315q-5 -7 -9.5 -16t-4.5 -20q0 -16 12.5 -26.5t27.5 -10.5q11 0 20.5 4.5t23.5 23.5z" />
    <glyph glyph-name="Y" unicode="Y" horiz-adv-x="500" 
d="M206 41q0 -22 12 -34.5t32 -12.5t32 12.5t12 34.5v293l191 311q14 22 14 37q0 17 -11.5 26.5t-28.5 9.5q-12 0 -23 -5.5t-21 -22.5l-165 -269l-165 269q-10 17 -21 22.5t-23 5.5q-17 0 -28.5 -9.5t-11.5 -26.5q0 -15 14 -37l191 -311v-293z" />
    <glyph glyph-name="Z" unicode="Z" horiz-adv-x="556" 
d="M41 87q-11 -16 -14 -26t-3 -21q0 -19 12 -29.5t40 -10.5h413q19 0 31 9.5t12 28.5t-12 28.5t-31 9.5h-359l367 549q14 20 18 31t4 25q0 12 -12 21.5t-34 9.5h-389q-19 0 -31 -9.5t-12 -28.5t12 -28.5t31 -9.5h323z" />
    <glyph glyph-name="bracketleft" unicode="[" horiz-adv-x="241" 
d="M158 642h34q16 0 27 11t11 27t-11 27t-27 11h-69q-25 0 -36 -14t-11 -34v-704q0 -20 11 -34t36 -14h69q16 0 27 11t11 27t-11 27t-27 11h-34v648z" />
    <glyph glyph-name="backslash" unicode="\" horiz-adv-x="407" 
d="M307 24q5 -12 14.5 -21t26.5 -9t28 10t11 27q0 13 -14 44l-273 613q-5 12 -14.5 21t-26.5 9t-28 -10t-11 -27q0 -13 14 -44z" />
    <glyph glyph-name="bracketright" unicode="]" horiz-adv-x="241" 
d="M83 -6h-34q-16 0 -27 -11t-11 -27t11 -27t27 -11h69q25 0 36 14t11 34v704q0 20 -11 34t-36 14h-69q-16 0 -27 -11t-11 -27t11 -27t27 -11h34v-648z" />
    <glyph glyph-name="asciicircum" unicode="^" horiz-adv-x="600" 
d="M300 630l157 -291q14 -26 23.5 -38t26.5 -12q16 0 26.5 9.5t10.5 23.5q0 11 -6 22l-11 21l-175 312q-10 17 -21 29t-31 12t-31 -12t-21 -29l-175 -312l-11 -21t-6 -22q0 -14 10.5 -23.5t26.5 -9.5q17 0 26.5 12t23.5 38z" />
    <glyph glyph-name="underscore" unicode="_" horiz-adv-x="500" 
d="M500 -125q12 0 20.5 6.5t8.5 18.5t-8.5 18.5t-20.5 6.5h-500q-12 0 -20.5 -6.5t-8.5 -18.5t8.5 -18.5t20.5 -6.5h500z" />
    <glyph glyph-name="grave" unicode="`" horiz-adv-x="520" 
d="M161 667q-17 14 -21 25.5t-2 19.5q2 6 6 12t10 11t14.5 7.5t17.5 -0.5q7 -2 13 -6t17 -12l98 -77q17 -14 21.5 -25.5t1.5 -19.5q-1 -6 -5.5 -12t-10.5 -11t-14.5 -7.5t-17.5 0.5q-10 3 -30 18z" />
    <glyph glyph-name="a" unicode="a" horiz-adv-x="556" 
d="M498 495q0 23 -14 33t-27 10q-14 0 -27.5 -10t-13.5 -33v-28h-2q-31 34 -65 52.5t-80 18.5q-56 0 -99.5 -22.5t-73.5 -60.5t-45.5 -87t-15.5 -102t15.5 -102t45.5 -87t73.5 -60.5t99.5 -22.5q43 0 79.5 19.5t65.5 60.5h2v-37q0 -23 13.5 -33t27.5 -10q13 0 27 10t14 33
v458zM123 266q0 34 7.5 68.5t25 63t45.5 46.5t68 18q41 0 68.5 -18t45 -46.5t25 -63t7.5 -68.5t-7.5 -68.5t-25 -63t-45 -46.5t-68.5 -18q-40 0 -68 18t-45.5 46.5t-25 63t-7.5 68.5z" />
    <glyph glyph-name="b" unicode="b" horiz-adv-x="556" 
d="M141 266q0 34 7.5 68.5t25 63t45.5 46.5t68 18q41 0 68.5 -18t45 -46.5t25 -63t7.5 -68.5t-7.5 -68.5t-25 -63t-45 -46.5t-68.5 -18q-40 0 -68 18t-45.5 46.5t-25 63t-7.5 68.5zM62 41q0 -22 12 -34.5t32 -12.5t32 12.5t12 34.5v26h2q38 -73 142 -73q54 0 96 22.5
t71.5 60.5t44.5 87t15 102t-15 102t-44.5 87t-71.5 60.5t-96 22.5q-26 0 -48.5 -6.5t-40.5 -17t-31 -23.5t-22 -25h-2v259q0 22 -12 34.5t-32 12.5t-32 -12.5t-12 -34.5v-684z" />
    <glyph glyph-name="c" unicode="c" horiz-adv-x="444" 
d="M35 266q0 -53 14.5 -102t44.5 -87t75 -60.5t106 -22.5q69 0 104.5 22t35.5 47q0 18 -9.5 27.5t-24.5 9.5q-10 0 -19.5 -4.5t-21 -10.5t-27 -10.5t-38.5 -4.5q-41 0 -70 18t-47 46.5t-26.5 63t-8.5 68.5t8.5 68.5t26.5 63t47 46.5t70 18q23 0 37.5 -4.5t26 -9.5l21 -9.5
t22.5 -4.5q16 0 26 11.5t10 25.5q0 27 -37.5 47t-105.5 20q-61 0 -106 -22.5t-75 -60.5t-44.5 -87t-14.5 -102z" />
    <glyph glyph-name="d" unicode="d" horiz-adv-x="556" 
d="M415 266q0 -34 -7.5 -68.5t-25 -63t-45 -46.5t-68.5 -18q-40 0 -68 18t-45.5 46.5t-25 63t-7.5 68.5t7.5 68.5t25 63t45.5 46.5t68 18q41 0 68.5 -18t45 -46.5t25 -63t7.5 -68.5zM406 41q0 -22 12 -34.5t32 -12.5t32 12.5t12 34.5v684q0 22 -12 34.5t-32 12.5t-32 -12.5
t-12 -34.5v-259h-2q-9 12 -22 25t-31 23.5t-40.5 17t-48.5 6.5q-54 0 -96 -22.5t-71.5 -60.5t-44.5 -87t-15 -102t15 -102t44.5 -87t71.5 -60.5t96 -22.5q104 0 142 73h2v-26z" />
    <glyph glyph-name="e" unicode="e" horiz-adv-x="520" 
d="M445 232q29 0 39 12t10 35q0 48 -15.5 94.5t-44.5 83t-72 59t-97 22.5q-56 0 -100.5 -22t-75 -59.5t-47 -87t-16.5 -103.5q0 -53 14 -102t44 -87t76 -60.5t110 -22.5q39 0 77 11t68.5 27.5t49 35.5t18.5 35q0 19 -10 29t-22 10t-25.5 -11t-33 -24.5t-48.5 -25t-73 -11.5
q-37 0 -66 12.5t-49.5 34.5t-31 51.5t-10.5 63.5h331zM114 298q1 30 9.5 60t26.5 53t46 37.5t69 13.5q36 -1 63 -16t44 -38.5t25.5 -52t8.5 -57.5h-292z" />
    <glyph glyph-name="f" unicode="f" horiz-adv-x="259" 
d="M174 456h55q44 0 44 38t-44 38h-55v129q0 17 8 26t28 9h22q48 0 48 38q0 18 -16.5 28t-33.5 10h-27q-48 0 -82.5 -28.5t-34.5 -86.5v-125h-36q-44 0 -44 -38t44 -38h36v-415q0 -22 12 -34.5t32 -12.5t32 12.5t12 34.5v415z" />
    <glyph glyph-name="g" unicode="g" horiz-adv-x="556" 
d="M494 495q0 23 -14 33t-27 10q-18 0 -32.5 -10t-14.5 -33v-24h-2q-9 12 -23 24t-32 21.5t-38.5 15.5t-41.5 6q-56 0 -99.5 -22.5t-73.5 -60.5t-45.5 -87t-15.5 -102t15.5 -102t45.5 -87t73.5 -60.5t99.5 -22.5q45 0 80 20.5t55 55.5h2v-46q0 -29 -7 -58t-23.5 -52.5
t-44.5 -38.5t-70 -15q-36 0 -62 9.5t-46 21.5l-35.5 21.5t-30.5 9.5q-21 0 -29 -13.5t-8 -27.5q0 -17 19 -34t49 -31t66 -23t70 -9q54 0 98.5 17.5t76 50.5t48.5 80t17 106v457zM123 266q0 34 7.5 68.5t25 63t45.5 46.5t68 18q41 0 68.5 -18t45 -46.5t25 -63t7.5 -68.5
t-7.5 -68.5t-25 -63t-45 -46.5t-68.5 -18q-40 0 -68 18t-45.5 46.5t-25 63t-7.5 68.5z" />
    <glyph glyph-name="h" unicode="h" 
d="M392 41q0 -22 12 -34.5t32 -12.5t32 12.5t12 34.5v295q0 56 -17.5 94.5t-44.5 62.5t-59.5 34.5t-63.5 10.5q-40 0 -79 -16t-68 -54l-2 2v255q0 22 -12 34.5t-32 12.5t-32 -12.5t-12 -34.5v-684q0 -22 12 -34.5t32 -12.5t32 12.5t12 34.5v290q0 35 11 60t28.5 40.5
t39.5 23t44 7.5t44 -7.5t39.5 -23t28.5 -40.5t11 -60v-290z" />
    <glyph glyph-name="i" unicode="i" horiz-adv-x="204" 
d="M146 491q0 22 -12 34.5t-32 12.5t-32 -12.5t-12 -34.5v-450q0 -22 12 -34.5t32 -12.5t32 12.5t12 34.5v450zM48 664q0 -23 15.5 -38.5t38.5 -15.5t38.5 15.5t15.5 38.5t-15.5 38.5t-38.5 15.5t-38.5 -15.5t-15.5 -38.5z" />
    <glyph glyph-name="j" unicode="j" horiz-adv-x="204" 
d="M146 491q0 22 -12 34.5t-32 12.5t-32 -12.5t-12 -34.5v-660q0 -22 12 -34.5t32 -12.5t32 12.5t12 34.5v660zM48 664q0 -23 15.5 -38.5t38.5 -15.5t38.5 15.5t15.5 38.5t-15.5 38.5t-38.5 15.5t-38.5 -15.5t-15.5 -38.5z" />
    <glyph glyph-name="k" unicode="k" horiz-adv-x="463" 
d="M58 41q0 -22 12 -34.5t32 -12.5t32 12.5t12 34.5v212l222 -232q16 -16 25.5 -21.5t25.5 -5.5q14 0 25.5 10t11.5 25q0 13 -4 22.5t-17 22.5l-232 229l200 158q13 10 17.5 19t4.5 19q0 17 -10 28t-27 11q-11 0 -23.5 -8t-26.5 -19l-192 -161v375q0 22 -12 34.5t-32 12.5
t-32 -12.5t-12 -34.5v-684z" />
    <glyph glyph-name="l" unicode="l" horiz-adv-x="204" 
d="M146 725q0 22 -12 34.5t-32 12.5t-32 -12.5t-12 -34.5v-684q0 -22 12 -34.5t32 -12.5t32 12.5t12 34.5v684z" />
    <glyph glyph-name="m" unicode="m" horiz-adv-x="834" 
d="M373 41q0 -22 12 -34.5t32 -12.5t32 12.5t12 34.5v298q0 57 29.5 90t83.5 33t84 -33t30 -90v-298q0 -22 12 -34.5t32 -12.5t32 12.5t12 34.5v295q0 56 -17.5 94.5t-44.5 62.5t-59.5 34.5t-63.5 10.5q-58 0 -96 -24t-67 -66q-30 51 -68.5 70.5t-77.5 19.5
q-30 0 -51.5 -6.5t-37.5 -16t-26.5 -21t-18.5 -21.5l-2 2v16q0 22 -12 34.5t-32 12.5t-32 -12.5t-12 -34.5v-450q0 -22 12 -34.5t32 -12.5t32 12.5t12 34.5v298q0 57 29.5 90t83.5 33t84 -33t30 -90v-298z" />
    <glyph glyph-name="n" unicode="n" 
d="M58 41q0 -22 12 -34.5t32 -12.5t32 12.5t12 34.5v290q0 35 11 60t28.5 40.5t39.5 23t44 7.5t44 -7.5t39.5 -23t28.5 -40.5t11 -60v-290q0 -22 12 -34.5t32 -12.5t32 12.5t12 34.5v295q0 56 -17.5 94.5t-44.5 62.5t-59.5 34.5t-63.5 10.5q-40 0 -79 -16t-68 -54l-2 2v21
q0 22 -12 34.5t-32 12.5t-32 -12.5t-12 -34.5v-450z" />
    <glyph glyph-name="o" unicode="o" 
d="M35 266q0 -53 15.5 -102t45.5 -87t73.5 -60.5t99.5 -22.5t99.5 22.5t73.5 60.5t45.5 87t15.5 102t-15.5 102t-45.5 87t-73.5 60.5t-99.5 22.5t-99.5 -22.5t-73.5 -60.5t-45.5 -87t-15.5 -102zM123 266q0 34 7.5 68.5t25 63t45.5 46.5t68 18q41 0 68.5 -18t45 -46.5
t25 -63t7.5 -68.5t-7.5 -68.5t-25 -63t-45 -46.5t-68.5 -18q-40 0 -68 18t-45.5 46.5t-25 63t-7.5 68.5z" />
    <glyph glyph-name="p" unicode="p" horiz-adv-x="556" 
d="M141 266q0 34 7.5 68.5t25 63t45.5 46.5t68 18q41 0 68.5 -18t45 -46.5t25 -63t7.5 -68.5t-7.5 -68.5t-25 -63t-45 -46.5t-68.5 -18q-40 0 -68 18t-45.5 46.5t-25 63t-7.5 68.5zM62 -169q0 -22 12 -34.5t32 -12.5t32 12.5t12 34.5v235h2q9 -12 22 -25t31 -23.5t40.5 -17
t48.5 -6.5q54 0 96 22.5t71.5 60.5t44.5 87t15 102t-15 102t-44.5 87t-71.5 60.5t-96 22.5q-104 0 -142 -73h-2v26q0 22 -12 34.5t-32 12.5t-32 -12.5t-12 -34.5v-660z" />
    <glyph glyph-name="q" unicode="q" horiz-adv-x="556" 
d="M415 266q0 -34 -7.5 -68.5t-25 -63t-45 -46.5t-68.5 -18q-40 0 -68 18t-45.5 46.5t-25 63t-7.5 68.5t7.5 68.5t25 63t45.5 46.5t68 18q41 0 68.5 -18t45 -46.5t25 -63t7.5 -68.5zM35 266q0 -53 15 -102t44.5 -87t71.5 -60.5t96 -22.5q26 0 48.5 6.5t40.5 17t31 23.5
t22 25h2v-235q0 -22 12 -34.5t32 -12.5t32 12.5t12 34.5v660q0 22 -12 34.5t-32 12.5t-32 -12.5t-12 -34.5v-26h-2q-38 73 -142 73q-54 0 -96 -22.5t-71.5 -60.5t-44.5 -87t-15 -102z" />
    <glyph glyph-name="r" unicode="r" horiz-adv-x="315" 
d="M58 41q0 -22 12 -34.5t32 -12.5t32 12.5t12 34.5v253q0 39 11 66t27.5 45t37.5 27.5t40 12.5q55 10 55 48q0 19 -13 32t-36 13q-19 0 -37.5 -8.5t-34 -22t-28 -30t-20.5 -31.5h-2v45q0 22 -12 34.5t-32 12.5t-32 -12.5t-12 -34.5v-450z" />
    <glyph glyph-name="s" unicode="s" horiz-adv-x="444" 
d="M46 388q0 -37 21 -62.5t52.5 -44t68.5 -33t68.5 -29.5t52.5 -33t21 -44q0 -27 -27.5 -49.5t-75.5 -22.5q-36 0 -61 10t-44 22.5l-33 22.5t-29 10q-14 0 -25 -11t-11 -29q0 -17 15.5 -35t42.5 -32.5t63.5 -24t78.5 -9.5q37 0 72 10t62 30.5t43.5 51t16.5 72.5q0 39 -21 65
t-52.5 44.5t-68.5 32t-68.5 27t-52.5 29.5t-21 39q0 34 27.5 50.5t65.5 16.5q32 0 52 -8.5t34 -18.5l25.5 -18.5t25.5 -8.5q20 0 30 11t10 25q0 21 -17.5 38t-43.5 29.5t-57.5 19.5t-58.5 7q-33 0 -65.5 -9.5t-58 -28.5t-41.5 -47t-16 -65z" />
    <glyph glyph-name="t" unicode="t" horiz-adv-x="260" 
d="M86 532h-36q-44 0 -44 -38t44 -38h36v-415q0 -22 12 -34.5t32 -12.5t32 12.5t12 34.5v415h36q44 0 44 38t-44 38h-36v115q0 22 -12 34.5t-32 12.5t-32 -12.5t-12 -34.5v-115z" />
    <glyph glyph-name="u" unicode="u" 
d="M58 206q0 -58 18 -98.5t47.5 -66t67.5 -36.5t78 -11t78 11t67.5 36.5t47.5 66t18 98.5v285q0 22 -12 34.5t-32 12.5t-32 -12.5t-12 -34.5v-282q0 -139 -123 -139t-123 139v282q0 22 -12 34.5t-32 12.5t-32 -12.5t-12 -34.5v-285z" />
    <glyph glyph-name="v" unicode="v" horiz-adv-x="426" 
d="M167 32q7 -20 16 -29t30 -9t30 9t16 29l153 429q5 12 7 20t2 16q0 20 -12 30.5t-28 10.5q-22 0 -31.5 -9.5t-14.5 -24.5l-121 -368h-2l-121 368q-5 15 -14.5 24.5t-31.5 9.5q-16 0 -28 -10.5t-12 -30.5q0 -8 2 -16t7 -20z" />
    <glyph glyph-name="w" unicode="w" horiz-adv-x="742" 
d="M155 40q9 -26 20.5 -36t30.5 -10q18 0 30 10t20 36l114 359h2l114 -359q8 -26 20 -36t30 -10q19 0 30.5 10t20.5 36l146 425q3 10 5 18.5t2 15.5q0 13 -9.5 26t-32.5 13q-14 0 -27 -8t-22 -37l-113 -363h-2l-111 350q-9 29 -18.5 43.5t-33.5 14.5t-33.5 -14.5
t-18.5 -43.5l-111 -350h-2l-113 363q-9 29 -22 37t-27 8q-23 0 -32.5 -13t-9.5 -26q0 -7 2 -15.5t5 -18.5z" />
    <glyph glyph-name="x" unicode="x" horiz-adv-x="464" 
d="M24 76q-11 -14 -14.5 -24t-3.5 -18q0 -17 11.5 -28.5t28.5 -11.5q25 0 39 20l147 204l147 -204q14 -20 39 -20q17 0 28.5 11.5t11.5 28.5q0 8 -3.5 18t-14.5 24l-157 206l138 181q15 19 15 35q0 17 -10.5 28.5t-26.5 11.5q-15 0 -23 -6t-15 -14l-129 -172l-129 172
q-7 8 -15 14t-23 6q-16 0 -26.5 -11.5t-10.5 -28.5q0 -16 15 -35l138 -181z" />
    <glyph glyph-name="y" unicode="y" horiz-adv-x="444" 
d="M179 19l-56 -149q-8 -23 -10.5 -32t-2.5 -17q0 -17 12.5 -27t27.5 -10q17 0 27.5 9.5t15.5 23.5l222 635q8 23 10 32t2 17q0 17 -12.5 27t-27.5 10q-17 0 -27 -9.5t-15 -23.5l-120 -365h-2l-122 365q-5 14 -16 23.5t-28 9.5q-15 0 -27.5 -10t-12.5 -27q0 -8 2 -17t10 -32
z" />
    <glyph glyph-name="z" unicode="z" horiz-adv-x="444" 
d="M141 76l-3 2l257 378q10 14 14 24t4 21t-8.5 21t-34.5 10h-296q-44 0 -44 -38t44 -38h218l-254 -380q-10 -14 -14 -24t-4 -21t8.5 -21t34.5 -10h317q44 0 44 38t-44 38h-239z" />
    <glyph glyph-name="braceleft" unicode="{" horiz-adv-x="241" 
d="M76 26q0 -52 25 -80t77 -28h38q40 0 40 30t-40 30h-14q-20 0 -32 12.5t-12 35.5v158q0 41 -9.5 66.5t-23 39.5t-29.5 20t-29 7v2q13 2 29 7.5t29.5 19.5t23 39.5t9.5 66.5v158q0 23 12 35.5t32 12.5h14q40 0 40 30t-40 30h-38q-52 0 -77 -28t-25 -80v-122
q0 -26 -0.5 -48.5t-5 -39.5t-14 -28t-27.5 -16q-23 -6 -33.5 -13.5t-10.5 -24.5t10.5 -24t33.5 -14q18 -5 27.5 -16.5t14 -28.5t5 -39t0.5 -48v-122z" />
    <glyph glyph-name="bar" unicode="|" horiz-adv-x="222" 
d="M70 37q0 -19 10 -31t31 -12t31 12t10 31v692q0 19 -10 31t-31 12t-31 -12t-10 -31v-692z" />
    <glyph glyph-name="braceright" unicode="}" horiz-adv-x="241" 
d="M165 610q0 52 -25 80t-77 28h-38q-40 0 -40 -30t40 -30h14q20 0 32 -12.5t12 -35.5v-158q0 -41 9.5 -66.5t23 -39.5t29.5 -19.5t29 -7.5v-2q-13 -1 -29 -7t-29.5 -20t-23 -39.5t-9.5 -66.5v-158q0 -23 -12 -35.5t-32 -12.5h-14q-40 0 -40 -30t40 -30h38q52 0 77 28t25 80
v122q0 26 0.5 48.5t5 39.5t14 28.5t27.5 15.5q23 6 33.5 13.5t10.5 24.5t-10.5 24t-33.5 14q-18 5 -27.5 16.5t-14 28.5t-5 39t-0.5 48v122z" />
    <glyph glyph-name="asciitilde" unicode="~" horiz-adv-x="600" 
d="M64 210q0 -11 10 -19.5t25 -9.5q18 0 30 10.5t21.5 23t20 23.5t26.5 11q19 0 42 -10.5l49 -23.5t54.5 -23.5t63.5 -10.5q23 0 46.5 10t42 26t30 37t11.5 42q0 11 -10 19.5t-25 9.5q-18 0 -29.5 -10.5t-21.5 -23t-20.5 -23.5t-26.5 -11q-19 0 -42 10.5l-49 23.5
t-54.5 23.5t-63.5 10.5q-23 0 -46.5 -10t-42 -26t-30 -37t-11.5 -42z" />
    <glyph glyph-name="Adieresis" unicode="&#xc4;" horiz-adv-x="612" 
d="M141 155h330l46 -128q5 -14 15 -23.5t28 -9.5q17 0 29.5 10t12.5 27q0 9 -5 23t-7 21l-221 589q-9 23 -23 38.5t-40 15.5t-40 -15.5t-23 -38.5l-221 -589q-2 -7 -7 -21t-5 -23q0 -17 12.5 -27t29.5 -10q18 0 28 9.5t15 23.5zM444 231h-276l137 385h2zM159 818
q0 -23 15.5 -38.5t38.5 -15.5t38.5 15.5t15.5 38.5t-15.5 38.5t-38.5 15.5t-38.5 -15.5t-15.5 -38.5zM345 818q0 -23 15.5 -38.5t38.5 -15.5t38.5 15.5t15.5 38.5t-15.5 38.5t-38.5 15.5t-38.5 -15.5t-15.5 -38.5z" />
    <glyph glyph-name="onesuperior" unicode="&#xb9;" horiz-adv-x="612" 
d="M141 155h330l46 -128q5 -14 15 -23.5t28 -9.5q17 0 29.5 10t12.5 27q0 9 -5 23t-7 21l-221 589q-9 23 -23 38.5t-40 15.5t-40 -15.5t-23 -38.5l-221 -589q-2 -7 -7 -21t-5 -23q0 -17 12.5 -27t29.5 -10q18 0 28 9.5t15 23.5zM444 231h-276l137 385h2zM212 828
q0 -19 7.5 -36.5t20 -30t30 -20t36.5 -7.5q20 0 37 7.5t29.5 20t20 30t7.5 36.5q0 20 -7.5 37t-20 29.5t-29.5 20t-37 7.5q-19 0 -36.5 -7.5t-30 -20t-20 -29.5t-7.5 -37zM260 828q0 19 13.5 32.5t32.5 13.5t32.5 -13.5t13.5 -32.5t-13.5 -32.5t-32.5 -13.5t-32.5 13.5
t-13.5 32.5z" />
    <glyph glyph-name="twosuperior" unicode="&#xb2;" horiz-adv-x="593" 
d="M125 356q0 51 12.5 102t39.5 92t69.5 66.5t101.5 25.5q41 0 67 -11t44 -24t31 -24t28 -11q17 0 26.5 12.5t9.5 29.5q0 14 -14.5 31.5t-41.5 34t-65 27.5t-85 11q-79 0 -138.5 -30.5t-99 -81t-59.5 -116t-20 -134.5t20 -134.5t59 -116t97.5 -81t135.5 -30.5q47 0 88 9
t72 23.5t48.5 32t17.5 34.5q0 19 -9.5 30t-25.5 11q-14 0 -30.5 -10t-39 -22t-52 -22t-69.5 -10q-57 0 -98 25.5t-67.5 66.5t-39.5 92t-13 102zM363 0h-53l-26 -37q-10 -15 -10 -25q0 -4 5.5 -11.5t24.5 -7.5q22 0 33 -2t11 -16q0 -15 -8.5 -21t-26.5 -6q-14 0 -28 4t-24 4
q-11 0 -16 -8.5t-5 -18.5q0 -16 20.5 -25.5t52.5 -9.5q48 0 79.5 20t31.5 66q0 9 -4.5 18.5t-13.5 17.5t-21.5 13.5t-29.5 5.5q-8 0 -12.5 -1t-8.5 -2z" />
    <glyph glyph-name="Eacute" unicode="&#xc9;" horiz-adv-x="444" 
d="M146 315h193q19 0 31 10t12 31t-12 31t-31 10h-193v233h212q19 0 31 10t12 31t-12 31t-31 10h-253q-25 0 -36 -14t-11 -34v-616q0 -20 11 -34t36 -14h253q19 0 31 10t12 31t-12 31t-31 10h-212v233zM298 823q21 8 28 18t7 19q0 11 -9 26.5t-29 15.5q-7 0 -14 -2t-20 -7
l-115 -47q-21 -8 -28 -18t-7 -19q0 -11 9 -26.5t29 -15.5q7 0 14 2t20 7z" />
    <glyph glyph-name="threesuperior" unicode="&#xb3;" horiz-adv-x="668" 
d="M146 557h2l360 -517q18 -26 30 -36t32 -10q40 0 40 52v625q0 22 -12 34.5t-32 12.5t-32 -12.5t-12 -34.5v-516h-2l-360 517q-18 26 -30 36t-32 10q-40 0 -40 -52v-625q0 -22 12 -34.5t32 -12.5t32 12.5t12 34.5v516zM185 815q0 -16 11 -27.5t22 -11.5q9 0 15.5 3t13.5 7
t15 7t18 3q15 0 27.5 -3t25 -7t26.5 -7t31 -3q42 0 67.5 20t25.5 43q0 16 -11 27.5t-22 11.5q-9 0 -15.5 -3t-13.5 -7t-14.5 -7t-18.5 -3q-15 0 -27.5 3t-25 7t-26.5 7t-31 3q-42 0 -67.5 -20t-25.5 -43z" />
    <glyph glyph-name="Odieresis" unicode="&#xd6;" horiz-adv-x="686" 
d="M125 356q0 51 11.5 102t37.5 92t67.5 66.5t101.5 25.5t101.5 -25.5t67.5 -66.5t37.5 -92t11.5 -102t-11.5 -102t-37.5 -92t-67.5 -66.5t-101.5 -25.5t-101.5 25.5t-67.5 66.5t-37.5 92t-11.5 102zM31 356q0 -69 20 -134.5t59.5 -116t98 -81t134.5 -30.5t134.5 30.5t98 81
t59.5 116t20 134.5t-20 134.5t-59.5 116t-98 81t-134.5 30.5t-134.5 -30.5t-98 -81t-59.5 -116t-20 -134.5zM196 818q0 -23 15.5 -38.5t38.5 -15.5t38.5 15.5t15.5 38.5t-15.5 38.5t-38.5 15.5t-38.5 -15.5t-15.5 -38.5zM382 818q0 -23 15.5 -38.5t38.5 -15.5t38.5 15.5
t15.5 38.5t-15.5 38.5t-38.5 15.5t-38.5 -15.5t-15.5 -38.5z" />
    <glyph glyph-name="Udieresis" unicode="&#xdc;" horiz-adv-x="668" 
d="M58 282q0 -90 26 -146t66.5 -87.5t89 -43t94.5 -11.5t94.5 11.5t89 43t66.5 87.5t26 146v389q0 22 -12 34.5t-32 12.5t-32 -12.5t-12 -34.5v-423q0 -84 -52 -131t-136 -47t-136 47t-52 131v423q0 22 -12 34.5t-32 12.5t-32 -12.5t-12 -34.5v-389zM187 818
q0 -23 15.5 -38.5t38.5 -15.5t38.5 15.5t15.5 38.5t-15.5 38.5t-38.5 15.5t-38.5 -15.5t-15.5 -38.5zM373 818q0 -23 15.5 -38.5t38.5 -15.5t38.5 15.5t15.5 38.5t-15.5 38.5t-38.5 15.5t-38.5 -15.5t-15.5 -38.5z" />
    <glyph glyph-name="dieresistonos" unicode="&#x385;" horiz-adv-x="204" 
d="M-85 658q0 -23 15.5 -38.5t38.5 -15.5t38.5 15.5t15.5 38.5t-15.5 38.5t-38.5 15.5t-38.5 -15.5t-15.5 -38.5zM208 658q0 -23 15.5 -38.5t38.5 -15.5t38.5 15.5t15.5 38.5t-15.5 38.5t-38.5 15.5t-38.5 -15.5t-15.5 -38.5zM192 667q17 14 21 25.5t2 19.5q-1 6 -5.5 12
t-10.5 11t-14.5 7.5t-17.5 -0.5q-7 -2 -13 -6t-17 -12l-98 -77q-17 -14 -21.5 -25.5t-1.5 -19.5q2 -6 6 -12t10 -11t14.5 -7.5t17.5 0.5q7 2 13 6t17 12z" />
    <glyph glyph-name="agrave" unicode="&#xe0;" horiz-adv-x="556" 
d="M498 495q0 23 -14 33t-27 10q-14 0 -27.5 -10t-13.5 -33v-28h-2q-31 34 -65 52.5t-80 18.5q-56 0 -99.5 -22.5t-73.5 -60.5t-45.5 -87t-15.5 -102t15.5 -102t45.5 -87t73.5 -60.5t99.5 -22.5q43 0 79.5 19.5t65.5 60.5h2v-37q0 -23 13.5 -33t27.5 -10q13 0 27 10t14 33
v458zM123 266q0 34 7.5 68.5t25 63t45.5 46.5t68 18q41 0 68.5 -18t45 -46.5t25 -63t7.5 -68.5t-7.5 -68.5t-25 -63t-45 -46.5t-68.5 -18q-40 0 -68 18t-45.5 46.5t-25 63t-7.5 68.5zM181 667q-17 14 -21 25.5t-2 19.5q2 6 6 12t10 11t14.5 7.5t17.5 -0.5q7 -2 13 -6t17 -12
l98 -77q17 -14 21.5 -25.5t1.5 -19.5q-1 -6 -5.5 -12t-10.5 -11t-14.5 -7.5t-17.5 0.5q-10 3 -30 18z" />
    <glyph glyph-name="acircumflex" unicode="&#xe2;" horiz-adv-x="556" 
d="M498 495q0 23 -14 33t-27 10q-14 0 -27.5 -10t-13.5 -33v-28h-2q-31 34 -65 52.5t-80 18.5q-56 0 -99.5 -22.5t-73.5 -60.5t-45.5 -87t-15.5 -102t15.5 -102t45.5 -87t73.5 -60.5t99.5 -22.5q43 0 79.5 19.5t65.5 60.5h2v-37q0 -23 13.5 -33t27.5 -10q13 0 27 10t14 33
v458zM123 266q0 34 7.5 68.5t25 63t45.5 46.5t68 18q41 0 68.5 -18t45 -46.5t25 -63t7.5 -68.5t-7.5 -68.5t-25 -63t-45 -46.5t-68.5 -18q-40 0 -68 18t-45.5 46.5t-25 63t-7.5 68.5zM149 680q-23 -10 -23 -35q0 -16 9.5 -27t26.5 -11q4 0 9.5 1t12.5 4l94 37l94 -37
q7 -3 12.5 -4t9.5 -1q17 0 26.5 11t9.5 27q0 25 -23 35l-129 55z" />
    <glyph glyph-name="adieresis" unicode="&#xe4;" horiz-adv-x="556" 
d="M498 495q0 23 -14 33t-27 10q-14 0 -27.5 -10t-13.5 -33v-28h-2q-31 34 -65 52.5t-80 18.5q-56 0 -99.5 -22.5t-73.5 -60.5t-45.5 -87t-15.5 -102t15.5 -102t45.5 -87t73.5 -60.5t99.5 -22.5q43 0 79.5 19.5t65.5 60.5h2v-37q0 -23 13.5 -33t27.5 -10q13 0 27 10t14 33
v458zM123 266q0 34 7.5 68.5t25 63t45.5 46.5t68 18q41 0 68.5 -18t45 -46.5t25 -63t7.5 -68.5t-7.5 -68.5t-25 -63t-45 -46.5t-68.5 -18q-40 0 -68 18t-45.5 46.5t-25 63t-7.5 68.5zM131 658q0 -23 15.5 -38.5t38.5 -15.5t38.5 15.5t15.5 38.5t-15.5 38.5t-38.5 15.5
t-38.5 -15.5t-15.5 -38.5zM317 658q0 -23 15.5 -38.5t38.5 -15.5t38.5 15.5t15.5 38.5t-15.5 38.5t-38.5 15.5t-38.5 -15.5t-15.5 -38.5z" />
    <glyph glyph-name="tonos" unicode="&#x384;" horiz-adv-x="204" 
d="M180 667q17 14 21 25.5t2 19.5q-1 6 -5.5 12t-10.5 11t-14.5 7.5t-17.5 -0.5q-7 -2 -13 -6t-17 -12l-98 -77q-17 -14 -21.5 -25.5t-1.5 -19.5q2 -6 6 -12t10 -11t14.5 -7.5t17.5 0.5q7 2 13 6t17 12z" />
    <glyph glyph-name="dieresis" unicode="&#xa8;" horiz-adv-x="204" 
d="M-45 658q0 -23 15.5 -38.5t38.5 -15.5t38.5 15.5t15.5 38.5t-15.5 38.5t-38.5 15.5t-38.5 -15.5t-15.5 -38.5zM141 658q0 -23 15.5 -38.5t38.5 -15.5t38.5 15.5t15.5 38.5t-15.5 38.5t-38.5 15.5t-38.5 -15.5t-15.5 -38.5z" />
    <glyph glyph-name="ccedilla" unicode="&#xe7;" horiz-adv-x="444" 
d="M35 266q0 -53 14.5 -102t44.5 -87t75 -60.5t106 -22.5q69 0 104.5 22t35.5 47q0 18 -9.5 27.5t-24.5 9.5q-10 0 -19.5 -4.5t-21 -10.5t-27 -10.5t-38.5 -4.5q-41 0 -70 18t-47 46.5t-26.5 63t-8.5 68.5t8.5 68.5t26.5 63t47 46.5t70 18q23 0 37.5 -4.5t26 -9.5l21 -9.5
t22.5 -4.5q16 0 26 11.5t10 25.5q0 27 -37.5 47t-105.5 20q-61 0 -106 -22.5t-75 -60.5t-44.5 -87t-14.5 -102zM288 0h-53l-26 -37q-10 -15 -10 -25q0 -4 5.5 -11.5t24.5 -7.5q22 0 33 -2t11 -16q0 -15 -8.5 -21t-26.5 -6q-14 0 -28 4t-24 4q-11 0 -16 -8.5t-5 -18.5
q0 -16 20.5 -25.5t52.5 -9.5q48 0 79.5 20t31.5 66q0 9 -4.5 18.5t-13.5 17.5t-21.5 13.5t-29.5 5.5q-8 0 -12.5 -1t-8.5 -2z" />
    <glyph glyph-name="eacute" unicode="&#xe9;" horiz-adv-x="520" 
d="M445 232q29 0 39 12t10 35q0 48 -15.5 94.5t-44.5 83t-72 59t-97 22.5q-56 0 -100.5 -22t-75 -59.5t-47 -87t-16.5 -103.5q0 -53 14 -102t44 -87t76 -60.5t110 -22.5q39 0 77 11t68.5 27.5t49 35.5t18.5 35q0 19 -10 29t-22 10t-25.5 -11t-33 -24.5t-48.5 -25t-73 -11.5
q-37 0 -66 12.5t-49.5 34.5t-31 51.5t-10.5 63.5h331zM114 298q1 30 9.5 60t26.5 53t46 37.5t69 13.5q36 -1 63 -16t44 -38.5t25.5 -52t8.5 -57.5h-292zM371 667q18 14 22 25.5t2 19.5q-4 11 -16.5 23t-31.5 7q-7 -2 -13.5 -6t-17.5 -12l-97 -77q-18 -14 -22 -25.5t-2 -19.5
q2 -6 6 -12t10 -11t14.5 -7.5t17.5 0.5q7 2 13.5 6t17.5 12z" />
    <glyph glyph-name="egrave" unicode="&#xe8;" horiz-adv-x="520" 
d="M445 232q29 0 39 12t10 35q0 48 -15.5 94.5t-44.5 83t-72 59t-97 22.5q-56 0 -100.5 -22t-75 -59.5t-47 -87t-16.5 -103.5q0 -53 14 -102t44 -87t76 -60.5t110 -22.5q39 0 77 11t68.5 27.5t49 35.5t18.5 35q0 19 -10 29t-22 10t-25.5 -11t-33 -24.5t-48.5 -25t-73 -11.5
q-37 0 -66 12.5t-49.5 34.5t-31 51.5t-10.5 63.5h331zM114 298q1 30 9.5 60t26.5 53t46 37.5t69 13.5q36 -1 63 -16t44 -38.5t25.5 -52t8.5 -57.5h-292zM191 667q-17 14 -21 25.5t-2 19.5q2 6 6 12t10 11t14.5 7.5t17.5 -0.5q7 -2 13 -6t17 -12l98 -77q17 -14 21.5 -25.5
t1.5 -19.5q-1 -6 -5.5 -12t-10.5 -11t-14.5 -7.5t-17.5 0.5q-10 3 -30 18z" />
    <glyph glyph-name="ecircumflex" unicode="&#xea;" horiz-adv-x="520" 
d="M445 232q29 0 39 12t10 35q0 48 -15.5 94.5t-44.5 83t-72 59t-97 22.5q-56 0 -100.5 -22t-75 -59.5t-47 -87t-16.5 -103.5q0 -53 14 -102t44 -87t76 -60.5t110 -22.5q39 0 77 11t68.5 27.5t49 35.5t18.5 35q0 19 -10 29t-22 10t-25.5 -11t-33 -24.5t-48.5 -25t-73 -11.5
q-37 0 -66 12.5t-49.5 34.5t-31 51.5t-10.5 63.5h331zM114 298q1 30 9.5 60t26.5 53t46 37.5t69 13.5q36 -1 63 -16t44 -38.5t25.5 -52t8.5 -57.5h-292zM131 680q-23 -10 -23 -35q0 -16 9.5 -27t26.5 -11q4 0 9.5 1t12.5 4l94 37l94 -37q7 -3 12.5 -4t9.5 -1q17 0 26.5 11
t9.5 27q0 25 -23 35l-129 55z" />
    <glyph glyph-name="edieresis" unicode="&#xeb;" horiz-adv-x="520" 
d="M445 232q29 0 39 12t10 35q0 48 -15.5 94.5t-44.5 83t-72 59t-97 22.5q-56 0 -100.5 -22t-75 -59.5t-47 -87t-16.5 -103.5q0 -53 14 -102t44 -87t76 -60.5t110 -22.5q39 0 77 11t68.5 27.5t49 35.5t18.5 35q0 19 -10 29t-22 10t-25.5 -11t-33 -24.5t-48.5 -25t-73 -11.5
q-37 0 -66 12.5t-49.5 34.5t-31 51.5t-10.5 63.5h331zM114 298q1 30 9.5 60t26.5 53t46 37.5t69 13.5q36 -1 63 -16t44 -38.5t25.5 -52t8.5 -57.5h-292zM113 658q0 -23 15.5 -38.5t38.5 -15.5t38.5 15.5t15.5 38.5t-15.5 38.5t-38.5 15.5t-38.5 -15.5t-15.5 -38.5zM299 658
q0 -23 15.5 -38.5t38.5 -15.5t38.5 15.5t15.5 38.5t-15.5 38.5t-38.5 15.5t-38.5 -15.5t-15.5 -38.5z" />
    <glyph glyph-name="sterling" unicode="&#xa3;" horiz-adv-x="593" 
d="M242 398l-18 33t-17 32.5t-13 34t-5 37.5q0 25 11 44t29 31.5t41.5 19t47.5 6.5q39 0 63 -10t39 -25.5t23.5 -33.5l16.5 -33.5t17.5 -25.5t26.5 -10q19 0 30.5 11.5t11.5 31.5q0 30 -19 61t-51 57t-73 42.5t-86 16.5q-42 0 -81 -13t-69 -36t-48 -56t-18 -72
q0 -40 15.5 -75.5t33.5 -67.5h-77q-19 0 -31 -10t-12 -31t12 -31t31 -10h101q5 -17 6 -34t1 -31q0 -45 -18 -77t-39 -56t-39 -42t-18 -34q0 -26 16 -34t37 -8h400q19 0 31 10t12 31t-12 31t-31 10h-337q21 18 37 40t27 44.5t16.5 44t5.5 39.5q0 23 -2.5 38l-4.5 28h109
q19 0 31 10t12 31t-12 31t-31 10h-129z" />
    <glyph glyph-name="trademark" unicode="&#x2122;" horiz-adv-x="990" 
d="M185 341q0 -19 10 -31t31 -12t31 12t10 31v305h95q32 0 32 33t-32 33h-272q-32 0 -32 -33t32 -33h95v-305zM474 336q0 -16 11 -27t27 -11t27 11t11 27v288h2l108 -289q8 -20 17.5 -28.5t25.5 -8.5t25.5 8.5t17.5 28.5l108 289h2v-288q0 -16 11 -27t27 -11t27 11t11 27
v315q0 67 -63 67q-20 0 -39 -7.5t-28 -31.5l-98 -261l-100 261q-9 24 -28 31.5t-39 7.5q-63 0 -63 -67v-315z" />
    <glyph glyph-name="icircumflex" unicode="&#xee;" horiz-adv-x="204" 
d="M146 491q0 22 -12 34.5t-32 12.5t-32 -12.5t-12 -34.5v-450q0 -22 12 -34.5t32 -12.5t32 12.5t12 34.5v450zM-27 680q-23 -10 -23 -35q0 -16 9.5 -27t26.5 -11q4 0 9.5 1t12.5 4l94 37l94 -37q7 -3 12.5 -4t9.5 -1q17 0 26.5 11t9.5 27q0 25 -23 35l-129 55z" />
    <glyph glyph-name="idieresis" unicode="&#xef;" horiz-adv-x="204" 
d="M146 491q0 22 -12 34.5t-32 12.5t-32 -12.5t-12 -34.5v-450q0 -22 12 -34.5t32 -12.5t32 12.5t12 34.5v450zM-45 658q0 -23 15.5 -38.5t38.5 -15.5t38.5 15.5t15.5 38.5t-15.5 38.5t-38.5 15.5t-38.5 -15.5t-15.5 -38.5zM141 658q0 -23 15.5 -38.5t38.5 -15.5t38.5 15.5
t15.5 38.5t-15.5 38.5t-38.5 15.5t-38.5 -15.5t-15.5 -38.5z" />
    <glyph glyph-name="bullet" unicode="&#x2022;" horiz-adv-x="500" 
d="M72 356q0 -37 14 -69.5t38 -56.5t56.5 -38t69.5 -14t69.5 14t56.5 38t38 56.5t14 69.5t-14 69.5t-38 56.5t-56.5 38t-69.5 14t-69.5 -14t-56.5 -38t-38 -56.5t-14 -69.5z" />
    <glyph glyph-name="onehalf" unicode="&#xbd;" horiz-adv-x="814" 
d="M172 58q-8 -20 -11 -29.5t-3 -15.5q0 -10 8 -18.5t25 -8.5q14 0 22 7t15 23l266 638q9 21 11.5 30t2.5 15q0 9 -8.5 18t-26.5 9q-22 0 -35 -30zM115 652v-331q0 -19 11 -27.5t25 -8.5q15 0 25.5 8.5t10.5 27.5v377q0 9 -6 11.5t-13 2.5h-104q-28 0 -28 -30t28 -30h51z
M553 60l145 175q18 22 27 40.5t9 43.5q0 21 -8 40.5t-24.5 34.5t-41.5 24t-58 9q-36 0 -63.5 -11t-46.5 -29.5t-28.5 -42.5t-9.5 -50q0 -33 31 -33q10 0 19.5 5t9.5 19t6 28.5t17 26.5t26.5 19.5t34.5 7.5q29 0 46.5 -13.5t17.5 -36.5q0 -13 -7.5 -27.5t-18.5 -28.5
l-171 -217q-12 -15 -12 -23q0 -6 6.5 -13.5t23.5 -7.5h218q17 0 27.5 7t10.5 23q0 15 -10.5 22.5t-27.5 7.5h-148z" />
    <glyph glyph-name="perthousand" unicode="&#x2030;" horiz-adv-x="1093" 
d="M211 58q-8 -20 -11 -29.5t-3 -15.5q0 -10 8 -18.5t25 -8.5q14 0 22 7t15 23l266 638q9 21 11.5 30t2.5 15q0 9 -8.5 18t-26.5 9q-22 0 -35 -30zM545 -6q38 0 66 14t47.5 37t29 54t9.5 64t-9.5 64t-29 54t-47.5 37t-66 14q-37 0 -65.5 -14t-48 -37t-29 -54t-9.5 -64
t9.5 -64t29 -54t48 -37t65.5 -14zM545 48q-24 0 -40.5 10.5t-26.5 27t-14.5 37t-4.5 40.5t4.5 40.5t14.5 37t26.5 27t40.5 10.5t40.5 -10.5t26.5 -27t14.5 -37t4.5 -40.5t-4.5 -40.5t-14.5 -37t-26.5 -27t-40.5 -10.5zM198 380q38 0 66 14t47.5 37t29 54t9.5 64t-9.5 64
t-29 54t-47.5 37t-66 14q-37 0 -65.5 -14t-48 -37t-29 -54t-9.5 -64t9.5 -64t29 -54t48 -37t65.5 -14zM198 434q-24 0 -40.5 10.5t-26.5 27t-14.5 37t-4.5 40.5t4.5 40.5t14.5 37t26.5 27t40.5 10.5t40.5 -10.5t26.5 -27t14.5 -37t4.5 -40.5t-4.5 -40.5t-14.5 -37t-26.5 -27
t-40.5 -10.5zM895 -6q38 0 66 14t47.5 37t29 54t9.5 64t-9.5 64t-29 54t-47.5 37t-66 14q-37 0 -65.5 -14t-48 -37t-29 -54t-9.5 -64t9.5 -64t29 -54t48 -37t65.5 -14zM895 48q-24 0 -40.5 10.5t-26.5 27t-14.5 37t-4.5 40.5t4.5 40.5t14.5 37t26.5 27t40.5 10.5t40.5 -10.5
t26.5 -27t14.5 -37t4.5 -40.5t-4.5 -40.5t-14.5 -37t-26.5 -27t-40.5 -10.5z" />
    <glyph glyph-name="ocircumflex" unicode="&#xf4;" 
d="M35 266q0 -53 15.5 -102t45.5 -87t73.5 -60.5t99.5 -22.5t99.5 22.5t73.5 60.5t45.5 87t15.5 102t-15.5 102t-45.5 87t-73.5 60.5t-99.5 22.5t-99.5 -22.5t-73.5 -60.5t-45.5 -87t-15.5 -102zM123 266q0 34 7.5 68.5t25 63t45.5 46.5t68 18q41 0 68.5 -18t45 -46.5
t25 -63t7.5 -68.5t-7.5 -68.5t-25 -63t-45 -46.5t-68.5 -18q-40 0 -68 18t-45.5 46.5t-25 63t-7.5 68.5zM140 680q-23 -10 -23 -35q0 -16 9.5 -27t26.5 -11q4 0 9.5 1t12.5 4l94 37l94 -37q7 -3 12.5 -4t9.5 -1q17 0 26.5 11t9.5 27q0 25 -23 35l-129 55z" />
    <glyph glyph-name="odieresis" unicode="&#xf6;" 
d="M35 266q0 -53 15.5 -102t45.5 -87t73.5 -60.5t99.5 -22.5t99.5 22.5t73.5 60.5t45.5 87t15.5 102t-15.5 102t-45.5 87t-73.5 60.5t-99.5 22.5t-99.5 -22.5t-73.5 -60.5t-45.5 -87t-15.5 -102zM123 266q0 34 7.5 68.5t25 63t45.5 46.5t68 18q41 0 68.5 -18t45 -46.5
t25 -63t7.5 -68.5t-7.5 -68.5t-25 -63t-45 -46.5t-68.5 -18q-40 0 -68 18t-45.5 46.5t-25 63t-7.5 68.5zM122 658q0 -23 15.5 -38.5t38.5 -15.5t38.5 15.5t15.5 38.5t-15.5 38.5t-38.5 15.5t-38.5 -15.5t-15.5 -38.5zM308 658q0 -23 15.5 -38.5t38.5 -15.5t38.5 15.5
t15.5 38.5t-15.5 38.5t-38.5 15.5t-38.5 -15.5t-15.5 -38.5z" />
    <glyph glyph-name="brokenbar" unicode="&#xa6;" 
d="M35 266q0 -53 15.5 -102t45.5 -87t73.5 -60.5t99.5 -22.5t99.5 22.5t73.5 60.5t45.5 87t15.5 102t-15.5 102t-45.5 87t-73.5 60.5t-99.5 22.5t-99.5 -22.5t-73.5 -60.5t-45.5 -87t-15.5 -102zM123 266q0 34 7.5 68.5t25 63t45.5 46.5t68 18q41 0 68.5 -18t45 -46.5
t25 -63t7.5 -68.5t-7.5 -68.5t-25 -63t-45 -46.5t-68.5 -18q-40 0 -68 18t-45.5 46.5t-25 63t-7.5 68.5zM120 655q0 -16 11 -27.5t22 -11.5q9 0 15.5 3t13.5 7t15 7t18 3q15 0 27.5 -3t25 -7t26.5 -7t31 -3q42 0 67.5 20t25.5 43q0 16 -11 27.5t-22 11.5q-9 0 -15.5 -3
t-13.5 -7t-14.5 -7t-18.5 -3q-15 0 -27.5 3t-25 7t-26.5 7t-31 3q-42 0 -67.5 -20t-25.5 -43z" />
    <glyph glyph-name="Euro" unicode="&#x20ac;" horiz-adv-x="593" 
d="M10 249h53q13 -53 38 -99.5t62.5 -81t87.5 -54.5t112 -20q47 0 88 9t72 23.5t48.5 32t17.5 34.5q0 19 -9.5 30t-25.5 11q-14 0 -30.5 -10t-39 -22t-52 -22t-69.5 -10q-42 0 -75 14.5t-58.5 39t-43 57t-27.5 68.5h286q17 0 29 8t12 25t-12 25t-29 8h-298q-1 11 -1.5 20.5
t-0.5 20.5v15t1 15h299q17 0 29 8t12 25t-12 25t-29 8h-289q9 38 26.5 72.5t43.5 60.5t61.5 41.5t80.5 15.5q41 0 67 -11t44 -24t31 -24t28 -11q17 0 26.5 12.5t9.5 29.5q0 14 -14.5 31.5t-41.5 34t-65 27.5t-85 11q-65 0 -117 -21t-90.5 -57t-63.5 -84.5t-36 -103.5h-51
q-17 0 -29 -8t-12 -25t12 -25t29 -8h42q-1 -8 -1 -15v-15q0 -11 0.5 -21t1.5 -20h-43q-17 0 -29 -8t-12 -25t12 -25t29 -8z" />
    <glyph glyph-name="ugrave" unicode="&#xf9;" 
d="M58 206q0 -58 18 -98.5t47.5 -66t67.5 -36.5t78 -11t78 11t67.5 36.5t47.5 66t18 98.5v285q0 22 -12 34.5t-32 12.5t-32 -12.5t-12 -34.5v-282q0 -139 -123 -139t-123 139v282q0 22 -12 34.5t-32 12.5t-32 -12.5t-12 -34.5v-285zM161 667q-17 14 -21 25.5t-2 19.5
q2 6 6 12t10 11t14.5 7.5t17.5 -0.5q7 -2 13 -6t17 -12l98 -77q17 -14 21.5 -25.5t1.5 -19.5q-1 -6 -5.5 -12t-10.5 -11t-14.5 -7.5t-17.5 0.5q-10 3 -30 18z" />
    <glyph glyph-name="ucircumflex" unicode="&#xfb;" 
d="M58 206q0 -58 18 -98.5t47.5 -66t67.5 -36.5t78 -11t78 11t67.5 36.5t47.5 66t18 98.5v285q0 22 -12 34.5t-32 12.5t-32 -12.5t-12 -34.5v-282q0 -139 -123 -139t-123 139v282q0 22 -12 34.5t-32 12.5t-32 -12.5t-12 -34.5v-285zM140 680q-23 -10 -23 -35q0 -16 9.5 -27
t26.5 -11q4 0 9.5 1t12.5 4l94 37l94 -37q7 -3 12.5 -4t9.5 -1q17 0 26.5 11t9.5 27q0 25 -23 35l-129 55z" />
    <glyph glyph-name="udieresis" unicode="&#xfc;" 
d="M58 206q0 -58 18 -98.5t47.5 -66t67.5 -36.5t78 -11t78 11t67.5 36.5t47.5 66t18 98.5v285q0 22 -12 34.5t-32 12.5t-32 -12.5t-12 -34.5v-282q0 -139 -123 -139t-123 139v282q0 22 -12 34.5t-32 12.5t-32 -12.5t-12 -34.5v-285zM122 658q0 -23 15.5 -38.5t38.5 -15.5
t38.5 15.5t15.5 38.5t-15.5 38.5t-38.5 15.5t-38.5 -15.5t-15.5 -38.5zM308 658q0 -23 15.5 -38.5t38.5 -15.5t38.5 15.5t15.5 38.5t-15.5 38.5t-38.5 15.5t-38.5 -15.5t-15.5 -38.5z" />
    <glyph glyph-name="dagger" unicode="&#x2020;" horiz-adv-x="612" 
d="M265 470h-195q-19 0 -31 -10t-12 -31t12 -31t31 -10h195v-561q0 -19 10 -31t31 -12t31 12t10 31v561h195q19 0 31 10t12 31t-12 31t-31 10h-195v205q0 19 -10 31t-31 12t-31 -12t-10 -31v-205z" />
    <glyph glyph-name="Gamma" unicode="&#x393;" horiz-adv-x="407" 
d="M146 41v589h209q19 0 31 10t12 31t-12 31t-31 10h-250q-25 0 -36 -14t-11 -34v-623q0 -22 12 -34.5t32 -12.5t32 12.5t12 34.5z" />
    <glyph glyph-name="Delta" unicode="&#x394;" horiz-adv-x="612" 
d="M52 -6h508q17 0 29.5 10t12.5 27q0 9 -5 23t-7 21l-221 589q-9 23 -23 38.5t-40 15.5t-40 -15.5t-23 -38.5l-221 -589q-2 -7 -7 -21t-5 -23q0 -17 12.5 -27t29.5 -10zM500 73h-389l194 543h2z" />
    <glyph glyph-name="Theta" unicode="&#x398;" horiz-adv-x="686" 
d="M31 356q0 -69 20 -134.5t59.5 -116t98 -81t134.5 -30.5t134.5 30.5t98 81t59.5 116t20 134.5t-20 134.5t-59.5 116t-98 81t-134.5 30.5t-134.5 -30.5t-98 -81t-59.5 -116t-20 -134.5zM560 319q-4 -47 -17.5 -91.5t-40 -79.5t-65.5 -56.5t-94 -21.5t-94 21.5t-65.5 56.5
t-40 79.5t-17.5 91.5h434zM127 395q4 47 17.5 91t39.5 79t65.5 56t93.5 21t93.5 -21t65.5 -56t39.5 -79t17.5 -91h-432z" />
    <glyph glyph-name="Lambda" unicode="&#x39b;" horiz-adv-x="612" 
d="M517 27l-16.5 47l-12 32.5l-11 29.5t-13 37.5l-19.5 56l-30.5 85l-44.5 125l-63 176.5h-2l-63 -176.5l-44.5 -125l-30.5 -85l-19.5 -56t-13 -37.5l-11 -29.5l-12 -32.5l-16.5 -47q-5 -14 -15 -23.5t-28 -9.5q-17 0 -29.5 10t-12.5 27q0 9 5 23t7 21l221 589q9 23 23 38.5
t40 15.5t40 -15.5t23 -38.5l221 -589q2 -7 7 -21t5 -23q0 -17 -12.5 -27t-29.5 -10q-18 0 -28 9.5t-15 23.5z" />
    <glyph glyph-name="Xi" unicode="&#x39e;" 
d="M83 0h372q19 0 31 10t12 31t-12 31t-31 10h-142v233h123q19 0 31 10t12 31t-12 31t-31 10h-123v233h142q19 0 31 10t12 31t-12 31t-31 10h-372q-19 0 -31 -10t-12 -31t12 -31t31 -10h142v-233h-123q-19 0 -31 -10t-12 -31t12 -31t31 -10h123v-233h-142q-19 0 -31 -10
t-12 -31t12 -31t31 -10z" />
    <glyph glyph-name="Pi" unicode="&#x3a0;" horiz-adv-x="667" 
d="M146 643h375v-596q0 -26 12 -39.5t32 -13.5t32 13.5t12 39.5v618q0 26 -12 39.5t-32 13.5h-463q-20 0 -32 -13.5t-12 -39.5v-618q0 -26 12 -39.5t32 -13.5t32 13.5t12 39.5v596z" />
    <glyph glyph-name="germandbls" unicode="&#xdf;" horiz-adv-x="556" 
d="M58 37q0 -23 14 -33t30 -10t30 10t14 33v509q0 45 9.5 74t24.5 46t34 23.5t38 6.5q51 0 80 -34t29 -82q0 -37 -6.5 -59.5t-16.5 -36t-22.5 -19.5t-24.5 -10q-25 -8 -35 -15.5t-10 -28.5q0 -17 10 -26t35 -11q25 -1 47 -11t38.5 -28t26 -45t9.5 -62q0 -34 -6 -62.5
t-20.5 -49t-39.5 -32t-63 -11.5q-19 0 -26 -12t-7 -26q0 -18 13 -29.5t45 -11.5q47 0 84 21t62.5 54t38.5 74t13 81q0 35 -9 67t-26 58.5t-42 45.5t-57 27q41 28 59 69.5t18 98.5q0 32 -14 64.5t-40 58.5t-62.5 42.5t-82.5 16.5q-43 0 -78 -14t-60.5 -41t-39.5 -66t-14 -88
v-526z" />
    <glyph glyph-name="registered" unicode="&#xae;" horiz-adv-x="800" 
d="M381 321l95 -153q8 -12 16.5 -17t23.5 -5q13 0 25 4.5t12 12.5q0 5 -3.5 12.5t-6.5 12.5l-89 136q43 5 73 31t30 84q0 68 -38 93.5t-113 25.5h-132q-23 0 -23 -21v-359q0 -32 33 -32t33 32v143h64zM317 381v117h82q16 0 32.5 -1.5t29.5 -7t21.5 -16t8.5 -29.5
q0 -22 -8 -34.5t-21.5 -19t-31.5 -8t-37 -1.5h-76zM400 -6q75 0 141 28.5t115 77.5t77.5 115t28.5 141t-28.5 141t-77.5 115t-115 77.5t-141 28.5t-141 -28.5t-115 -77.5t-77.5 -115t-28.5 -141t28.5 -141t77.5 -115t115 -77.5t141 -28.5zM400 70q-57 0 -108 22.5t-89 61.5
t-60.5 91t-22.5 111t22.5 111t60.5 91t89 61.5t108 22.5t108 -22.5t89 -61.5t60.5 -91t22.5 -111t-22.5 -111t-60.5 -91t-89 -61.5t-108 -22.5z" />
    <glyph glyph-name="copyright" unicode="&#xa9;" horiz-adv-x="800" 
d="M272 358q0 67 33 111t97 44q40 0 60.5 -14t32.5 -30.5l22.5 -30.5t30.5 -14q15 0 24 7.5t9 20.5q0 14 -10.5 35.5t-32 41.5t-55.5 35t-81 15q-49 0 -88.5 -17t-67 -46.5t-42 -70t-14.5 -87.5q0 -46 15.5 -86.5t43 -70.5t66.5 -47t87 -17q45 0 79 15.5t56 37t33 43.5
t11 34q0 17 -11 22.5t-21 5.5q-17 0 -27 -14.5t-23.5 -31.5t-35 -31.5t-61.5 -14.5q-30 0 -54 12.5t-41 34t-26 49.5t-9 59zM400 -6q75 0 141 28.5t115 77.5t77.5 115t28.5 141t-28.5 141t-77.5 115t-115 77.5t-141 28.5t-141 -28.5t-115 -77.5t-77.5 -115t-28.5 -141
t28.5 -141t77.5 -115t115 -77.5t141 -28.5zM400 70q-57 0 -108 22.5t-89 61.5t-60.5 91t-22.5 111t22.5 111t60.5 91t89 61.5t108 22.5t108 -22.5t89 -61.5t60.5 -91t22.5 -111t-22.5 -111t-60.5 -91t-89 -61.5t-108 -22.5z" />
    <glyph glyph-name="Sigma" unicode="&#x3a3;" horiz-adv-x="542" 
d="M138 636l164 -232q11 -15 15 -26.5t3 -21.5t-5.5 -18.5t-10.5 -16.5l-174 -245h359q19 0 31 -9.5t12 -28.5t-12 -28.5t-31 -9.5h-413q-28 0 -40 10.5t-12 29.5q0 11 3 21t14 26l193 274l-186 264q-14 20 -18 31t-4 25q0 12 12 21.5t34 9.5h389q19 0 31 -9.5t12 -28.5
t-12 -28.5t-31 -9.5h-323z" />
    <glyph glyph-name="Iotadieresis" unicode="&#x3aa;" horiz-adv-x="204" 
d="M146 671q0 22 -12 34.5t-32 12.5t-32 -12.5t-12 -34.5v-630q0 -22 12 -34.5t32 -12.5t32 12.5t12 34.5v630zM-45 818q0 -23 15.5 -38.5t38.5 -15.5t38.5 15.5t15.5 38.5t-15.5 38.5t-38.5 15.5t-38.5 -15.5t-15.5 -38.5zM141 818q0 -23 15.5 -38.5t38.5 -15.5t38.5 15.5
t15.5 38.5t-15.5 38.5t-38.5 15.5t-38.5 -15.5t-15.5 -38.5z" />
    <glyph glyph-name="section" unicode="&#xa7;" horiz-adv-x="556" 
d="M85 554q0 -38 15.5 -62.5t49.5 -50.5q-27 -13 -49 -29t-38.5 -36.5t-25.5 -46.5t-9 -59q0 -53 27.5 -89.5t68 -62.5t88.5 -45t88.5 -38t68 -41t27.5 -54q0 -33 -32 -56.5t-92 -23.5q-36 0 -58.5 8.5t-37 22t-23.5 28.5l-17 28.5t-18 22t-26 8.5q-20 0 -32 -11.5
t-12 -38.5q0 -17 14 -41.5t42.5 -47t70.5 -38.5t99 -17q38 0 75.5 10t67.5 30t48.5 49t18.5 66q0 74 -65 118q24 13 44 31.5t34.5 41t22.5 47t8 49.5q0 54 -26.5 91t-65.5 63t-85.5 45t-85.5 38t-65.5 41t-26.5 54q0 41 34.5 62.5t82.5 21.5q35 0 57 -9t35.5 -22.5t21.5 -29
l15 -29t16.5 -22.5t25.5 -9q20 0 30 14.5t10 31.5q0 26 -15 53t-42.5 48.5t-65 35.5t-82.5 14q-46 0 -85 -11t-67 -32t-43.5 -51.5t-15.5 -69.5zM116 277q0 23 9 41t24 32t35 25t42 20l125 -58q30 -14 47.5 -27.5t27 -27.5t12 -28.5t2.5 -30.5q0 -14 -3.5 -28t-12.5 -29
t-26 -32t-44 -37l-114 56q-60 29 -92 57t-32 67z" />
    <glyph glyph-name="notequal" unicode="&#x2260;" horiz-adv-x="549" 
 />
    <glyph glyph-name="degree" unicode="&#xb0;" horiz-adv-x="400" 
d="M57 575q0 -30 11 -56t30.5 -45.5t45.5 -30.5t56 -11t56 11t45.5 30.5t30.5 45.5t11 56t-11 56t-30.5 45.5t-45.5 30.5t-56 11t-56 -11t-45.5 -30.5t-30.5 -45.5t-11 -56zM111 575q0 37 26 63t63 26t63 -26t26 -63t-26 -63t-63 -26t-63 26t-26 63z" />
    <glyph glyph-name="periodcentered" unicode="&#xb7;" horiz-adv-x="250" 
d="M71 303q0 -23 15.5 -38.5t38.5 -15.5t38.5 15.5t15.5 38.5t-15.5 38.5t-38.5 15.5t-38.5 -15.5t-15.5 -38.5z" />
    <glyph glyph-name="periodcentered" unicode="&#x22c5;" horiz-adv-x="250" 
d="M71 303q0 -23 15.5 -38.5t38.5 -15.5t38.5 15.5t15.5 38.5t-15.5 38.5t-38.5 15.5t-38.5 -15.5t-15.5 -38.5z" />
    <glyph glyph-name="Alpha" unicode="&#x391;" horiz-adv-x="612" 
d="M141 155h330l46 -128q5 -14 15 -23.5t28 -9.5q17 0 29.5 10t12.5 27q0 9 -5 23t-7 21l-221 589q-9 23 -23 38.5t-40 15.5t-40 -15.5t-23 -38.5l-221 -589q-2 -7 -7 -21t-5 -23q0 -17 12.5 -27t29.5 -10q18 0 28 9.5t15 23.5zM444 231h-276l137 385h2z" />
    <glyph glyph-name="plusminus" unicode="&#xb1;" horiz-adv-x="600" 
d="M259 353h-169q-19 0 -31 -10t-12 -31t12 -31t31 -10h169v-110q0 -19 10 -31t31 -12t31 12t10 31v110h169q19 0 31 10t12 31t-12 31t-31 10h-169v110q0 19 -10 31t-31 12t-31 -12t-10 -31v-110zM510 0q19 0 31 10t12 31t-12 31t-31 10h-420q-19 0 -31 -10t-12 -31t12 -31
t31 -10h420z" />
    <glyph glyph-name="lessequal" unicode="&#x2264;" horiz-adv-x="402" 
d="M439 700q6 7 7.5 12.5t1.5 18.5q0 17 -9.5 21.5t-17.5 4.5h-301q-20 0 -32.5 -9t-12.5 -31t13 -28.5t33 -6.5q47 -1 100 -1h100q-60 -65 -114 -131t-92.5 -131t-56 -127t-5.5 -119q11 -52 42 -87.5t71.5 -57.5t85.5 -32t84 -10l1 -60v-35q0 -24 9 -39.5t35 -15.5
t34.5 15.5t8.5 39.5v96q0 30 -10 46.5t-27.5 24.5t-40 10.5t-46.5 6.5q-21 3 -46.5 11t-48.5 21.5t-41 35t-25 51.5q-9 39 3 85t38 94t61 96t71.5 91l70 79z" />
    <glyph glyph-name="greaterequal" unicode="&#x2265;" horiz-adv-x="549" 
 />
    <glyph glyph-name="yen" unicode="&#xa5;" horiz-adv-x="536" 
d="M224 261h-137q-17 0 -29 -8t-12 -25t12 -25t29 -8h137v-154q0 -22 12 -34.5t32 -12.5t32 12.5t12 34.5v154h137q17 0 29 8t12 25t-12 25t-29 8h-137v71h137q17 0 29 8t12 25t-12 25t-29 8h-96l160 247q8 11 11.5 20t3.5 20q0 14 -11.5 23.5t-23.5 9.5t-23.5 -6t-22.5 -22
l-179 -269l-179 269q-11 16 -22.5 22t-23.5 6t-23.5 -9.5t-11.5 -23.5q0 -11 3.5 -20t11.5 -20l160 -247h-96q-17 0 -29 -8t-12 -25t12 -25t29 -8h137v-71z" />
    <glyph glyph-name="Beta" unicode="&#x392;" horiz-adv-x="537" 
d="M146 636h103q59 0 87 -31t28 -79q0 -49 -30.5 -82t-87.5 -33h-100v225zM146 339h128q35 0 61.5 -10t45.5 -28t28.5 -42t9.5 -51q0 -60 -42 -96t-107 -36h-124v263zM58 48q0 -20 11 -34t36 -14h169q56 0 99.5 17t73 45.5t45 66t15.5 79.5q0 35 -12 66t-33 54t-49 38
t-60 18v2q44 14 71.5 55.5t27.5 100.5q0 30 -12.5 60.5t-36.5 55t-60 39.5t-83 15h-155q-25 0 -36 -14t-11 -34v-616z" />
    <glyph glyph-name="Epsilon" unicode="&#x395;" horiz-adv-x="444" 
d="M146 315h193q19 0 31 10t12 31t-12 31t-31 10h-193v233h212q19 0 31 10t12 31t-12 31t-31 10h-253q-25 0 -36 -14t-11 -34v-616q0 -20 11 -34t36 -14h253q19 0 31 10t12 31t-12 31t-31 10h-212v233z" />
    <glyph glyph-name="Zeta" unicode="&#x396;" horiz-adv-x="556" 
d="M41 87q-11 -16 -14 -26t-3 -21q0 -19 12 -29.5t40 -10.5h413q19 0 31 9.5t12 28.5t-12 28.5t-31 9.5h-359l367 549q14 20 18 31t4 25q0 12 -12 21.5t-34 9.5h-389q-19 0 -31 -9.5t-12 -28.5t12 -28.5t31 -9.5h323z" />
    <glyph glyph-name="Eta" unicode="&#x397;" horiz-adv-x="667" 
d="M146 319h375v-272q0 -26 12 -39.5t32 -13.5t32 13.5t12 39.5v618q0 26 -12 39.5t-32 13.5t-32 -13.5t-12 -39.5v-270h-375v270q0 26 -12 39.5t-32 13.5t-32 -13.5t-12 -39.5v-618q0 -26 12 -39.5t32 -13.5t32 13.5t12 39.5v272z" />
    <glyph glyph-name="Iota" unicode="&#x399;" horiz-adv-x="204" 
d="M146 671q0 22 -12 34.5t-32 12.5t-32 -12.5t-12 -34.5v-630q0 -22 12 -34.5t32 -12.5t32 12.5t12 34.5v630z" />
    <glyph glyph-name="Kappa" unicode="&#x39a;" horiz-adv-x="574" 
d="M146 339l332 -326q14 -13 23.5 -16t19.5 -3q18 0 30.5 11.5t12.5 27.5q0 10 -3.5 18t-14.5 18l-319 308l292 263q8 7 13 15t5 25t-10.5 27.5t-27.5 10.5q-14 0 -25 -8.5t-23 -19.5l-305 -279v260q0 22 -12 34.5t-32 12.5t-32 -12.5t-12 -34.5v-630q0 -22 12 -34.5
t32 -12.5t32 12.5t12 34.5v298z" />
    <glyph glyph-name="Mu" unicode="&#x39c;" horiz-adv-x="834" 
d="M200 604h2l170 -574q7 -22 18.5 -29t26.5 -7t26.5 7t18.5 29l170 574h2l83 -572q3 -23 16.5 -30.5t30.5 -7.5q20 0 30.5 12.5t10.5 32.5q0 8 -1.5 17.5l-3.5 22.5l-97 572q-6 38 -25.5 52.5t-43.5 14.5q-26 0 -41 -10.5t-23 -35.5l-152 -521h-2l-152 521q-8 25 -23 35.5
t-41 10.5q-24 0 -43.5 -14.5t-25.5 -52.5l-97 -572l-3.5 -22.5t-1.5 -17.5q0 -20 10.5 -32.5t30.5 -12.5q17 0 30.5 7.5t16.5 30.5z" />
    <glyph glyph-name="Phi" unicode="&#x3a6;" horiz-adv-x="762" 
d="M337 124q-54 6 -92.5 27.5t-63 53t-36.5 70t-12 80.5t12 81.5t36.5 70.5t63 52.5t92.5 27.5v-463zM425 587q54 -6 92.5 -27.5t63 -52.5t36.5 -70.5t12 -81.5q0 -43 -12 -82t-36.5 -70t-63 -52t-92.5 -27v463zM425 671q0 22 -12 34.5t-32 12.5t-32 -12.5t-12 -34.5v-9
q-73 -7 -128.5 -36t-93 -72t-56.5 -94.5t-19 -104.5q0 -52 19 -103.5t56.5 -94t93 -72t128.5 -37.5v-7q0 -22 12 -34t32 -12t32 12t12 34v7q73 8 128.5 37.5t93 72t56.5 94t19 103.5q0 53 -19 104.5t-56.5 94.5t-93 72t-128.5 36v9z" />
    <glyph glyph-name="Upsilondieresis" unicode="&#x3ab;" horiz-adv-x="500" 
d="M206 41q0 -22 12 -34.5t32 -12.5t32 12.5t12 34.5v293l191 311q14 22 14 37q0 17 -11.5 26.5t-28.5 9.5q-12 0 -23 -5.5t-21 -22.5l-165 -269l-165 269q-10 17 -21 22.5t-23 5.5q-17 0 -28.5 -9.5t-11.5 -26.5q0 -15 14 -37l191 -311v-293zM103 818q0 -23 15.5 -38.5
t38.5 -15.5t38.5 15.5t15.5 38.5t-15.5 38.5t-38.5 15.5t-38.5 -15.5t-15.5 -38.5zM289 818q0 -23 15.5 -38.5t38.5 -15.5t38.5 15.5t15.5 38.5t-15.5 38.5t-38.5 15.5t-38.5 -15.5t-15.5 -38.5z" />
    <glyph glyph-name="Psi" unicode="&#x3a8;" horiz-adv-x="702" 
d="M394 41v86q44 3 89 16.5t81.5 46t59.5 87t23 138.5v256q0 22 -12 34.5t-32 12.5t-32 -12.5t-12 -34.5v-290q0 -78 -45 -124.5t-120 -52.5v467q0 22 -12 34.5t-32 12.5t-32 -12.5t-12 -34.5v-467q-74 7 -118.5 53t-44.5 124v290q0 22 -12 34.5t-32 12.5t-32 -12.5
t-12 -34.5v-256q0 -84 23 -138.5t59 -87t80.5 -46t88.5 -16.5v-86q0 -22 12 -34.5t32 -12.5t32 12.5t12 34.5z" />
    <glyph glyph-name="Omega" unicode="&#x3a9;" horiz-adv-x="686" 
d="M625 76h-97q66 49 100.5 127t34.5 165q0 67 -21 130t-61.5 112t-100 78.5t-137.5 29.5t-137.5 -29.5t-100 -78.5t-61.5 -112t-21 -130q0 -88 35.5 -165.5t102.5 -126.5h-100q-19 0 -31 -9.5t-12 -28.5t12 -28.5t31 -9.5h228v97q-46 11 -79 38.5t-54 64.5t-31 81t-10 87
q0 50 12.5 99t40 89t71 64.5t104.5 24.5t104.5 -25t71 -64.5t40 -89t12.5 -98.5q0 -43 -10 -87t-31 -81.5t-54 -64.5t-80 -38v-97h229q19 0 31 9.5t12 28.5t-12 28.5t-31 9.5z" />
    <glyph glyph-name="alphatonos" unicode="&#x3ac;" horiz-adv-x="556" 
d="M415 266q0 -34 -7.5 -68.5t-25 -63t-45 -46.5t-68.5 -18q-40 0 -68 18t-45.5 46.5t-25 63t-7.5 68.5t7.5 68.5t25 63t45.5 46.5t68 18q41 0 68.5 -18t45 -46.5t25 -63t7.5 -68.5zM35 266q0 -53 15 -102t44.5 -87t71.5 -60.5t96 -22.5q26 0 48.5 6.5t40.5 17t31 23.5
t22 25h2v-24q0 -22 12 -35t32 -13t32 13t12 35v449q0 22 -12 34.5t-32 12.5t-32 -12.5t-12 -34.5v-26h-2q-38 73 -142 73q-54 0 -96 -22.5t-71.5 -60.5t-44.5 -87t-15 -102zM387 667q18 14 22 25.5t2 19.5q-4 11 -16.5 23t-31.5 7q-7 -2 -13.5 -6t-17.5 -12l-97 -77
q-18 -14 -22 -25.5t-2 -19.5q2 -6 6 -12t10 -11t14.5 -7.5t17.5 0.5q7 2 13.5 6t17.5 12z" />
    <glyph glyph-name="Nu" unicode="&#x39d;" horiz-adv-x="668" 
d="M146 557h2l360 -517q18 -26 30 -36t32 -10q40 0 40 52v625q0 22 -12 34.5t-32 12.5t-32 -12.5t-12 -34.5v-516h-2l-360 517q-18 26 -30 36t-32 10q-40 0 -40 -52v-625q0 -22 12 -34.5t32 -12.5t32 12.5t12 34.5v516z" />
    <glyph glyph-name="Omicron" unicode="&#x39f;" horiz-adv-x="686" 
d="M125 356q0 51 11.5 102t37.5 92t67.5 66.5t101.5 25.5t101.5 -25.5t67.5 -66.5t37.5 -92t11.5 -102t-11.5 -102t-37.5 -92t-67.5 -66.5t-101.5 -25.5t-101.5 25.5t-67.5 66.5t-37.5 92t-11.5 102zM31 356q0 -69 20 -134.5t59.5 -116t98 -81t134.5 -30.5t134.5 30.5t98 81
t59.5 116t20 134.5t-20 134.5t-59.5 116t-98 81t-134.5 30.5t-134.5 -30.5t-98 -81t-59.5 -116t-20 -134.5z" />
    <glyph glyph-name="Rho" unicode="&#x3a1;" horiz-adv-x="519" 
d="M146 266h136q49 0 90.5 17.5t72 47.5t48 70.5t17.5 86.5q0 47 -16 87.5t-46 71t-72.5 48t-96.5 17.5h-174q-25 0 -36 -14t-11 -34v-623q0 -22 12 -34.5t32 -12.5t32 12.5t12 34.5v225zM146 636h126q41 0 69.5 -13.5t46.5 -34.5t26 -47.5t8 -52.5q0 -30 -10.5 -57
t-30 -46.5t-46 -31t-59.5 -11.5h-130v294z" />
    <glyph glyph-name="approxequal" unicode="&#x2248;" horiz-adv-x="549" 
 />
    <glyph glyph-name="Tau" unicode="&#x3a4;" horiz-adv-x="444" 
d="M178 41q0 -22 12 -34.5t32 -12.5t32 12.5t12 34.5v589h133q19 0 31 10t12 31t-12 31t-31 10h-354q-19 0 -31 -10t-12 -31t12 -31t31 -10h133v-589z" />
    <glyph glyph-name="guillemotleft" unicode="&#xab;" horiz-adv-x="407" 
d="M196 268l99 -178q7 -12 15 -19t19 -7q14 0 27 8.5t13 26.5q0 12 -11 31l-83 138l83 138q11 19 11 31q0 18 -13 26.5t-27 8.5q-11 0 -19 -7t-15 -19zM38 268l99 -178q7 -12 15 -19t19 -7q14 0 27 8.5t13 26.5q0 12 -11 31l-83 138l83 138q11 19 11 31q0 18 -13 26.5
t-27 8.5q-11 0 -19 -7t-15 -19z" />
    <glyph glyph-name="guillemotright" unicode="&#xbb;" horiz-adv-x="407" 
d="M49 130q-11 -19 -11 -31q0 -18 13 -26.5t27 -8.5q11 0 19 7t15 19l99 178l-99 178q-7 12 -15 19t-19 7q-14 0 -27 -8.5t-13 -26.5q0 -12 11 -31l83 -138zM207 130q-11 -19 -11 -31q0 -18 13 -26.5t27 -8.5q11 0 19 7t15 19l99 178l-99 178q-7 12 -15 19t-19 7
q-14 0 -27 -8.5t-13 -26.5q0 -12 11 -31l83 -138z" />
    <glyph glyph-name="ellipsis" unicode="&#x2026;" horiz-adv-x="1000" 
d="M116 45q0 -21 15 -36t36 -15t36 15t15 36t-15 36t-36 15t-36 -15t-15 -36zM449 45q0 -21 15 -36t36 -15t36 15t15 36t-15 36t-36 15t-36 -15t-15 -36zM782 45q0 -21 15 -36t36 -15t36 15t15 36t-15 36t-36 15t-36 -15t-15 -36z" />
    <glyph glyph-name="nonbreakingspace" unicode="&#xa0;" horiz-adv-x="250" 
 />
    <glyph glyph-name="Upsilon" unicode="&#x3a5;" horiz-adv-x="500" 
d="M206 41q0 -22 12 -34.5t32 -12.5t32 12.5t12 34.5v293l191 311q14 22 14 37q0 17 -11.5 26.5t-28.5 9.5q-12 0 -23 -5.5t-21 -22.5l-165 -269l-165 269q-10 17 -21 22.5t-23 5.5q-17 0 -28.5 -9.5t-11.5 -26.5q0 -15 14 -37l191 -311v-293z" />
    <glyph glyph-name="Chi" unicode="&#x3a7;" horiz-adv-x="594" 
d="M297 313l204 -291q14 -19 23.5 -23.5t20.5 -4.5q15 0 27.5 10.5t12.5 26.5q0 11 -4.5 20t-9.5 16l-223 315l186 263q14 20 14 36q0 17 -11.5 27t-27.5 10q-11 0 -21.5 -5t-23.5 -23l-167 -244l-167 244q-13 18 -23.5 23t-21.5 5q-16 0 -27.5 -10t-11.5 -27q0 -16 14 -36
l186 -263l-223 -315q-5 -7 -9.5 -16t-4.5 -20q0 -16 12.5 -26.5t27.5 -10.5q11 0 20.5 4.5t23.5 23.5z" />
    <glyph glyph-name="Alphatonos" unicode="&#x386;" horiz-adv-x="612" 
d="M141 155h330l46 -128q5 -14 15 -23.5t28 -9.5q17 0 29.5 10t12.5 27q0 9 -5 23t-7 21l-221 589q-9 23 -23 38.5t-40 15.5t-40 -15.5t-23 -38.5l-221 -589q-2 -7 -7 -21t-5 -23q0 -17 12.5 -27t29.5 -10q18 0 28 9.5t15 23.5zM444 231h-276l137 385h2zM140 667
q17 14 21 25.5t2 19.5q-1 6 -5.5 12t-10.5 11t-14.5 7.5t-17.5 -0.5q-7 -2 -13 -6t-17 -12l-98 -77q-17 -14 -21.5 -25.5t-1.5 -19.5q1 -6 5.5 -12t10.5 -11t14.5 -7.5t17.5 0.5q7 2 13 6t17 12z" />
    <glyph glyph-name="Epsilontonos" unicode="&#x388;" horiz-adv-x="444" 
d="M146 315h193q19 0 31 10t12 31t-12 31t-31 10h-193v233h212q19 0 31 10t12 31t-12 31t-31 10h-253q-25 0 -36 -14t-11 -34v-616q0 -20 11 -34t36 -14h253q19 0 31 10t12 31t-12 31t-31 10h-212v233zM17 667q17 14 21.5 25.5t1.5 19.5q-1 6 -5.5 12t-10.5 11t-14.5 7.5
t-17.5 -0.5q-10 -3 -30 -18l-98 -77q-17 -14 -21 -25.5t-2 -19.5q1 -6 5.5 -12t10.5 -11t14.5 -7.5t17.5 0.5q7 2 13 6t17 12z" />
    <glyph glyph-name="oe" unicode="&#x153;" horiz-adv-x="907" 
d="M501 298q0 29 8.5 58t26.5 52.5t45.5 38.5t65.5 15t65.5 -15t45.5 -38.5t26.5 -52.5t8.5 -58h-292zM35 266q0 -53 15.5 -102t45 -87t72.5 -60.5t98 -22.5q62 0 111.5 29.5t81.5 74.5q27 -47 77.5 -75.5t125.5 -28.5q38 0 75.5 11t67 27.5t47.5 35.5t18 35
q-1 19 -10.5 29.5t-21.5 9.5q-13 0 -26.5 -11t-32 -23.5t-45.5 -23.5t-68 -12q-40 -1 -71 11t-52 34t-31.5 51.5t-10.5 63.5h331q29 0 39 12t10 35q0 48 -15.5 94.5t-45.5 83t-73.5 59t-99.5 22.5q-63 0 -112 -28.5t-76 -75.5q-32 47 -81.5 75.5t-111.5 28.5
q-55 0 -98 -22.5t-72.5 -60.5t-45 -87t-15.5 -102zM268 462q40 0 67.5 -18t45 -46.5t25 -63t7.5 -68.5t-7.5 -68.5t-25 -63t-45 -46.5t-67.5 -18t-67.5 18t-45 46.5t-25 63t-7.5 68.5t7.5 68.5t25 63t45 46.5t67.5 18z" />
    <glyph glyph-name="endash" unicode="&#x2013;" horiz-adv-x="500" 
d="M462 230q16 0 27 11t11 27t-11 27t-27 11h-424q-16 0 -27 -11t-11 -27t11 -27t27 -11h424z" />
    <glyph glyph-name="afii00208" unicode="&#x2015;" horiz-adv-x="1000" 
d="M0 306q-16 0 -27 -11t-11 -27t11 -27t27 -11h1000q16 0 27 11t11 27t-11 27t-27 11h-1000z" />
    <glyph glyph-name="quotedblleft" unicode="&#x201c;" horiz-adv-x="334" 
d="M172 571q-11 -22 -11 -37q0 -17 12 -27.5t28 -10.5q20 0 29.5 11.5t17.5 25.5l56 110q11 22 11 37q0 17 -12 27.5t-28 10.5q-20 0 -29.5 -11.5t-17.5 -25.5zM30 571q-11 -22 -11 -37q0 -17 12 -27.5t28 -10.5q20 0 29.5 11.5t17.5 25.5l56 110q11 22 11 37q0 17 -12 27.5
t-28 10.5q-20 0 -29.5 -11.5t-17.5 -25.5z" />
    <glyph glyph-name="quotedblright" unicode="&#x201d;" horiz-adv-x="334" 
d="M172 571q-11 -22 -11 -37q0 -17 12 -27.5t28 -10.5q20 0 29.5 11.5t17.5 25.5l56 110q11 22 11 37q0 17 -12 27.5t-28 10.5q-20 0 -29.5 -11.5t-17.5 -25.5zM30 571q-11 -22 -11 -37q0 -17 12 -27.5t28 -10.5q20 0 29.5 11.5t17.5 25.5l56 110q11 22 11 37q0 17 -12 27.5
t-28 10.5q-20 0 -29.5 -11.5t-17.5 -25.5z" />
    <glyph glyph-name="quoteleft" unicode="&#x2018;" horiz-adv-x="204" 
d="M36 571q-11 -22 -11 -37q0 -17 12 -27.5t28 -10.5q20 0 29.5 11.5t17.5 25.5l56 110q11 22 11 37q0 17 -12 27.5t-28 10.5q-20 0 -29.5 -11.5t-17.5 -25.5z" />
    <glyph glyph-name="quoteright" unicode="&#x2019;" horiz-adv-x="204" 
d="M36 571q-11 -22 -11 -37q0 -17 12 -27.5t28 -10.5q20 0 29.5 11.5t17.5 25.5l56 110q11 22 11 37q0 17 -12 27.5t-28 10.5q-20 0 -29.5 -11.5t-17.5 -25.5z" />
    <glyph glyph-name="divide" unicode="&#xf7;" horiz-adv-x="600" 
d="M510 212q19 0 31 10t12 31t-12 31t-31 10h-420q-19 0 -31 -10t-12 -31t12 -31t31 -10h420zM228 460q0 -30 21 -51t51 -21t51 21t21 51t-21 51t-51 21t-51 -21t-21 -51zM228 46q0 -30 21 -51t51 -21t51 21t21 51t-21 51t-51 21t-51 -21t-21 -51z" />
    <glyph glyph-name="Etatonos" unicode="&#x389;" horiz-adv-x="667" 
d="M146 319h375v-272q0 -26 12 -39.5t32 -13.5t32 13.5t12 39.5v618q0 26 -12 39.5t-32 13.5t-32 -13.5t-12 -39.5v-270h-375v270q0 26 -12 39.5t-32 13.5t-32 -13.5t-12 -39.5v-618q0 -26 12 -39.5t32 -13.5t32 13.5t12 39.5v272zM10 667q18 14 22 25.5t2 19.5
q-4 11 -16.5 23t-31.5 7q-7 -2 -13.5 -6t-17.5 -12l-97 -77q-18 -14 -22 -25.5t-2 -19.5q1 -6 5.5 -12t10.5 -11t14.5 -7.5t17.5 0.5q7 2 13.5 6t17.5 12z" />
    <glyph glyph-name="Iotatonos" unicode="&#x38a;" horiz-adv-x="204" 
d="M146 671q0 22 -12 34.5t-32 12.5t-32 -12.5t-12 -34.5v-630q0 -22 12 -34.5t32 -12.5t32 12.5t12 34.5v630zM10 667q18 14 22 25.5t2 19.5q-4 11 -17 23t-32 7q-6 -2 -12.5 -6t-17.5 -12l-97 -77q-18 -14 -22 -25.5t-2 -19.5q1 -6 5.5 -12t10.5 -11t14.5 -7.5t17.5 0.5
q7 2 13.5 6t17.5 12z" />
    <glyph glyph-name="Omicrontonos" unicode="&#x38c;" horiz-adv-x="686" 
d="M125 356q0 51 11.5 102t37.5 92t67.5 66.5t101.5 25.5t101.5 -25.5t67.5 -66.5t37.5 -92t11.5 -102t-11.5 -102t-37.5 -92t-67.5 -66.5t-101.5 -25.5t-101.5 25.5t-67.5 66.5t-37.5 92t-11.5 102zM31 356q0 -69 20 -134.5t59.5 -116t98 -81t134.5 -30.5t134.5 30.5t98 81
t59.5 116t20 134.5t-20 134.5t-59.5 116t-98 81t-134.5 30.5t-134.5 -30.5t-98 -81t-59.5 -116t-20 -134.5zM90 667q17 14 21 25.5t2 19.5q-1 6 -5.5 12t-10.5 11t-14.5 7.5t-17.5 -0.5q-7 -2 -13 -6t-17 -12l-98 -77q-17 -14 -21.5 -25.5t-1.5 -19.5q1 -6 5.5 -12t10.5 -11
t14.5 -7.5t17.5 0.5q7 2 13 6t17 12z" />
    <glyph glyph-name="Upsilontonos" unicode="&#x38e;" horiz-adv-x="500" 
d="M206 41q0 -22 12 -34.5t32 -12.5t32 12.5t12 34.5v293l191 311q14 22 14 37q0 17 -11.5 26.5t-28.5 9.5q-12 0 -23 -5.5t-21 -22.5l-165 -269l-165 269q-10 17 -21 22.5t-23 5.5q-17 0 -28.5 -9.5t-11.5 -26.5q0 -15 14 -37l191 -311v-293zM-40 667q17 14 21.5 25.5
t1.5 19.5q-2 6 -6 12t-10 11t-14.5 7.5t-17.5 -0.5q-7 -2 -13 -6t-17 -12l-98 -77q-17 -14 -21 -25.5t-2 -19.5q1 -6 5.5 -12t10.5 -11t14.5 -7.5t17.5 0.5q7 2 13 6t17 12z" />
    <glyph glyph-name="epsilontonos" unicode="&#x3ad;" horiz-adv-x="447" 
d="M416 116q-15 1 -28.5 -7t-35.5 -19q-18 -8 -42.5 -13.5t-50.5 -5.5q-21 0 -42.5 5t-39 15t-29 25t-12.5 35q-1 22 6 37t19 25.5t26.5 16t29.5 8.5q8 2 25 3.5t24 2.5t13.5 1.5t11.5 2.5q25 8 24 34q0 11 -6.5 18t-15.5 11q-5 2 -14 3l-18.5 2t-18.5 1.5t-15 1.5
q-12 2 -25.5 6t-24.5 11.5t-18 19t-8 29.5q-1 21 9.5 35.5t27.5 24t37 13.5t37 4q23 0 37.5 -4.5t26 -9.5l21 -9.5t22.5 -4.5q16 0 26 11.5t10 25.5q0 27 -37.5 47t-106.5 20q-39 0 -75 -9t-63.5 -28t-44.5 -47.5t-17 -67.5q0 -30 16 -58.5t53 -44.5q-46 -19 -64.5 -56
t-18.5 -75q0 -42 17.5 -72t46 -48.5t65 -27t74.5 -8.5q34 0 66.5 6.5t59.5 17.5q28 11 46 26t20 29q3 19 -5.5 29.5t-20.5 11.5zM343 667q18 14 22 25.5t1 19.5q-1 6 -5.5 12t-10.5 11t-14.5 7.5t-17.5 -0.5q-6 -2 -12.5 -6t-17.5 -12l-97 -77q-18 -14 -22 -25.5t-2 -19.5
q2 -6 6 -12t10 -11t14.5 -7.5t17.5 0.5q7 2 13 6t17 12z" />
    <glyph glyph-name="etatonos" unicode="&#x3ae;" 
d="M58 41q0 -22 12 -34.5t32 -12.5t32 12.5t12 34.5v290q0 35 11 60t28.5 40.5t39.5 23t44 7.5t44 -7.5t39.5 -23t28.5 -40.5t11 -60v-290q0 -22 12 -34.5t32 -12.5t32 12.5t12 34.5v295q0 56 -17.5 94.5t-44.5 62.5t-59.5 34.5t-63.5 10.5q-40 0 -79 -16t-68 -54l-2 2v21
q0 22 -12 34.5t-32 12.5t-32 -12.5t-12 -34.5v-450zM343 667q18 14 22 25.5t2 19.5q-1 6 -5.5 12t-10.5 11t-14.5 7.5t-17.5 -0.5q-7 -2 -13.5 -6t-17.5 -12l-97 -77q-18 -14 -22 -25.5t-2 -19.5q4 -11 17 -23t31 -7q7 2 13.5 6t17.5 12z" />
    <glyph glyph-name="iotatonos" unicode="&#x3af;" horiz-adv-x="204" 
d="M146 491q0 22 -12 34.5t-32 12.5t-32 -12.5t-12 -34.5v-450q0 -22 12 -34.5t32 -12.5t32 12.5t12 34.5v450zM204 667q17 14 21.5 25.5t1.5 19.5q-1 6 -5.5 12t-10.5 11t-14.5 7.5t-17.5 -0.5q-7 -2 -13 -6t-17 -12l-98 -77q-17 -14 -21 -25.5t-2 -19.5q2 -6 6 -12t10 -11
t14.5 -7.5t17.5 0.5q7 2 13 6t17 12z" />
    <glyph glyph-name="omicrontonos" unicode="&#x3cc;" 
d="M35 266q0 -53 15.5 -102t45.5 -87t73.5 -60.5t99.5 -22.5t99.5 22.5t73.5 60.5t45.5 87t15.5 102t-15.5 102t-45.5 87t-73.5 60.5t-99.5 22.5t-99.5 -22.5t-73.5 -60.5t-45.5 -87t-15.5 -102zM123 266q0 34 7.5 68.5t25 63t45.5 46.5t68 18q41 0 68.5 -18t45 -46.5
t25 -63t7.5 -68.5t-7.5 -68.5t-25 -63t-45 -46.5t-68.5 -18q-40 0 -68 18t-45.5 46.5t-25 63t-7.5 68.5zM373 667q18 14 22 25.5t2 19.5q-1 6 -5.5 12t-10.5 11t-14.5 7.5t-17.5 -0.5q-7 -2 -13.5 -6t-17.5 -12l-97 -77q-18 -14 -22 -25.5t-2 -19.5q4 -11 17 -23t31 -7
q7 2 13.5 6t17.5 12z" />
    <glyph glyph-name="Omegatonos" unicode="&#x38f;" horiz-adv-x="686" 
d="M625 76h-97q66 49 100.5 127t34.5 165q0 67 -21 130t-61.5 112t-100 78.5t-137.5 29.5t-137.5 -29.5t-100 -78.5t-61.5 -112t-21 -130q0 -88 35.5 -165.5t102.5 -126.5h-100q-19 0 -31 -9.5t-12 -28.5t12 -28.5t31 -9.5h228v97q-46 11 -79 38.5t-54 64.5t-31 81t-10 87
q0 49 12.5 98.5t40 89t71 64.5t104.5 25t104.5 -25t71 -64.5t40 -89t12.5 -98.5q0 -43 -10 -87t-31 -81.5t-54 -64.5t-80 -38v-97h229q19 0 31 9.5t12 28.5t-12 28.5t-31 9.5zM73 667q17 14 21 25.5t2 19.5q-1 6 -5.5 12t-10.5 11t-14.5 7.5t-17.5 -0.5q-7 -2 -13 -6
t-17 -12l-98 -77q-17 -14 -21 -25.5t-2 -19.5q1 -6 5.5 -12t10.5 -11t14.5 -7.5t17.5 0.5q7 2 13 6t17 12z" />
    <glyph glyph-name="upsilontonos" unicode="&#x3cd;" 
d="M58 206q0 -58 18 -98.5t47.5 -66t67.5 -36.5t78 -11t78 11t67.5 36.5t47.5 66t18 98.5v285q0 22 -12 34.5t-32 12.5t-32 -12.5t-12 -34.5v-282q0 -139 -123 -139t-123 139v282q0 22 -12 34.5t-32 12.5t-32 -12.5t-12 -34.5v-285zM355 667q17 14 21 25.5t2 19.5
q-1 6 -5.5 12t-10.5 11t-14.5 7.5t-17.5 -0.5q-7 -2 -13 -6t-17 -12l-98 -77q-17 -14 -21.5 -25.5t-1.5 -19.5q2 -6 6 -12t10 -11t14.5 -7.5t17.5 0.5q7 2 13 6t17 12z" />
    <glyph glyph-name="alpha" unicode="&#x3b1;" horiz-adv-x="556" 
d="M415 266q0 -34 -7.5 -68.5t-25 -63t-45 -46.5t-68.5 -18q-40 0 -68 18t-45.5 46.5t-25 63t-7.5 68.5t7.5 68.5t25 63t45.5 46.5t68 18q41 0 68.5 -18t45 -46.5t25 -63t7.5 -68.5zM35 266q0 -53 15 -102t44.5 -87t71.5 -60.5t96 -22.5q26 0 48.5 6.5t40.5 17t31 23.5
t22 25h2v-24q0 -22 12 -35t32 -13t32 13t12 35v449q0 22 -12 34.5t-32 12.5t-32 -12.5t-12 -34.5v-26h-2q-38 73 -142 73q-54 0 -96 -22.5t-71.5 -60.5t-44.5 -87t-15 -102z" />
    <glyph glyph-name="beta" unicode="&#x3b2;" horiz-adv-x="547" 
d="M508 236q0 72 -29 126.5t-80 84.5q24 26 36 58t12 66q0 37 -12.5 73t-37.5 64.5t-62.5 46t-87.5 17.5q-43 0 -78 -16t-60.5 -44.5t-39.5 -69t-14 -89.5v-55v-457v-4q0 -17 8.5 -26.5t19.5 -13.5q8 -3 17 -3t16 3q11 4 19.5 13.5t8.5 26.5v4v26h2q19 -36 48.5 -54.5
t83.5 -18.5q53 0 95.5 18t72.5 50t46 76.5t16 97.5zM248 384q30 0 61 -7t55.5 -23.5t40 -45t15.5 -72.5q0 -34 -9 -64t-27.5 -52.5t-47 -36t-66.5 -13.5q-40 0 -65 15t-39 39.5t-18.5 56t-4.5 65.5v300q0 45 9.5 74t24.5 46t34.5 23.5t38.5 6.5q51 0 80 -34t29 -82l-1 -1
q0 -33 -8.5 -54t-23.5 -33.5t-35 -18.5t-43 -8q-26 -3 -35.5 -13t-9.5 -31q0 -17 10 -27t36 -10h-1z" />
    <glyph glyph-name="psi" unicode="&#x3c8;" horiz-adv-x="612" 
d="M349 -169v163q38 2 75.5 14t67 37.5t47.5 65t18 95.5v285q0 22 -12 34.5t-32 12.5t-32 -12.5t-12 -34.5v-282q0 -65 -32 -100t-88 -39v421q0 22 -12 34.5t-32 12.5t-32 -12.5t-12 -34.5v-420q-55 4 -86.5 39t-31.5 99v282q0 22 -12 34.5t-32 12.5t-32 -12.5t-12 -34.5
v-285q0 -56 18 -95.5t47 -64.5t66 -37.5t75 -14.5v-163q0 -22 12 -34.5t32 -12.5t32 12.5t12 34.5z" />
    <glyph glyph-name="delta" unicode="&#x3b4;" 
d="M176 518q-34 -15 -60.5 -41.5t-44.5 -59.5t-27 -71.5t-9 -79.5q0 -53 15.5 -102t45.5 -87t73.5 -60.5t99.5 -22.5t99.5 22.5t73.5 60.5t45.5 87t15.5 102q0 78 -23 127.5t-57.5 81.5t-75 50l-75 32t-57.5 28.5t-23 39.5q0 34 27.5 50.5t65.5 16.5q32 0 52 -8.5t34 -18.5
l25.5 -18.5t25.5 -8.5q20 0 30 11t10 25q0 21 -17.5 38t-43.5 29.5t-57.5 19.5t-58.5 7q-33 0 -65.5 -9.5t-58 -28.5t-41.5 -47t-16 -65q0 -36 20.5 -59.5t51.5 -40.5zM269 462q39 0 66.5 -18t45.5 -46.5t26 -63.5t8 -68q0 -34 -7.5 -68.5t-25 -63t-45 -46.5t-68.5 -18
q-40 0 -68 18t-45.5 46.5t-25 63t-7.5 68.5t7.5 68.5t25 63t45.5 46.5t68 18z" />
    <glyph glyph-name="epsilon" unicode="&#x3b5;" horiz-adv-x="447" 
d="M416 116q-15 1 -28.5 -7t-35.5 -19q-18 -8 -42.5 -13.5t-50.5 -5.5q-21 0 -42.5 5t-39 15t-29 25t-12.5 35q-1 22 6 37t19 25.5t26.5 16t29.5 8.5q8 2 25 3.5t24 2.5t13.5 1.5t11.5 2.5q25 8 24 34q0 11 -6.5 18t-15.5 11q-5 2 -14 3l-18.5 2t-18.5 1.5t-15 1.5
q-12 2 -25.5 6t-24.5 11.5t-18 19t-8 29.5q-1 21 9.5 35.5t27.5 24t37 13.5t37 4q23 0 37.5 -4.5t26 -9.5l21 -9.5t22.5 -4.5q16 0 26 11.5t10 25.5q0 27 -37.5 47t-106.5 20q-39 0 -75 -9t-63.5 -28t-44.5 -47.5t-17 -67.5q0 -30 16 -58.5t53 -44.5q-46 -19 -64.5 -56
t-18.5 -75q0 -42 17.5 -72t46 -48.5t65 -27t74.5 -8.5q34 0 66.5 6.5t59.5 17.5q28 11 46 26t20 29q3 19 -5.5 29.5t-20.5 11.5z" />
    <glyph glyph-name="phi" unicode="&#x3c6;" horiz-adv-x="644" 
d="M609 266q0 53 -17 102t-48.5 87t-77 60.5t-101.5 22.5h-46q-20 0 -31.5 -12.5t-11.5 -34.5v-421q-40 1 -68.5 19t-47.5 46.5t-28 63t-9 67.5q0 45 15.5 91.5t51.5 74.5q16 11 28 17.5t20 17.5q10 11 6.5 25.5t-16.5 23.5q-18 13 -41 5t-54 -34q-47 -39 -72.5 -97
t-25.5 -124q0 -52 17 -101t48 -86.5t76 -60.5t100 -24v-163q0 -22 12 -34.5t32 -12.5t32 12.5t12 34.5v164l1 -1q56 0 101.5 22.5t77 60.5t48.5 87t17 102zM521 266q0 -34 -9 -68.5t-28.5 -63t-48.5 -46.5t-70 -18h-1v393l1 -1q41 0 70 -18t48.5 -46.5t28.5 -63t9 -68.5z
" />
    <glyph glyph-name="gamma" unicode="&#x3b3;" horiz-adv-x="426" 
d="M255 19l157 442q5 12 7 20t2 16q0 20 -12 30.5t-28 10.5q-22 0 -31.5 -9.5t-14.5 -24.5l-121 -368h-2l-121 368q-5 15 -14.5 24.5t-31.5 9.5q-16 0 -28 -10.5t-12 -30.5q0 -8 2 -16t7 -20l153 -428v-202q0 -22 12 -34.5t32 -12.5t32 12.5t12 34.5v188z" />
    <glyph glyph-name="eta" unicode="&#x3b7;" 
d="M58 41q0 -22 12 -34.5t32 -12.5t32 12.5t12 34.5v290q0 35 11 60t28.5 40.5t39.5 23t44 7.5t44 -7.5t39.5 -23t28.5 -40.5t11 -60v-290q0 -22 12 -34.5t32 -12.5t32 12.5t12 34.5v295q0 56 -17.5 94.5t-44.5 62.5t-59.5 34.5t-63.5 10.5q-40 0 -79 -16t-68 -54l-2 2v21
q0 22 -12 34.5t-32 12.5t-32 -12.5t-12 -34.5v-450z" />
    <glyph glyph-name="iota" unicode="&#x3b9;" horiz-adv-x="204" 
d="M146 491q0 22 -12 34.5t-32 12.5t-32 -12.5t-12 -34.5v-450q0 -22 12 -34.5t32 -12.5t32 12.5t12 34.5v450z" />
    <glyph glyph-name="xi" unicode="&#x3be;" horiz-adv-x="423" 
d="M125 241q0 -51 18 -84t49 -51.5t71 -26.5t85 -10q31 -1 50 -22.5t19 -58.5v-104q0 -22 -12 -34.5t-32 -12.5t-32 12.5t-12 34.5v106q-59 1 -112 15.5t-93.5 44.5t-64.5 77.5t-24 113.5q0 24 6.5 53t20.5 57t35.5 52t51.5 38q-46 20 -67 60.5t-21 82.5q0 32 11 65t36 59
t64.5 42.5t97.5 16.5q69 0 109 -16.5t40 -37.5q0 -15 -15 -25t-32 -10q-13 0 -23.5 3t-22.5 7q-10 3 -23 5.5t-33 2.5q-33 0 -58 -10q-32 -12 -48.5 -40t-17 -58.5t16.5 -57.5t53 -38q14 -4 29.5 -7l32.5 -6q7 -1 18 -1.5t22.5 -1.5l22 -2t16.5 -3q11 -4 18.5 -10.5
t8.5 -17.5q1 -14 -7 -21t-22 -11q-12 -4 -30 -4q-35 0 -71 -5.5t-64.5 -23t-46.5 -50t-18 -87.5z" />
    <glyph glyph-name="kappa" unicode="&#x3ba;" horiz-adv-x="463" 
d="M58 41q0 -22 12 -34.5t32 -12.5t32 12.5t12 34.5v212l222 -232q16 -16 25.5 -21.5t25.5 -5.5q14 0 25.5 10t11.5 25q0 13 -4 22.5t-17 22.5l-232 229l200 158q13 10 17.5 19t4.5 19q0 17 -10 28t-27 11q-11 0 -23.5 -8t-26.5 -19l-192 -161v141q0 22 -12 34.5t-32 12.5
t-32 -12.5t-12 -34.5v-450z" />
    <glyph glyph-name="lambda" unicode="&#x3bb;" horiz-adv-x="444" 
d="M179 519l-56 161q-8 23 -10.5 32t-2.5 17q0 17 12.5 27t27.5 10q17 0 27.5 -9.5t15.5 -23.5l222 -647q8 -23 10 -32t2 -17q0 -17 -12.5 -27t-27.5 -10q-17 0 -27 9.5t-15 23.5l-120 365h-2l-122 -365q-5 -14 -16 -23.5t-28 -9.5q-15 0 -27.5 10t-12.5 27q0 8 2 17t10 32z
" />
    <glyph glyph-name="mu" unicode="&#xb5;" 
d="M58 -169q0 -22 12 -34.5t32 -12.5t32 12.5t12 34.5v209q24 -26 54.5 -36t68.5 -10q36 0 68 6.5t58 22.5q8 -29 41 -29q20 0 32 12.5t12 34.5v450q0 22 -12 34.5t-32 12.5t-32 -12.5t-12 -34.5v-282q0 -74 -27.5 -106.5t-95.5 -32.5t-95.5 32.5t-27.5 106.5v282
q0 22 -12 34.5t-32 12.5t-32 -12.5t-12 -34.5v-660z" />
    <glyph glyph-name="mu" unicode="&#x3bc;" 
d="M58 -169q0 -22 12 -34.5t32 -12.5t32 12.5t12 34.5v209q24 -26 54.5 -36t68.5 -10q36 0 68 6.5t58 22.5q8 -29 41 -29q20 0 32 12.5t12 34.5v450q0 22 -12 34.5t-32 12.5t-32 -12.5t-12 -34.5v-282q0 -74 -27.5 -106.5t-95.5 -32.5t-95.5 32.5t-27.5 106.5v282
q0 22 -12 34.5t-32 12.5t-32 -12.5t-12 -34.5v-660z" />
    <glyph glyph-name="nu" unicode="&#x3bd;" horiz-adv-x="426" 
d="M167 32q7 -20 16 -29t30 -9t30 9t16 29l153 429q5 12 7 20t2 16q0 20 -12 30.5t-28 10.5q-22 0 -31.5 -9.5t-14.5 -24.5l-121 -368h-2l-121 368q-5 15 -14.5 24.5t-31.5 9.5q-16 0 -28 -10.5t-12 -30.5q0 -8 2 -16t7 -20z" />
    <glyph glyph-name="omicron" unicode="&#x3bf;" 
d="M35 266q0 -53 15.5 -102t45.5 -87t73.5 -60.5t99.5 -22.5t99.5 22.5t73.5 60.5t45.5 87t15.5 102t-15.5 102t-45.5 87t-73.5 60.5t-99.5 22.5t-99.5 -22.5t-73.5 -60.5t-45.5 -87t-15.5 -102zM123 266q0 34 7.5 68.5t25 63t45.5 46.5t68 18q41 0 68.5 -18t45 -46.5
t25 -63t7.5 -68.5t-7.5 -68.5t-25 -63t-45 -46.5t-68.5 -18q-40 0 -68 18t-45.5 46.5t-25 63t-7.5 68.5z" />
    <glyph glyph-name="pi" unicode="&#x3c0;" 
d="M388 41v415h-243v-415q0 -22 -12 -34.5t-32 -12.5t-32 12.5t-12 34.5v453q2 38 44 38h330q44 0 44 -38q0 -11 0.5 -15t0.5 -13v-31v-68v-125v-201q0 -22 -12 -34.5t-32 -12.5t-32 12.5t-12 34.5z" />
    <glyph glyph-name="omegatonos" unicode="&#x3ce;" horiz-adv-x="749" 
d="M376 84q-25 -46 -56 -68t-84 -22q-54 0 -92.5 23t-63 61t-35.5 87t-11 101q0 33 6.5 65.5t18.5 63t30 57t41 45.5q31 26 54 34t41 -5q13 -9 16.5 -23.5t-6.5 -25.5q-8 -11 -20 -17.5t-28 -17.5q-18 -14 -30.5 -34.5t-21 -44.5t-12 -49t-3.5 -48q0 -34 6 -68.5t20.5 -63
t38 -46.5t57.5 -18q48 0 68.5 33t20.5 90v213q0 22 12 34.5t32 12.5t32 -12.5t12 -34.5v-213q0 -57 20 -90t68 -33q35 0 58.5 18t38 46.5t20.5 63t6 68.5q0 23 -3.5 48t-12 49t-21 44.5t-30.5 34.5q-16 11 -28 17.5t-20 17.5q-10 11 -6.5 25.5t16.5 23.5q18 13 41 5t54 -34
q23 -19 41 -45.5t30 -57t18.5 -63t6.5 -65.5q0 -52 -12.5 -101t-38 -87t-64 -61t-90.5 -23q-27 0 -47 6t-36 17.5t-28.5 28t-23.5 38.5zM467 667q18 14 22 25.5t2 19.5q-1 6 -5.5 12t-10.5 11t-14.5 7.5t-17.5 -0.5q-7 -2 -13.5 -6t-17.5 -12l-97 -77q-18 -14 -22 -25.5
t-2 -19.5q2 -6 6 -12t10 -11t14.5 -7.5t17.5 0.5q7 2 13.5 6t17.5 12z" />
    <glyph glyph-name="rho" unicode="&#x3c1;" horiz-adv-x="556" 
d="M130 266q0 34 7.5 68.5t25 63t45.5 46.5t68 18q41 0 68.5 -18t45 -46.5t25 -63t7.5 -68.5t-8 -68.5t-25 -63t-45 -46.5t-69 -18q-40 0 -68 18t-45.5 46.5t-25 63t-7.5 68.5h1zM50 -169q0 -22 12.5 -34.5t32.5 -12.5t32 12.5t12 34.5v235h2q9 -12 22 -25t31 -23.5
t40.5 -17t48.5 -6.5q54 0 96 22.5t71.5 60.5t44.5 87t15 102t-15.5 102t-44.5 87t-71.5 60.5t-96.5 22.5q-63 0 -107 -24.5t-71.5 -63.5t-40.5 -87.5t-13 -95.5v-436z" />
    <glyph glyph-name="sigma" unicode="&#x3c3;" horiz-adv-x="558" 
d="M123 263q0 34 7.5 68.5t25 62t45.5 45t68 17.5q41 0 68.5 -17.5t45 -45t25 -62t7.5 -68.5t-7.5 -68t-25 -62t-45 -45.5t-68.5 -17.5q-40 0 -68 17.5t-45.5 45.5t-25 62t-7.5 68zM271 532h-2q-56 0 -99.5 -22t-73.5 -59.5t-45.5 -86t-15.5 -101.5t15.5 -101.5t45.5 -86
t73.5 -59.5t99.5 -22t99.5 22t73.5 59.5t45.5 86t15.5 101.5q0 55 -16.5 105t-48.5 88h60q44 0 44 38t-44 38h-227z" />
    <glyph glyph-name="tau" unicode="&#x3c4;" horiz-adv-x="335" 
d="M288 532h-240q-44 0 -44 -38t44 -38h76v-415q0 -22 12 -34.5t32 -12.5t32 12.5t12 34.5v415h76q44 0 44 38t-44 38z" />
    <glyph glyph-name="theta" unicode="&#x3b8;" 
d="M35 377q0 -73 12.5 -143t40.5 -124t72.5 -87t108.5 -33q67 0 112 33t72 87t38.5 124t11.5 143q0 74 -12 143.5t-39.5 123.5t-72.5 86.5t-110 32.5t-109.5 -32.5t-72.5 -86.5t-40 -123.5t-12 -143.5zM418 356q-1 -44 -7 -94.5t-22 -93.5t-44.5 -71.5t-75.5 -28.5
q-46 0 -74.5 27.5t-45 70t-22.5 93.5t-7 97h298zM122 432q3 42 10 87t23 81.5t43.5 60.5t70.5 24t70.5 -24t43.5 -61t23 -82t10 -86h-294z" />
    <glyph glyph-name="omega" unicode="&#x3c9;" horiz-adv-x="749" 
d="M376 84q-25 -46 -56 -68t-84 -22q-54 0 -92.5 23t-63 61t-35.5 87t-11 101q0 33 6.5 65.5t18.5 63t30 57t41 45.5q31 26 54 34t41 -5q13 -9 16.5 -23.5t-6.5 -25.5q-8 -11 -20 -17.5t-28 -17.5q-18 -14 -30.5 -34.5t-21 -44.5t-12 -49t-3.5 -48q0 -34 6 -68.5t20.5 -63
t38 -46.5t57.5 -18q48 0 68.5 33t20.5 90v213q0 22 12 34.5t32 12.5t32 -12.5t12 -34.5v-213q0 -57 20 -90t68 -33q35 0 58.5 18t38 46.5t20.5 63t6 68.5q0 23 -3.5 48t-12 49t-21 44.5t-30.5 34.5q-16 11 -28 17.5t-20 17.5q-10 11 -6.5 25.5t16.5 23.5q18 13 41 5t54 -34
q23 -19 41 -45.5t30 -57t18.5 -63t6.5 -65.5q0 -52 -12.5 -101t-38 -87t-64 -61t-90.5 -23q-27 0 -47 6t-36 17.5t-28.5 28t-23.5 38.5z" />
    <glyph glyph-name="sigma1" unicode="&#x3c2;" horiz-adv-x="444" 
d="M46 388q0 -37 21 -62.5t52.5 -44t68.5 -33t68.5 -29.5t52.5 -33t21 -44q0 -27 -27.5 -49.5t-75.5 -22.5q-36 0 -61 10t-44 22.5l-33 22.5t-29 10q-14 0 -25 -11t-11 -29q0 -17 15.5 -35t42.5 -32.5t63.5 -24t78.5 -9.5q37 0 72 10t62 30.5t43.5 51t16.5 72.5q0 39 -21 65
t-52.5 44.5t-68.5 32t-68.5 27t-52.5 29.5t-21 39q0 34 27.5 50.5t65.5 16.5q32 0 52 -8.5t34 -18.5l25.5 -18.5t25.5 -8.5q20 0 30 11t10 25q0 21 -17.5 38t-43.5 29.5t-57.5 19.5t-58.5 7q-33 0 -65.5 -9.5t-58 -28.5t-41.5 -47t-16 -65z" />
    <glyph glyph-name="chi" unicode="&#x3c7;" horiz-adv-x="464" 
d="M24 76q-11 -14 -14.5 -24t-3.5 -18q0 -17 11.5 -28.5t28.5 -11.5q25 0 39 20l147 204l147 -204q14 -20 39 -20q17 0 28.5 11.5t11.5 28.5q0 8 -3.5 18t-14.5 24l-157 206l138 181q15 19 15 35q0 17 -10.5 28.5t-26.5 11.5q-15 0 -23 -6t-15 -14l-129 -172l-129 172
q-7 8 -15 14t-23 6q-16 0 -26.5 -11.5t-10.5 -28.5q0 -16 15 -35l138 -181z" />
    <glyph glyph-name="upsilon" unicode="&#x3c5;" 
d="M58 206q0 -58 18 -98.5t47.5 -66t67.5 -36.5t78 -11t78 11t67.5 36.5t47.5 66t18 98.5v285q0 22 -12 34.5t-32 12.5t-32 -12.5t-12 -34.5v-282q0 -139 -123 -139t-123 139v282q0 22 -12 34.5t-32 12.5t-32 -12.5t-12 -34.5v-285z" />
    <glyph glyph-name="zeta" unicode="&#x3b6;" horiz-adv-x="444" 
d="M141 76l-3 2l257 378q10 14 14 24t4 21t-8.5 21t-34.5 10h-296q-44 0 -44 -38t44 -38h218l-254 -380q-10 -14 -14 -24t-4 -21t8.5 -21t34.5 -10h317q44 0 44 38t-44 38h-239z" />
    <glyph glyph-name="iotadieresis" unicode="&#x3ca;" horiz-adv-x="204" 
d="M146 491q0 22 -12 34.5t-32 12.5t-32 -12.5t-12 -34.5v-450q0 -22 12 -34.5t32 -12.5t32 12.5t12 34.5v450zM-45 658q0 -23 15.5 -38.5t38.5 -15.5t38.5 15.5t15.5 38.5t-15.5 38.5t-38.5 15.5t-38.5 -15.5t-15.5 -38.5zM141 658q0 -23 15.5 -38.5t38.5 -15.5t38.5 15.5
t15.5 38.5t-15.5 38.5t-38.5 15.5t-38.5 -15.5t-15.5 -38.5z" />
    <glyph glyph-name="upsilondieresis" unicode="&#x3cb;" 
d="M58 206q0 -58 18 -98.5t47.5 -66t67.5 -36.5t78 -11t78 11t67.5 36.5t47.5 66t18 98.5v285q0 22 -12 34.5t-32 12.5t-32 -12.5t-12 -34.5v-282q0 -139 -123 -139t-123 139v282q0 22 -12 34.5t-32 12.5t-32 -12.5t-12 -34.5v-285zM120 658q0 -23 15.5 -38.5t38.5 -15.5
t38.5 15.5t15.5 38.5t-15.5 38.5t-38.5 15.5t-38.5 -15.5t-15.5 -38.5zM306 658q0 -23 15.5 -38.5t38.5 -15.5t38.5 15.5t15.5 38.5t-15.5 38.5t-38.5 15.5t-38.5 -15.5t-15.5 -38.5z" />
    <glyph glyph-name="iotadieresistonos" unicode="&#x390;" horiz-adv-x="204" 
d="M146 491q0 22 -12 34.5t-32 12.5t-32 -12.5t-12 -34.5v-450q0 -22 12 -34.5t32 -12.5t32 12.5t12 34.5v450zM-85 658q0 -23 15.5 -38.5t38.5 -15.5t38.5 15.5t15.5 38.5t-15.5 38.5t-38.5 15.5t-38.5 -15.5t-15.5 -38.5zM208 658q0 -23 15.5 -38.5t38.5 -15.5t38.5 15.5
t15.5 38.5t-15.5 38.5t-38.5 15.5t-38.5 -15.5t-15.5 -38.5zM192 667q17 14 21 25.5t2 19.5q-1 6 -5.5 12t-10.5 11t-14.5 7.5t-17.5 -0.5q-7 -2 -13 -6t-17 -12l-98 -77q-17 -14 -21.5 -25.5t-1.5 -19.5q2 -6 6 -12t10 -11t14.5 -7.5t17.5 0.5q7 2 13 6t17 12z" />
    <glyph glyph-name="upsilondieresistonos" unicode="&#x3b0;" 
d="M58 206q0 -58 18 -98.5t47.5 -66t67.5 -36.5t78 -11t78 11t67.5 36.5t47.5 66t18 98.5v285q0 22 -12 34.5t-32 12.5t-32 -12.5t-12 -34.5v-282q0 -139 -123 -139t-123 139v282q0 22 -12 34.5t-32 12.5t-32 -12.5t-12 -34.5v-285zM68 658q0 -23 15.5 -38.5t38.5 -15.5
t38.5 15.5t15.5 38.5t-15.5 38.5t-38.5 15.5t-38.5 -15.5t-15.5 -38.5zM361 658q0 -23 15.5 -38.5t38.5 -15.5t38.5 15.5t15.5 38.5t-15.5 38.5t-38.5 15.5t-38.5 -15.5t-15.5 -38.5zM344 667q18 14 22 25.5t2 19.5q-1 6 -5.5 12t-10.5 11t-14.5 7.5t-17.5 -0.5
q-7 -2 -13 -6t-17 -12l-98 -77q-18 -14 -22 -25.5t-1 -19.5q2 -6 6 -12t10 -11t14.5 -7.5t17.5 0.5q6 2 12.5 6t17.5 12z" />
    <glyph glyph-name="FL0019" unicode="&#xe003;" horiz-adv-x="278" 
 />
    <glyph glyph-name="FL0030" unicode="&#xe004;" horiz-adv-x="278" 
 />
    <glyph glyph-name="FL0031" unicode="&#xe005;" horiz-adv-x="278" 
 />
    <glyph glyph-name="FL0018" unicode="&#xe002;" horiz-adv-x="278" 
 />
    <glyph glyph-name="FL0127" unicode="&#xe006;" horiz-adv-x="278" 
 />
    <glyph glyph-name="NUL" unicode="&#xe007;" horiz-adv-x="250" 
 />
    <glyph glyph-name="FL0016" unicode="&#xe000;" horiz-adv-x="278" 
 />
    </font>
</defs>
</svg>
