<?xml version="1.0" standalone="no"?>
<!DOCTYPE svg PUBLIC "-//W3C//DTD SVG 1.1//EN" "http://www.w3.org/Graphics/SVG/1.1/DTD/svg11.dtd" >
<svg xmlns="http://www.w3.org/2000/svg" width="100%" height="100%">
<metadata>
Created by FontXChange 20100429 at Sun Aug  3 15:07:27 2014
 By Oto Peradze
Copyright \(C\) 1993-1999 PARACHUTE TYPE FOUNDRY. All rights reserved. Designed by Panos Vassiliou.
</metadata>
<defs>
<font id="PFFuturaRounded-HeavyOblique" horiz-adv-x="556" >
  <font-face 
    font-family="PFFuturaRounded"
    font-weight="900"
    font-style="oblique"
    font-stretch="normal"
    units-per-em="1000"
    panose-1="2 0 9 3 9 0 0 9 0 4"
    ascent="786"
    descent="-214"
    x-height="532"
    cap-height="718"
    bbox="-132.125 -218 1112.39 939"
    underline-thickness="50"
    underline-position="-100"
    slope="-11"
    unicode-range="U+0020-E00A"
  />
<missing-glyph horiz-adv-x="268" 
 />
    <glyph glyph-name=".notdef" horiz-adv-x="268" 
 />
    <glyph glyph-name=".null" horiz-adv-x="0" 
 />
    <glyph glyph-name="FL0017" horiz-adv-x="268" 
 />
    <glyph glyph-name="space" unicode=" " horiz-adv-x="268" 
 />
    <glyph glyph-name="exclam" unicode="!" horiz-adv-x="334" 
d="M143 271q-6 -32 11.5 -50t48.5 -18q30 0 54.5 18.5t29.5 49.5l68 385q5 31 -12.5 49.5t-47.5 18.5q-31 0 -55 -18t-29 -50zM165 -12q32 0 59 23t33 55q5 32 -14 55t-51 23q-16 0 -31.5 -6t-27.5 -16.5t-20.5 -25t-11.5 -30.5q-6 -32 13 -55t51 -23z" />
    <glyph glyph-name="quotedbl" unicode="&#x22;" horiz-adv-x="444" 
d="M340 494q-5 -27 8.5 -43.5t41.5 -16.5t46.5 16.5t23.5 43.5l30 170q5 27 -8 43.5t-41 16.5t-47 -16.5t-24 -43.5zM158 494q-5 -27 8.5 -43.5t41.5 -16.5t46.5 16.5t23.5 43.5l30 170q5 27 -8 43.5t-41 16.5t-47 -16.5t-24 -43.5z" />
    <glyph glyph-name="numbersign" unicode="#" horiz-adv-x="600" 
d="M201 299h-100q-25 0 -39.5 -15t-17.5 -33t6 -33t34 -15h86l-46 -145q-2 -6 -2.5 -8.5t-1 -4t-1 -3.5t-1.5 -8q-3 -18 9 -29t30 -11q23 0 36.5 10.5t21.5 37.5l51 161h96l-46 -145q-2 -6 -2.5 -8.5t-1 -4t-1 -3.5t-1.5 -8q-3 -18 9 -29t30 -11q23 0 36.5 10.5t21.5 37.5
l51 161h100q25 0 39 15t17 33t-5.5 33t-33.5 15h-86l36 114h100q25 0 39 15t17 33q4 18 -5 33t-34 15h-86l45 145q2 6 3 8.5t1.5 4t1 3.5t1.5 8q3 18 -9 29t-30 11q-23 0 -37 -10.5t-22 -37.5l-50 -161h-96l45 145q2 6 3 8.5t1.5 4t1 3.5t1.5 8q3 18 -9 29t-30 11
q-23 0 -37 -10.5t-22 -37.5l-50 -161h-100q-25 0 -39 -15t-18 -33q-3 -18 6 -33t34 -15h86zM334 413h95l-36 -114h-95z" />
    <glyph glyph-name="dollar" unicode="$" horiz-adv-x="537" 
d="M341 283q27 -10 42.5 -25t10.5 -40q-5 -29 -25.5 -51t-53.5 -30zM318 462q-22 9 -34.5 21t-8.5 32q4 24 22 39.5t42 21.5zM260 133q-21 2 -40 8.5l-37 13t-34.5 11.5t-32.5 5q-31 0 -52.5 -21t-26.5 -50q-6 -32 13 -53t50 -33.5t68 -17.5t67 -6l-5 -31q-1 -9 -2.5 -17
t0 -15t6 -11t14.5 -4q20 0 26.5 15t9.5 32l5 29v3q48 4 92.5 21.5t80.5 47t61 70t34 90.5q11 60 -4.5 99t-44.5 63t-66.5 38t-72.5 24l24 133q17 -2 30 -6.5l25 -9t23.5 -8t24.5 -3.5q31 0 53 22.5t27 51.5q5 27 -10.5 45.5t-41 30t-54.5 16.5t-52 6l6 31q4 20 2.5 33.5
t-21.5 13.5t-25.5 -13.5t-9.5 -33.5l-5 -29l-1 -2q-45 -5 -87.5 -22.5t-76.5 -46.5t-58 -68.5t-32 -87.5q-10 -54 4.5 -87.5t42 -54.5t63.5 -32.5l70 -22.5z" />
    <glyph glyph-name="percent" unicode="%" horiz-adv-x="722" 
d="M274 503q-25 0 -36 17.5t-6 41.5t21.5 42t41.5 18t35.5 -18t5.5 -42t-21 -41.5t-41 -17.5zM162 74q-5 -6 -9.5 -16t-6.5 -21t1.5 -21t10 -17.5t16 -12t19.5 -4.5q18 0 27.5 8.5t23.5 24.5l447 629q8 11 9.5 17.5t3.5 12.5q4 23 -11 39.5t-38 16.5q-17 0 -27.5 -6.5
t-24.5 -25.5zM256 401q33 0 63.5 13t55 35t41 51t22.5 62t-0.5 62t-23 51.5t-42.5 35.5t-59 13t-64 -13t-55.5 -35.5t-41 -51.5t-22.5 -62t0.5 -62t23.5 -51t43 -35t59 -13zM535 -12q33 0 63.5 13t55 35t41 51t22.5 62t-0.5 62t-23 51.5t-42.5 35.5t-59 13t-63.5 -13
t-55 -35.5t-41.5 -51.5t-23 -62t0.5 -62t23.5 -51t43 -35t59 -13zM553 90q-25 0 -35.5 17.5t-6.5 41.5q5 24 21.5 42t41.5 18t35.5 -18t5.5 -42q-4 -24 -20.5 -41.5t-41.5 -17.5z" />
    <glyph glyph-name="ampersand" unicode="&#x26;" horiz-adv-x="704" 
d="M430 178q-33 -27 -64.5 -42.5t-72.5 -15.5q-46 0 -70.5 25t-16.5 73q8 43 39 71t69 50zM465 392q26 12 52 30t48 40t37.5 48.5t20.5 56.5q7 40 -7 69.5t-40 49t-60.5 29t-68.5 9.5q-39 0 -78.5 -10t-73 -31t-57 -52.5t-31.5 -74.5q-8 -42 5 -74t37 -61q-34 -17 -65 -39
t-56.5 -49t-43.5 -59.5t-24 -69.5q-9 -52 3 -92.5t40.5 -68t71 -41.5t92.5 -14q67 0 123.5 26t113.5 69l56 -72q17 -23 49 -23q29 0 53 20.5t29 46.5q3 17 -1 27.5t-12 22.5l-55 77l30 27q29 26 48.5 50.5t23.5 44.5q5 29 -8.5 46t-35.5 17q-24 0 -42.5 -11.5t-41.5 -34.5
l-47 -45zM482 552q-2 -13 -11.5 -25t-22 -22t-26.5 -17.5l-26 -13.5q-25 29 -34 46t-4 40q4 23 26.5 36.5t42.5 13.5q10 0 21 -2.5t19.5 -9.5t13 -18t1.5 -28z" />
    <glyph glyph-name="quotesingle" unicode="'" horiz-adv-x="240" 
d="M147 494q-5 -27 8.5 -43.5t41.5 -16.5t46.5 16.5t23.5 43.5l30 170q5 27 -8 43.5t-41 16.5t-47 -16.5t-24 -43.5z" />
    <glyph glyph-name="parenleft" unicode="(" horiz-adv-x="241" 
d="M300 724q-8 0 -18 -3t-18 -10q-20 -17 -39.5 -49t-37.5 -71.5t-34 -83.5t-29 -85.5t-22 -77t-13 -59.5q-7 -39 -11 -94t-4 -112q0 -56 6 -108.5t20 -86.5q6 -16 16.5 -27t28.5 -11q29 0 49.5 17.5t25.5 46.5q1 4 -0.5 15t-3.5 23.5l-4 24t-3 16.5q-12 69 -9.5 146
t15.5 150q14 81 41.5 159.5t66.5 155.5q3 5 7.5 14l9.5 19t8.5 19t4.5 14q5 26 -11.5 42t-41.5 16z" />
    <glyph glyph-name="parenright" unicode=")" horiz-adv-x="241" 
d="M42 -154q8 0 17.5 3t17.5 10q20 17 39.5 49t37.5 71.5t34.5 83.5t29 85.5t21.5 77.5t13 59q7 39 11.5 94t4.5 111q0 57 -6 109.5t-20 86.5q-6 16 -16.5 27t-28.5 11q-29 0 -50 -17.5t-26 -46.5q0 -4 1 -15t3 -23.5l4 -24t3 -16.5q13 -69 10 -146t-16 -150
q-14 -81 -41.5 -159.5t-65.5 -155.5q-3 -5 -7.5 -14l-9.5 -19t-9 -19t-5 -14q-5 -26 12 -42t42 -16z" />
    <glyph glyph-name="asterisk" unicode="*" horiz-adv-x="389" 
d="M321 718q-20 0 -37.5 -10.5t-22.5 -35.5q-2 -12 -1.5 -29.5t-1.5 -33.5q-19 15 -33 28t-31 13q-23 0 -39.5 -18t-21.5 -40q-2 -14 4.5 -23.5t17 -16t23.5 -11.5t23 -11q-12 -6 -26.5 -10.5t-27.5 -11t-23 -16t-12 -23.5q-4 -22 6 -40.5t33 -18.5q17 0 36 13.5t44 28.5
q-5 -16 -11 -33.5t-8 -29.5q-5 -25 8.5 -35.5t33.5 -10.5t37.5 10.5t22.5 35.5q2 12 1.5 29.5t1.5 33.5q18 -15 32 -28.5t31 -13.5q23 0 41 18.5t22 40.5q2 14 -4.5 23.5t-17.5 16t-24 11t-24 10.5q13 6 28 11t28 11.5t23 16t12 23.5q5 22 -6.5 40t-34.5 18q-17 0 -36 -13
t-43 -28q5 16 11 33.5t8 29.5q5 25 -8.5 35.5t-33.5 10.5z" />
    <glyph glyph-name="plus" unicode="+" horiz-adv-x="600" 
d="M295 313h-145q-28 0 -46.5 -16.5t-23.5 -43.5t8 -43.5t41 -16.5h145l-26 -145q-5 -27 8.5 -43.5t41.5 -16.5t46.5 16.5t23.5 43.5l26 145h145q28 0 47 16.5t24 43.5t-8.5 43.5t-41.5 16.5h-145l26 145q5 27 -8.5 43.5t-41.5 16.5t-46.5 -16.5t-23.5 -43.5z" />
    <glyph glyph-name="comma" unicode="," horiz-adv-x="268" 
d="M208 50q7 9 12.5 19t7.5 21q5 27 -12.5 46.5t-44.5 19.5q-12 0 -32 -8.5t-32 -25.5l-110 -150q-7 -10 -12 -19.5t-7 -20.5q-5 -27 12 -46.5t44 -19.5q12 0 31.5 8.5t31.5 25.5z" />
    <glyph glyph-name="hyphen" unicode="-" horiz-adv-x="389" 
d="M150 353q-28 0 -45.5 -18.5t-22.5 -45.5q-5 -26 6.5 -44t39.5 -18h213q28 0 45.5 18t22.5 44q5 27 -6.5 45.5t-39.5 18.5h-213z" />
    <glyph glyph-name="period" unicode="." horiz-adv-x="268" 
d="M68 66q-6 -32 13 -55t51 -23t59 23t33 55q5 32 -14 55t-51 23q-16 0 -31.5 -6t-27.5 -16.5t-20.5 -25t-11.5 -30.5z" />
    <glyph glyph-name="slash" unicode="/" horiz-adv-x="407" 
d="M30 71q-14 -22 -14 -28q-5 -23 10 -39t40 -16q24 0 38 10t24 27l375 616q7 11 10 18.5t4 9.5q4 23 -10 39t-39 16q-24 0 -38.5 -10t-24.5 -27z" />
    <glyph glyph-name="zero" unicode="0" horiz-adv-x="574" 
d="M309 124q-25 0 -41 12.5t-24.5 32t-11.5 45t-2 51t4.5 49.5t6.5 42q5 29 14.5 68.5t27 76t44 62t64.5 25.5t55.5 -25.5t22 -62t0 -76t-9.5 -68.5q-5 -27 -14.5 -66.5t-27 -76t-44 -63t-64.5 -26.5zM285 -12q76 0 133 34.5t97 88.5t64.5 119t35.5 126t9.5 126t-23 119
t-66 88.5t-120.5 34.5t-133 -34.5t-97 -88.5t-64.5 -119t-35.5 -126t-9.5 -126t23 -119t66 -88.5t120.5 -34.5z" />
    <glyph glyph-name="one" unicode="1" horiz-adv-x="370" 
d="M165 72q-7 -38 11 -58t50 -20t57 20t32 58l100 569q5 30 -8.5 50.5t-45.5 20.5h-142q-32 0 -54 -21.5t-27 -47.5t7.5 -47.5t48.5 -21.5h59z" />
    <glyph glyph-name="two" unicode="2" horiz-adv-x="574" 
d="M291 132q39 40 88.5 85.5t95 94.5t80.5 100.5t44 103.5q8 48 -2.5 86.5t-35.5 65.5t-63 41.5t-84 14.5t-91.5 -17.5t-83.5 -48.5t-65 -72.5t-35 -88.5q-5 -29 9.5 -51t50.5 -22q24 0 39 12t26 30t20 39t21.5 39t30.5 30t47 12q31 0 47.5 -23t11.5 -54q-5 -27 -20 -50
t-32 -43q-71 -82 -148.5 -153.5l-152.5 -145.5q-10 -9 -20 -22t-12 -29q-6 -35 13.5 -50.5t52.5 -15.5h334q29 0 53.5 15.5t30.5 50.5t-14 50.5t-53 15.5h-183z" />
    <glyph glyph-name="three" unicode="3" horiz-adv-x="574" 
d="M399 724q-42 0 -83.5 -14.5t-76 -37.5t-58.5 -52t-29 -58q-5 -28 8 -51t44 -23q26 0 41.5 15.5t31.5 33.5t37 33.5t57 15.5q34 0 50 -19t11 -48q-5 -28 -18 -42t-30.5 -21.5t-36.5 -11.5t-36 -10.5t-30 -20t-17 -39.5q-5 -29 5 -42.5t28 -19t39.5 -7.5t39.5 -9.5
t27.5 -24.5t3.5 -52q-4 -20 -14.5 -37t-25.5 -29.5t-33 -19.5t-38 -7q-28 0 -45 8.5t-27.5 21.5t-16.5 28.5t-12.5 28.5t-16 21.5t-26.5 8.5q-13 0 -28 -5t-27.5 -14t-21.5 -21t-12 -27q-5 -30 6 -63t37 -60.5t67.5 -46t96.5 -18.5q53 0 102.5 17.5t88.5 48t65.5 70.5
t34.5 85q11 60 -14.5 107t-76.5 72q47 26 74 65.5t35 87.5q5 29 -2 61.5t-28.5 59.5t-58.5 44.5t-91 17.5z" />
    <glyph glyph-name="four" unicode="4" horiz-adv-x="574" 
d="M355 157l-15 -85q-8 -40 6 -59t52 -19t58 19t28 59l15 85h17q29 0 52.5 18t28.5 48t-12 48t-46 18h-17l54 307q6 34 0.5 58.5t-19 40t-32.5 22.5t-41 7q-39 0 -64.5 -14t-48.5 -44l-295 -406l-12.5 -17.5t-9.5 -26.5q-1 -10 1 -20.5t9 -19t19.5 -14t30.5 -5.5h241z
M378 289h-137l184 279h2z" />
    <glyph glyph-name="five" unicode="5" horiz-adv-x="574" 
d="M351 574h188q7 0 19 2t25 9.5t24 22.5t15 41q5 27 -10.5 45t-50.5 18h-241q-18 0 -32 -4t-25 -14.5t-20 -29t-18 -47.5l-62 -211q-3 -8 -5 -16t-4 -18q-2 -13 9.5 -30t40.5 -17q19 0 32.5 5t26.5 11.5t28 11.5t37 5q47 0 66.5 -28t11.5 -73q-4 -24 -15 -47t-27.5 -42
t-38.5 -30.5t-48 -11.5q-25 0 -45 10t-36.5 22l-31.5 22t-30 10q-28 0 -51.5 -20t-28.5 -48q-6 -33 14 -58t51.5 -42t67.5 -25.5t63 -8.5q65 0 118 20t92.5 56t66 87t37.5 114q8 44 -1 82.5t-31.5 67.5t-57.5 46t-80 17q-19 0 -38.5 -3t-37.5 -7z" />
    <glyph glyph-name="six" unicode="6" horiz-adv-x="574" 
d="M285 -12q56 0 105.5 20.5t89 55t65.5 79t35 93.5q8 44 -1 84.5t-31.5 71.5t-57.5 49.5t-80 18.5q-17 0 -34 -3t-31 -9l-2 2q16 18 37 38l44 41l45.5 42l40.5 39q11 11 18.5 20.5t9.5 20.5q2 14 -2.5 27t-13.5 23t-20 16.5t-22 6.5q-6 0 -14 -1t-18 -6q-10 -6 -19 -12
t-17 -12q-29 -23 -63.5 -56t-69.5 -71t-68 -80t-60.5 -85t-47 -85t-25.5 -80q-9 -50 0.5 -95t36 -79t69.5 -54t101 -20zM347 340q24 0 40 -9t25.5 -23.5t12 -33t-0.5 -38.5q-8 -44 -39.5 -74t-74.5 -30q-45 0 -64.5 31t-11.5 73q8 45 39 74.5t74 29.5z" />
    <glyph glyph-name="seven" unicode="7" horiz-adv-x="538" 
d="M113 100q-8 -11 -11.5 -18.5t-5.5 -16.5q-2 -11 1 -23.5t12 -23t23 -17.5t35 -7q17 0 29 4t22.5 13t21 23.5l24.5 35.5l337 504q13 19 22.5 35t12.5 31q2 10 0 22.5t-9 23.5t-19 18.5t-31 7.5h-362q-42 0 -62 -21.5t-25 -47.5q-2 -13 -0.5 -25t9 -22t20.5 -16t33 -6h256z
" />
    <glyph glyph-name="eight" unicode="8" horiz-adv-x="574" 
d="M344 326q42 0 62 -26t12 -74q-3 -19 -12.5 -37t-24 -32t-33 -22.5t-39.5 -8.5q-23 0 -38.5 8.5t-24.5 22.5t-11 32t1 37q8 42 36 71t72 29zM285 -12q50 0 98 16t87 46t66 72t36 94q11 58 -9 102.5t-67 70.5q41 23 67.5 62t34.5 81q8 44 -3.5 79.5t-37 60.5t-62 38.5
t-80.5 13.5q-45 0 -86.5 -13.5t-75.5 -38.5t-57 -60.5t-31 -79.5q-8 -48 6 -82.5t45 -60.5q-52 -26 -89.5 -69.5t-48.5 -103.5q-9 -50 3 -92t40 -72t70 -47t94 -17zM391 592q35 0 50.5 -22t9.5 -54q-6 -34 -28.5 -55t-57.5 -21t-50 21t-9 55q6 32 28 54t57 22z" />
    <glyph glyph-name="nine" unicode="9" horiz-adv-x="574" 
d="M415 724q-55 0 -105 -20.5t-89.5 -55t-65.5 -79t-35 -93.5q-8 -44 0.5 -84.5t31 -71.5t57.5 -49.5t80 -18.5q17 0 34 3t32 9l1 -2q-15 -18 -36 -38l-44 -41l-45.5 -42l-40.5 -39q-11 -11 -18.5 -20.5t-9.5 -20.5q-3 -13 2 -26.5t14 -23.5t20.5 -16.5t21.5 -6.5q6 0 14 1
t17 6q11 6 20 12t16 12q30 24 64 56.5t69 70.5t68.5 80t61 85t46.5 85t26 80q9 50 -1 95t-36.5 79t-69 54t-100.5 20zM353 372q-24 0 -40 9t-25.5 23.5t-12 33t0.5 38.5q8 44 39 74t74 30q45 0 65 -31t12 -73q-8 -45 -39 -74.5t-74 -29.5z" />
    <glyph glyph-name="colon" unicode=":" horiz-adv-x="268" 
d="M124 387q-5 -32 13.5 -55t50.5 -23q16 0 31.5 6t28 16.5t21 25t11.5 30.5q6 32 -13 55t-51 23t-59 -23t-33 -55zM68 66q-6 -32 13 -55t51 -23t59 23t33 55q5 32 -14 55t-51 23q-16 0 -31.5 -6t-27.5 -16.5t-20.5 -25t-11.5 -30.5z" />
    <glyph glyph-name="semicolon" unicode=";" horiz-adv-x="268" 
d="M171 156q-12 0 -32 -8.5t-32 -25.5l-110 -150q-7 -10 -12 -19.5t-7 -20.5q-5 -27 12 -46.5t44 -19.5q12 0 31.5 8.5t31.5 25.5l111 150q7 9 12.5 19t7.5 21q5 27 -12.5 46.5t-44.5 19.5zM124 387q-5 -32 13.5 -55t50.5 -23q16 0 31.5 6t28 16.5t21 25t11.5 30.5
q6 32 -13 55t-51 23t-59 -23t-33 -55z" />
    <glyph glyph-name="semicolon" unicode="&#x37e;" horiz-adv-x="268" 
d="M171 156q-12 0 -32 -8.5t-32 -25.5l-110 -150q-7 -10 -12 -19.5t-7 -20.5q-5 -27 12 -46.5t44 -19.5q12 0 31.5 8.5t31.5 25.5l111 150q7 9 12.5 19t7.5 21q5 27 -12.5 46.5t-44.5 19.5zM124 387q-5 -32 13.5 -55t50.5 -23q16 0 31.5 6t28 16.5t21 25t11.5 30.5
q6 32 -13 55t-51 23t-59 -23t-33 -55z" />
    <glyph glyph-name="less" unicode="&#x3c;" horiz-adv-x="600" 
d="M241 253l357 139q23 9 32.5 22t12.5 29q6 32 -6 47.5t-31 15.5q-7 0 -18 -2.5t-34 -12.5l-427 -181q-17 -8 -30 -21t-17 -36q-5 -23 3.5 -36t23.5 -21l362 -182q20 -10 30.5 -12t17.5 -2q19 0 36.5 15.5t22.5 47.5q3 16 -2 29t-25 22z" />
    <glyph glyph-name="equal" unicode="=" horiz-adv-x="600" 
d="M170 425q-28 0 -47 -16.5t-24 -43.5t8.5 -43.5t41.5 -16.5h410q28 0 46.5 16.5t23.5 43.5t-8 43.5t-41 16.5h-410zM130 201q-28 0 -46.5 -16.5t-23.5 -43.5t8 -43.5t41 -16.5h410q28 0 47 16.5t24 43.5t-8.5 43.5t-41.5 16.5h-410z" />
    <glyph glyph-name="greater" unicode="&#x3e;" horiz-adv-x="600" 
d="M91 114q-23 -9 -32.5 -22t-12.5 -29q-5 -32 6.5 -47.5t30.5 -15.5q7 0 18 2t34 12l428 182q17 8 29.5 21t17.5 36q4 23 -4.5 36t-22.5 21l-363 181q-20 10 -30.5 12.5t-17.5 2.5q-19 0 -36 -15.5t-23 -47.5q-3 -16 2 -29t25 -22l309 -139z" />
    <glyph glyph-name="question" unicode="?" horiz-adv-x="481" 
d="M195 272q-5 -30 10.5 -49.5t49.5 -19.5q32 0 55.5 19.5t28.5 49.5l6 36q81 20 137.5 69t71.5 133q9 50 -3 90t-40 67.5t-69 42t-89 14.5q-34 0 -75 -11t-77.5 -32t-64 -52t-34.5 -70q-6 -33 7.5 -52.5t40.5 -19.5q24 0 43 15.5t38.5 34t42.5 34t54 15.5q16 0 30 -5.5
t24 -16t14.5 -24t1.5 -30.5q-4 -22 -13.5 -36.5t-22 -24t-28 -15t-31.5 -9.5l-31.5 -8t-27.5 -9.5t-20.5 -13.5t-10.5 -22zM217 -12q32 0 59 23t33 55q5 32 -14 55t-51 23q-16 0 -31.5 -6t-27.5 -16.5t-20.5 -25t-11.5 -30.5q-6 -32 13 -55t51 -23z" />
    <glyph glyph-name="at" unicode="@" horiz-adv-x="800" 
d="M403 252q-18 0 -29.5 7.5t-18 19.5t-8 27.5t1.5 31.5q3 19 13.5 38t25.5 34.5t34 25t39 9.5q36 0 51.5 -25.5t9.5 -59.5q-3 -21 -14 -40.5t-27 -34.5t-36 -24t-42 -9zM528 724q-76 0 -148 -29t-131 -79t-99.5 -117t-54.5 -143q-13 -76 4 -143t58 -117t103 -79t138 -29
q77 0 155 18t146 71q15 16 24.5 28t11.5 26q5 23 -6.5 30t-23.5 7q-7 0 -16.5 -5t-19.5 -12l-20 -14.5t-19 -11.5q-53 -26 -107.5 -36.5t-108.5 -10.5q-58 0 -104.5 22t-77.5 59.5t-44 88t-3 108.5t41 108.5t75 88t98.5 59.5t112.5 22q54 0 101.5 -16t80.5 -46t48.5 -72.5
t6.5 -96.5q-7 -40 -23.5 -69t-36 -47.5t-38 -27t-29.5 -8.5q-12 0 -16.5 6t-2.5 15q2 8 5 17.5l5 15.5l72 182q6 15 10 32q2 14 -10.5 21t-31.5 7q-30 0 -45 -12.5t-19 -35.5l-2 -12h-2q-15 32 -42.5 46t-64.5 14q-45 0 -84 -19t-70 -50t-51.5 -71t-28.5 -83q-6 -32 0 -63.5
t21 -56t39.5 -39.5t56.5 -15q30 0 60.5 13t53.5 36h2q-4 -20 9 -34.5t51 -14.5q12 0 37 5t55.5 17t64 31.5t63 47.5t52 65.5t30.5 86.5q12 69 -8.5 128t-64.5 102t-106 67t-132 24z" />
    <glyph glyph-name="A" unicode="A" horiz-adv-x="630" 
d="M26 97l-6.5 -12.5t-6.5 -20.5q-5 -30 13.5 -50t48.5 -20q31 0 50.5 15t30.5 38l47 93h278l13 -94q3 -23 17.5 -37.5t46.5 -14.5q28 0 52 18.5t29 47.5q1 5 0.5 15t-2.5 22l-100 544q-7 36 -29.5 59.5t-62.5 23.5q-38 0 -70.5 -24t-51.5 -59zM416 568h2l42 -290h-190z" />
    <glyph glyph-name="B" unicode="B" horiz-adv-x="574" 
d="M58 76q-6 -35 13 -55.5t54 -20.5h206q52 0 97 14t80.5 41.5t59.5 68t33 93.5q6 33 -0.5 62t-23 51.5t-42 37.5t-56.5 19l1 2q52 23 80.5 58.5t38.5 88.5q7 40 -2 72.5t-30.5 55.5t-53.5 35.5t-71 12.5h-192q-35 0 -60.5 -19.5t-32.5 -55.5zM297 580h78q33 0 54 -18
t15 -53q-7 -38 -32.5 -58.5t-62.5 -20.5h-78zM248 298h106q53 0 75.5 -22t16.5 -57q-8 -42 -38.5 -64.5t-71.5 -22.5h-118z" />
    <glyph glyph-name="C" unicode="C" horiz-adv-x="611" 
d="M80 356q-14 -78 -0.5 -145t50 -116.5t95 -78t134.5 -28.5q28 0 67.5 5t77 18t66.5 36t35 59q2 9 0 20.5t-8.5 22t-17.5 18t-28 7.5q-15 0 -31.5 -6.5l-36 -14.5t-43.5 -14.5t-56 -6.5q-46 0 -78 18t-50.5 48t-23.5 70t3 85q8 46 27.5 87t48.5 72t67.5 49.5t84.5 18.5
q32 0 53 -5.5t36.5 -12l29 -12t28.5 -5.5q28 0 48.5 20t25.5 47q6 33 -13.5 54.5t-51 34.5t-67.5 18t-63 5q-76 0 -144.5 -28t-123 -77.5t-91 -117t-50.5 -145.5z" />
    <glyph glyph-name="D" unicode="D" horiz-adv-x="667" 
d="M58 75q-4 -21 1.5 -35.5t15.5 -23.5t23.5 -12.5t25.5 -3.5h174q77 0 144.5 24.5t120.5 69.5t88.5 109t49.5 143q15 83 3.5 150.5t-48 115.5t-97.5 74t-145 26h-166q-34 0 -59.5 -21t-31.5 -56zM296 574h91q52 0 86.5 -16.5t53.5 -46t23.5 -70t-4.5 -88.5q-8 -45 -26 -84
t-46.5 -68.5t-67 -46t-86.5 -16.5h-101z" />
    <glyph glyph-name="E" unicode="E" horiz-adv-x="463" 
d="M58 75q-6 -34 12.5 -54.5t51.5 -20.5h258q35 0 56.5 21.5t26.5 47.5t-9 47.5t-50 21.5h-185l27 152h164q36 0 58 21.5t27 47.5t-9.5 47.5t-51.5 21.5h-164l26 146h176q35 0 56.5 21.5t26.5 47.5t-8.5 47.5t-49.5 21.5h-248q-40 0 -63.5 -24.5t-30.5 -62.5z" />
    <glyph glyph-name="F" unicode="F" horiz-adv-x="444" 
d="M58 72q-7 -38 11 -58t50 -20t57 20t32 58l38 218h155q36 0 57.5 22t26.5 48t-9.5 47t-50.5 21h-155l26 146h184q34 0 54 21.5t25 47.5t-8 47.5t-46 21.5h-256q-38 0 -62.5 -23.5t-29.5 -54.5z" />
    <glyph glyph-name="G" unicode="G" horiz-adv-x="704" 
d="M503 422q-29 0 -52.5 -18t-29.5 -50q-5 -31 11 -50.5t47 -19.5h102q-7 -43 -28 -73t-49 -49t-59.5 -27.5t-61.5 -8.5q-48 0 -80 19t-49.5 50.5t-21.5 73t4 87.5q8 45 27 87t48 73.5t67.5 50.5t85.5 19q49 0 77 -11.5t46.5 -25l35 -25t41.5 -11.5q26 0 47.5 19t27.5 51
q5 26 -12.5 51.5t-51.5 45.5t-81.5 32t-104.5 12q-76 0 -144.5 -28t-123 -77.5t-91 -117t-50.5 -145.5t-0.5 -145t50 -116.5t95 -78t134.5 -28.5q75 0 140 25.5t115 71t83.5 107.5t46.5 134q9 48 -7 72t-64 24h-170z" />
    <glyph glyph-name="H" unicode="H" horiz-adv-x="704" 
d="M58 72q-7 -38 11 -58t50 -20t57 20t32 58l38 218h314l-38 -218q-7 -38 11 -58t50 -20t57 20t32 58l100 568q7 38 -11 58t-50 20t-57 -20t-32 -58l-38 -212h-314l38 212q7 38 -11 58t-50 20t-57 -20t-32 -58z" />
    <glyph glyph-name="I" unicode="I" horiz-adv-x="240" 
d="M58 72q-7 -38 11 -58t50 -20t57 20t32 58l100 568q7 38 -11 58t-50 20t-57 -20t-32 -58z" />
    <glyph glyph-name="J" unicode="J" horiz-adv-x="407" 
d="M481 640q7 38 -11 58t-50 20t-57 -20t-32 -58l-76 -430q-2 -12 -5.5 -26.5t-11 -27.5t-20.5 -21.5t-34 -8.5q-17 0 -31 6t-27.5 12.5l-26.5 12.5t-28 6q-12 0 -23.5 -5.5t-20.5 -14.5t-15 -20t-8 -21q-6 -33 9.5 -54.5t41 -35t56.5 -19t57 -5.5q34 0 71 9.5t70 33.5
t58 65t36 104z" />
    <glyph glyph-name="K" unicode="K" horiz-adv-x="611" 
d="M57 66q-6 -33 12 -52.5t50 -19.5q34 0 58.5 21.5t29.5 50.5l45 255l209 -280q17 -23 31.5 -35t36.5 -12q31 0 57.5 17t32.5 52q4 23 -5 40t-23 36l-189 241l222 186q29 25 44 42.5t19 37.5q5 32 -13.5 52t-47.5 20q-21 0 -37 -9.5t-26 -18.5l-293 -262l39 216
q6 35 -12 54.5t-50 19.5q-34 0 -58.5 -21.5t-29.5 -52.5z" />
    <glyph glyph-name="L" unicode="L" horiz-adv-x="426" 
d="M59 82q-6 -38 10.5 -60t53.5 -22h250q33 0 55.5 20.5t28.5 45.5q3 13 1 25.5t-9 23t-20 17t-32 6.5h-178l89 502q7 38 -11 58t-50 20t-57 -20t-32 -58z" />
    <glyph glyph-name="M" unicode="M" horiz-adv-x="870" 
d="M40 83q-2 -5 -2.5 -9t-1.5 -8q-6 -33 11.5 -52.5t47.5 -19.5q38 0 58.5 17.5t31.5 52.5l131 407h2l46 -419q1 -9 4.5 -19t11.5 -19t21 -14.5t33 -5.5t35 5.5t26 14.5t18 19t11 19l194 419h2l-13 -407q-1 -35 13.5 -52.5t52.5 -17.5q30 0 54.5 19.5t30.5 52.5q2 10 2 17
l5 558q0 14 -5.5 27.5t-16.5 24.5t-26.5 18t-35.5 7q-38 0 -69 -22.5t-44 -49.5l-188 -396h-2l-48 396q-3 27 -26 49.5t-61 22.5q-20 0 -38 -7t-33 -18t-25.5 -24.5t-15.5 -27.5z" />
    <glyph glyph-name="N" unicode="N" horiz-adv-x="685" 
d="M52 72q-7 -38 11 -58t50 -20t57 20t32 58l65 373h2l244 -418q8 -14 25.5 -23.5t31.5 -9.5q32 0 57 20t32 58l100 568q7 38 -11 58t-50 20t-57 -20t-32 -58l-67 -378h-2l-242 423q-8 14 -25.5 23.5t-31.5 9.5q-32 0 -57 -20t-32 -58z" />
    <glyph glyph-name="O" unicode="O" horiz-adv-x="722" 
d="M383 126q-48 0 -80 19t-49.5 50.5t-21.5 73t4 87.5q8 45 27 87t48 73.5t67.5 50.5t85.5 19t79 -19t50 -50.5t22.5 -73.5t-3.5 -87q-8 -46 -27 -87.5t-48 -73t-67.5 -50.5t-86.5 -19zM359 -12q77 0 145.5 28.5t122.5 78t90.5 116.5t50.5 145q14 76 0 143t-50.5 117t-95 79
t-133.5 29q-76 0 -144.5 -28t-123 -77.5t-91 -117t-50.5 -145.5t-0.5 -145t50 -116.5t95 -78t134.5 -28.5z" />
    <glyph glyph-name="P" unicode="P" 
d="M58 72q-7 -38 11 -58t50 -20t57 20t32 58l29 164h111q51 0 99.5 16.5t88 47.5t67 74.5t36.5 98.5q10 54 -1.5 98t-40 75.5t-72.5 48.5t-99 17h-177q-38 0 -62 -21.5t-30 -56.5zM297 580h102q48 0 70.5 -30.5t14.5 -75.5t-41.5 -75.5t-80.5 -30.5h-102z" />
    <glyph glyph-name="Q" unicode="Q" horiz-adv-x="722" 
d="M591 -16q17 -17 31 -24.5t31 -7.5q13 0 26 5t24 13.5t19 20t11 24.5q4 21 -4 34.5t-21 26.5l-48 49q42 48 69 106.5t39 124.5q14 76 0 143t-50.5 117t-95 79t-133.5 29q-76 0 -144.5 -28t-123 -77.5t-91 -117t-50.5 -145.5t-0.5 -145t50 -116.5t95 -78t134.5 -28.5
q51 0 97 11.5t87 32.5zM523 267q-14 13 -36 13q-31 0 -53 -21.5t-27 -50.5q-2 -11 1.5 -21.5t10.5 -18.5l29 -35q-15 -3 -31.5 -5t-33.5 -2q-48 0 -80 19t-49.5 50.5t-21.5 73t4 87.5q8 45 27 87t48 73.5t67.5 50.5t85.5 19t79 -19t50 -51t22.5 -73.5t-3.5 -86.5
q-6 -35 -17.5 -67t-29.5 -61z" />
    <glyph glyph-name="R" unicode="R" 
d="M58 72q-7 -38 11 -58t50 -20t57 20t32 58l38 217h2l175 -269q9 -14 24 -20t29 -6q17 0 31.5 6.5t26.5 17.5t20 24.5t11 28.5q2 11 -1 22t-12 22l-138 182q39 6 75.5 21t66 38.5t50 56t27.5 73.5q20 118 -36.5 172t-172.5 54h-176q-38 0 -61.5 -21t-29.5 -57zM296 574h103
q42 0 64 -22.5t14 -65.5q-8 -42 -37.5 -65.5t-71.5 -23.5h-103z" />
    <glyph glyph-name="S" unicode="S" horiz-adv-x="537" 
d="M398 724q-50 0 -98 -16t-87 -45t-66.5 -71t-36.5 -95q-10 -58 8.5 -93t51.5 -56t74.5 -33t76.5 -23.5t56.5 -27.5t16.5 -46q-6 -37 -36.5 -61.5t-80.5 -24.5q-24 0 -46 6t-41.5 13.5t-37.5 13.5t-36 6q-31 0 -52.5 -21t-26.5 -50q-6 -35 17 -57t59 -34t77 -16.5t70 -4.5
q52 0 101 16t89.5 46t69 73t37.5 97q11 65 -6.5 104.5t-50.5 63.5t-74 37.5l-76 24.5t-57 25t-18 40q5 32 33 48.5t60 16.5q23 0 40 -4.5t31.5 -10.5t28 -10.5t28.5 -4.5q31 0 53 22.5t27 51.5q5 30 -14 49t-48.5 30.5t-62 16t-53.5 4.5z" />
    <glyph glyph-name="T" unicode="T" horiz-adv-x="480" 
d="M178 72q-7 -38 11 -58t50 -20t57 20t32 58l88 502h109q36 0 55.5 21.5t24.5 47.5t-9 47.5t-46 21.5h-368q-32 0 -54 -21.5t-27 -47.5t7.5 -47.5t48.5 -21.5h109z" />
    <glyph glyph-name="U" unicode="U" horiz-adv-x="685" 
d="M89 283q-11 -64 3.5 -118t49 -93.5t85.5 -61.5t114 -22q62 0 121 22.5t107 62t82 93.5t45 117l63 357q7 38 -11 58t-50 20t-57 -20t-32 -58l-62 -349q-6 -33 -22 -63t-40.5 -52.5t-55 -36t-64.5 -13.5q-36 0 -62 13t-42 35t-21.5 52.5t0.5 64.5l62 349q7 38 -11 58
t-50 20t-57 -20t-32 -58z" />
    <glyph glyph-name="V" unicode="V" horiz-adv-x="592" 
d="M231 52q5 -24 18 -41t46 -17t51.5 17t32.5 41l317 557q6 10 9 18t5 19q5 32 -14.5 52t-49.5 20q-26 0 -44.5 -14.5t-32.5 -34.5l-228 -416l-82 416q-6 20 -19.5 34.5t-39.5 14.5q-15 0 -30 -5.5t-27.5 -15t-21 -22.5t-11.5 -29q-2 -11 -2 -19t2 -18z" />
    <glyph glyph-name="W" unicode="W" horiz-adv-x="908" 
d="M152 72q2 -32 22.5 -55t62.5 -23q37 0 67 21t45 52l184 386h2l48 -386q4 -31 26.5 -52t59.5 -21q42 0 71 23t42 55l223 546q4 10 6 16.5t4 17.5q5 24 -10.5 45t-48.5 21q-36 0 -58.5 -19.5t-34.5 -52.5l-160 -425h-2l-53 438q-3 27 -21 43t-46 16t-52 -16t-37 -43
l-207 -438h-2l-10 425q-1 33 -16 52.5t-51 19.5q-33 0 -55.5 -21t-27.5 -45q-2 -11 -2.5 -17.5t0.5 -16.5z" />
    <glyph glyph-name="X" unicode="X" horiz-adv-x="612" 
d="M41 115q-8 -8 -15.5 -21.5t-10.5 -29.5q-5 -32 13 -51t51 -19q38 0 68 33l204 228l124 -228q17 -33 56 -33q33 0 58 19t30 51q3 16 0 29.5t-8 21.5l-151 266l201 220q20 21 24 44q5 33 -13 53t-50 20q-19 0 -38.5 -11t-33.5 -26l-155 -176l-93 176q-8 15 -23.5 26
t-34.5 11q-32 0 -58 -20t-31 -53q-2 -12 0.5 -23t7.5 -21l123 -220z" />
    <glyph glyph-name="Y" unicode="Y" horiz-adv-x="536" 
d="M205 67q-5 -28 8.5 -50.5t53.5 -22.5t61.5 22.5t26.5 50.5l47 267l236 266q17 21 22 45q5 30 -11 51.5t-48 21.5q-41 0 -68 -30l-181 -209l-107 209q-7 14 -21.5 22t-34.5 8q-32 0 -56 -21.5t-29 -51.5q-5 -25 6 -45l142 -266z" />
    <glyph glyph-name="Z" unicode="Z" horiz-adv-x="593" 
d="M232 132l399 444q11 13 20.5 30t12.5 34q2 13 -0.5 26t-11 23t-23 16.5t-36.5 6.5h-366q-29 0 -53 -19.5t-29 -48.5q-6 -31 11 -47.5t47 -16.5h263l-401 -450q-12 -14 -20 -28.5t-10 -29.5q-6 -32 12.5 -52t58.5 -20h393q14 0 27.5 5t25.5 14t20 21t11 26q5 32 -12 49
t-49 17h-290z" />
    <glyph glyph-name="bracketleft" unicode="[" horiz-adv-x="278" 
d="M30 -82q-6 -33 10.5 -52.5t49.5 -19.5h100q22 0 40 13t23 44t-8 44t-35 13h-47l115 650h47q22 0 39.5 13t23.5 44q5 31 -8 44t-35 13h-100q-33 0 -56.5 -19.5t-29.5 -52.5z" />
    <glyph glyph-name="backslash" unicode="\" horiz-adv-x="407" 
d="M244 687q-4 17 -14.5 27t-34.5 10q-25 0 -45 -16t-24 -39q-2 -5 3 -28l159 -616q5 -17 15 -27t34 -10q25 0 45 16t25 39q0 2 -1 9.5t-3 18.5z" />
    <glyph glyph-name="bracketright" unicode="]" horiz-adv-x="278" 
d="M349 652q6 33 -10.5 52.5t-49.5 19.5h-100q-22 0 -40 -13t-23 -44q-6 -31 7.5 -44t35.5 -13h47l-115 -650h-47q-22 0 -40 -13t-23 -44t8 -44t35 -13h100q33 0 56.5 19.5t29.5 52.5z" />
    <glyph glyph-name="asciicircum" unicode="^" horiz-adv-x="600" 
d="M400 568l84 -231q7 -13 18.5 -17.5t29.5 -4.5q21 0 37.5 10t20.5 30q2 9 0 19t-6 21l-110 293q-6 17 -19 23.5t-28 6.5t-31 -6.5t-28 -23.5l-212 -293q-17 -24 -20 -40q-4 -20 9.5 -30t34.5 -10q18 0 30.5 4.5t23.5 17.5z" />
    <glyph glyph-name="underscore" unicode="_" horiz-adv-x="500" 
d="M478 -125q12 0 21.5 6.5t11.5 18.5t-5 18.5t-19 6.5h-500q-12 0 -22 -6.5t-12 -18.5t5.5 -18.5t19.5 -6.5h500z" />
    <glyph glyph-name="grave" unicode="`" 
d="M492 686l6 -5q9 -10 11.5 -22.5t-2.5 -23.5q-5 -13 -14 -24.5t-20 -20t-22.5 -12.5t-22.5 -1q-7 2 -10 3t-5 2.5l-6 4.5l-12 9l-86 70q-31 25 -13 67q4 10 12.5 19.5t19 16.5t22.5 10.5t22 0.5q8 -2 15 -6.5t16 -12.5z" />
    <glyph glyph-name="a" unicode="a" horiz-adv-x="574" 
d="M611 444q3 14 4.5 30.5t-2 30.5t-16 23.5t-38.5 9.5t-49 -17t-31 -43q-18 34 -51.5 50t-73.5 16q-49 0 -96.5 -21.5t-86 -59t-66 -88.5t-38.5 -110q-11 -61 -1.5 -111.5t35 -87.5t65 -57.5t90.5 -20.5q80 0 149 67q2 -29 14 -45t44 -16q26 0 41.5 9.5t24.5 23.5t13 30.5
t7 30.5zM211 265q5 26 16 52t29 47t41.5 34.5t53.5 13.5q29 0 47.5 -13.5t28 -34.5t12 -47t-2.5 -52q-4 -26 -15.5 -52t-29 -46.5t-41 -33.5t-51.5 -13q-29 0 -48 13t-29.5 33.5t-12.5 46.5t2 52z" />
    <glyph glyph-name="b" unicode="b" horiz-adv-x="574" 
d="M54 74q-6 -36 10 -58t48 -22q30 0 50.5 15.5t32.5 44.5q14 -33 48.5 -49.5t71.5 -16.5q54 0 102 23t85.5 61.5t63 87t34.5 99.5q9 53 3.5 104t-27.5 91t-61 65t-97 25q-38 0 -75.5 -12.5t-70.5 -37.5l35 196q6 36 -10 58t-48 22t-56 -22t-30 -58zM233 270q5 26 16 51.5
t28.5 45.5t41 32.5t52.5 12.5q28 0 46.5 -13.5t29 -34.5t13 -47t-2.5 -52q-4 -25 -16 -51t-29.5 -47t-41 -34t-51.5 -13q-30 0 -49 13.5t-28.5 35t-11.5 48.5t3 53z" />
    <glyph glyph-name="c" unicode="c" horiz-adv-x="463" 
d="M534 453q5 26 -11.5 43.5t-42.5 28t-55.5 15t-50.5 4.5q-57 0 -108.5 -23t-92.5 -61.5t-69 -89t-37 -105.5q-10 -56 -0.5 -106.5t36.5 -88.5t71 -60t102 -22q20 0 50.5 5t60.5 16.5t53.5 30.5t28.5 47q5 26 -10 44.5t-41 18.5q-6 0 -19.5 -4.5t-29.5 -10.5t-32.5 -10.5
t-30.5 -4.5q-29 0 -49.5 12.5t-32 33t-15 46.5t1.5 53q5 28 17 54.5t30.5 47t43.5 33t56 12.5q17 0 31.5 -4.5t27 -9.5t25 -9.5t25.5 -4.5t24 6.5t20 16.5t15 22.5t8 23.5z" />
    <glyph glyph-name="d" unicode="d" horiz-adv-x="574" 
d="M655 690q6 36 -10 58t-48 22t-56 -22t-30 -58l-35 -196q-24 25 -57 37.5t-71 12.5q-58 0 -106 -25t-84 -65t-59.5 -91t-32.5 -104q-9 -51 -1 -99.5t32 -87t64 -61.5t94 -23q37 0 77.5 16.5t66.5 49.5q2 -29 16.5 -44.5t44.5 -15.5q32 0 56 22t30 58zM437 270
q-5 -26 -16.5 -53t-29 -48.5t-41 -35t-53.5 -13.5q-28 0 -46.5 13t-29 34t-12.5 47t2 51q5 26 16.5 52t29 47t41 34.5t51.5 13.5q29 0 48 -12.5t29.5 -32.5t13 -45.5t-2.5 -51.5z" />
    <glyph glyph-name="e" unicode="e" horiz-adv-x="537" 
d="M502 218q33 0 51 16t24 48q8 45 -2.5 91.5t-37.5 84.5t-70.5 62t-102.5 24q-57 0 -108.5 -23t-92.5 -61.5t-69 -89t-37 -105.5q-10 -60 0 -110.5t39 -87.5t75 -58t107 -21q40 0 83.5 10.5t80.5 27.5t62.5 39t29.5 45q2 12 -0.5 23t-9.5 19.5t-16.5 14t-21.5 5.5
q-14 0 -32.5 -9l-40.5 -20t-47 -20t-53 -9q-25 0 -47 6.5t-38 19t-25 32t-8 46.5h307zM209 314q7 23 19.5 43t30 35t39 23.5t45.5 8.5q51 0 74 -31t21 -79h-229z" />
    <glyph glyph-name="f" unicode="f" horiz-adv-x="296" 
d="M87 74q-6 -36 10 -58t48 -22t56 22t30 58l59 332h45q32 0 55 14.5t29 48.5q6 35 -12 49t-50 14h-45l10 59q4 20 10 30.5t13.5 15.5t16.5 6t18 1q59 0 69 61q3 19 -3 31.5t-18.5 20t-30 10.5t-36.5 3q-66 0 -116 -42t-64 -122l-13 -74h-32q-27 0 -48 -18t-26 -45
q-5 -29 9 -46t43 -17h32z" />
    <glyph glyph-name="g" unicode="g" horiz-adv-x="574" 
d="M614 458q6 36 -10 58t-48 22q-30 0 -50.5 -15.5t-32.5 -44.5q-14 33 -48.5 49.5t-71.5 16.5q-54 0 -102 -23.5t-86 -62.5t-63.5 -89.5t-34.5 -104.5q-10 -54 -5.5 -103.5t25.5 -88t58.5 -61.5t94.5 -23q50 0 89 17.5t68 50.5h2l-6 -34q-10 -55 -49.5 -84.5t-92.5 -29.5
q-31 0 -55.5 7t-44.5 15.5l-37.5 15.5t-34.5 7q-10 0 -22 -6t-21.5 -15.5t-16.5 -20.5t-9 -21q-5 -30 18.5 -50.5t58 -33t72 -18.5t59.5 -6q62 0 115.5 16.5t95.5 49t71 81t40 113.5zM435 262q-4 -26 -15.5 -51.5t-29 -45.5t-41 -32.5t-52.5 -12.5q-28 0 -47 12t-29 32.5
t-12.5 47t2.5 55.5q5 25 16.5 51t29 47t41 34t51.5 13q30 0 49 -13.5t28.5 -35t11.5 -48.5t-3 -53z" />
    <glyph glyph-name="h" unicode="h" 
d="M54 74q-6 -36 10 -58t48 -22t56 22t30 58l44 251q8 42 36.5 70.5t73.5 28.5q39 0 62 -24t14 -75l-44 -251q-6 -36 10 -58t48 -22t56 22t30 58l49 276q8 46 -0.5 82t-30.5 61t-56 38t-76 13q-34 0 -73 -11t-67 -39h-2l35 196q6 36 -10 58t-48 22t-56 -22t-30 -58z" />
    <glyph glyph-name="i" unicode="i" horiz-adv-x="222" 
d="M52 74q-6 -36 10 -58t48 -22t56 22t30 58l68 384q6 36 -10 58t-48 22t-56 -22t-30 -58zM244 754q-16 0 -32 -6.5t-29 -17.5t-22 -25.5t-12 -29.5q-3 -16 1 -31.5t13 -26.5t22.5 -18t29.5 -7q34 0 62 24.5t34 58.5q3 16 -1.5 30t-13.5 25t-22.5 17.5t-29.5 6.5z" />
    <glyph glyph-name="j" unicode="j" horiz-adv-x="222" 
d="M15 -138q-7 -36 9.5 -58t48.5 -22t55.5 22t30.5 58l105 596q6 36 -10 58t-48 22t-56 -22t-30 -58zM244 754q-16 0 -32 -6.5t-29 -17.5t-22 -25.5t-12 -29.5q-3 -16 1 -31.5t13 -26.5t22.5 -18t29.5 -7q34 0 62 24.5t34 58.5q3 16 -1.5 30t-13.5 25t-22.5 17.5t-29.5 6.5z
" />
    <glyph glyph-name="k" unicode="k" horiz-adv-x="500" 
d="M54 74q-6 -36 10 -58t48 -22t56 22t30 58l31 175h2l138 -217q14 -21 27.5 -32.5t33.5 -11.5q29 0 52 19.5t28 48.5q2 12 0 24.5t-10 23.5l-134 198l148 114q19 14 27.5 27.5t10.5 29.5q5 24 -8.5 44.5t-40.5 20.5q-14 0 -32.5 -7t-38.5 -24l-185 -153l60 336q6 36 -10 58
t-48 22t-56 -22t-30 -58z" />
    <glyph glyph-name="l" unicode="l" horiz-adv-x="222" 
d="M52 74q-6 -36 10 -58t48 -22t56 22t30 58l109 616q6 36 -10 58t-48 22t-56 -22t-30 -58z" />
    <glyph glyph-name="m" unicode="m" horiz-adv-x="852" 
d="M54 74q-6 -36 10 -58t48 -22t56 22t30 58l44 251q8 44 33 71.5t70 27.5q39 0 56.5 -27.5t9.5 -71.5l-44 -251q-6 -36 10 -58t48 -22t56 22t30 58l44 251q8 44 35.5 71.5t67.5 27.5q39 0 56.5 -27.5t9.5 -71.5l-44 -251q-6 -36 10 -58t48 -22t56 22t30 58l49 276
q8 47 0 83.5t-29.5 61t-55.5 37t-78 12.5q-37 0 -83 -19t-82 -54q-44 73 -136 73q-40 0 -76.5 -15.5t-68.5 -44.5q1 26 -13.5 40t-42.5 14q-32 0 -56 -22t-30 -58z" />
    <glyph glyph-name="n" unicode="n" 
d="M54 74q-6 -36 10 -58t48 -22t56 22t30 58l44 251q8 42 36.5 70.5t73.5 28.5q39 0 62 -24t14 -75l-44 -251q-6 -36 10 -58t48 -22t56 22t30 58l49 276q8 46 -0.5 82t-30.5 61t-56 38t-76 13q-51 0 -87 -15t-62 -44q0 25 -14.5 39t-42.5 14q-32 0 -56 -22t-30 -58z" />
    <glyph glyph-name="o" unicode="o" 
d="M374 544q-57 0 -108.5 -23t-92.5 -61.5t-69 -89t-37 -105.5q-10 -56 -0.5 -106.5t36.5 -88.5t71 -60t102 -22t109.5 22t92 60t68 88.5t37.5 106.5q9 55 -1 105.5t-37 89t-70.5 61.5t-100.5 23zM351 412q30 0 49 -13.5t29 -34.5t12.5 -47t-2.5 -52q-4 -26 -15.5 -52
t-29.5 -46.5t-42 -33.5t-53 -13t-48 13t-29.5 33.5t-12.5 46.5t2 52q5 26 16 52t29 47t41.5 34.5t53.5 13.5z" />
    <glyph glyph-name="p" unicode="p" horiz-adv-x="574" 
d="M17 -138q-7 -36 9.5 -58t48.5 -22t55.5 22t30.5 58l31 176q24 -25 56.5 -37.5t66.5 -12.5q54 0 102 23t85.5 61.5t63 87t34.5 99.5q9 53 3.5 104t-27.5 91t-61 65t-97 25q-41 0 -82 -16.5t-67 -49.5q-2 29 -16.5 44.5t-44.5 15.5q-32 0 -56 -22t-30 -58zM233 270
q5 26 16 51.5t28.5 45.5t41 32.5t52.5 12.5q28 0 46.5 -13.5t29 -34.5t13 -47t-2.5 -52q-4 -25 -16 -51t-29.5 -47t-41 -34t-51.5 -13q-30 0 -49 13.5t-28.5 35t-11.5 48.5t3 53z" />
    <glyph glyph-name="q" unicode="q" horiz-adv-x="574" 
d="M614 458q6 36 -10 58t-48 22q-30 0 -50.5 -15.5t-32.5 -44.5q-14 33 -49 49.5t-76 16.5q-58 0 -106 -25t-84 -65t-59.5 -91t-32.5 -104q-9 -51 -1 -99.5t32 -87t64 -61.5t94 -23q34 0 71 12.5t70 37.5l-31 -176q-7 -36 9.5 -58t48.5 -22t55.5 22t30.5 58zM437 270
q-5 -26 -16.5 -53t-29 -48.5t-41 -35t-53.5 -13.5q-28 0 -46.5 13t-29 34t-12.5 47t2 51q5 26 16.5 52t29 47t41 34.5t51.5 13.5q29 0 48 -12.5t29.5 -32.5t13 -45.5t-2.5 -51.5z" />
    <glyph glyph-name="r" unicode="r" horiz-adv-x="333" 
d="M52 74q-6 -36 10 -58t48 -22t56 22t30 58l39 221q4 21 14 36t24 26t31 19t35 15q17 8 33.5 13t30 12t22.5 17t12 28q7 39 -11.5 58t-44.5 19q-34 0 -60 -15t-52 -45h-2q6 35 -12 47.5t-47 12.5q-27 0 -53.5 -18t-33.5 -54z" />
    <glyph glyph-name="s" unicode="s" horiz-adv-x="426" 
d="M481 440q5 27 -10 46.5t-40 32t-55 19t-57 6.5q-43 0 -81 -12t-67.5 -34.5t-49.5 -53t-27 -68.5q-7 -41 6.5 -69t38 -47t54.5 -31.5l56 -23.5t42.5 -22.5t13.5 -27.5q-3 -20 -17 -30.5t-47 -10.5q-25 0 -42.5 7.5t-32 17t-29.5 17t-36 7.5q-15 0 -28 -7t-22.5 -17
t-15.5 -21t-8 -19q-4 -24 12.5 -44.5t44 -35.5t61.5 -23t64 -8q47 0 87 13t70.5 35.5t51 53.5t26.5 67q7 41 -6.5 68.5t-38 46.5t-54.5 31.5l-56 23.5t-42.5 22.5t-13.5 28.5q4 21 20 30.5t36 9.5q18 0 35 -6.5t33 -14.5l29.5 -14.5t23.5 -6.5q26 0 46 19.5t25 44.5z" />
    <glyph glyph-name="t" unicode="t" horiz-adv-x="296" 
d="M89 74q-6 -36 10 -58t48 -22t56 22t30 58l59 332h41q28 0 51 14.5t29 48.5q6 35 -12 49t-46 14h-41l15 86q6 36 -10 58t-48 22t-56 -22t-30 -58l-15 -86h-32q-27 0 -48 -18t-26 -45q-5 -29 9 -46t43 -17h32z" />
    <glyph glyph-name="u" unicode="u" 
d="M76 198q-17 -97 34 -153.5t166 -56.5t186 56.5t88 153.5l46 260q6 36 -10 58t-48 22t-56 -22t-30 -58l-46 -257q-4 -22 -14.5 -39.5t-25.5 -29.5t-33 -18t-36 -6q-36 0 -60 24t-17 69l46 257q6 36 -10 58t-48 22t-56 -22t-30 -58z" />
    <glyph glyph-name="v" unicode="v" horiz-adv-x="462" 
d="M163 54q5 -28 17.5 -44t49.5 -16t55 16t34 44l210 372q8 14 11.5 23t5.5 19q6 35 -14 52.5t-49 17.5q-30 0 -47.5 -17t-25.5 -34l-142 -284h-2l-42 284q-2 17 -13.5 34t-41.5 17q-29 0 -55 -17.5t-32 -52.5q-2 -10 -2 -19t3 -23z" />
    <glyph glyph-name="w" unicode="w" horiz-adv-x="778" 
d="M156 67q5 -32 22 -52.5t52 -20.5q33 0 56 17.5t39 49.5l115 232h2l33 -232q5 -32 21.5 -49.5t49.5 -17.5q35 0 59 20.5t41 52.5l184 347l15.5 29.5t8.5 24.5q5 33 -11.5 51.5t-48.5 18.5q-26 0 -46 -16t-32 -41l-132 -275h-2l-36 269q-5 29 -17.5 46t-44.5 17t-51 -17
t-33 -46l-132 -269h-2l-34 275q-3 25 -17.5 41t-40.5 16q-32 0 -55 -17t-27 -41q-3 -16 -2 -31t5 -37z" />
    <glyph glyph-name="x" unicode="x" horiz-adv-x="500" 
d="M40 113q-10 -9 -18.5 -23t-10.5 -26q-5 -32 11 -51t48 -19q24 0 38 9t28 23l144 146l94 -146q8 -14 19 -23t35 -9q32 0 55 19t28 51q2 12 -1 26t-10 23l-117 166l146 137q11 11 20 24.5t12 27.5q2 14 -2 27t-13 22.5t-21 15t-26 5.5q-17 0 -30.5 -7t-27.5 -21l-123 -126
l-79 126q-9 14 -20 21t-28 7q-14 0 -28.5 -5.5t-26.5 -15t-20.5 -22.5t-10.5 -27q-3 -14 1 -27.5t11 -24.5l98 -137z" />
    <glyph glyph-name="y" unicode="y" horiz-adv-x="481" 
d="M171 42l-90 -156q-12 -20 -17 -42q-4 -23 12 -42.5t53 -19.5q26 0 45 17t33 40l346 600q10 15 14 37q2 14 -2.5 25t-12.5 19.5t-19.5 13t-22.5 4.5q-26 0 -46.5 -13.5t-34.5 -37.5l-154 -271l-51 271q-5 24 -21 37.5t-42 13.5q-23 0 -48.5 -17.5t-30.5 -44.5
q-2 -11 -2 -20t2 -17z" />
    <glyph glyph-name="z" unicode="z" horiz-adv-x="481" 
d="M40 88q-5 -6 -11.5 -16.5t-8.5 -22.5q-5 -25 10.5 -37t39.5 -12h335q27 0 49 16.5t27 46.5t-11 46.5t-43 16.5h-190l283 318q11 11 16 20t7 23q3 15 -1 23.5t-11 13.5t-14.5 6.5t-12.5 1.5h-327q-27 0 -49 -16.5t-27 -46.5t11 -46.5t43 -16.5h167z" />
    <glyph glyph-name="braceleft" unicode="{" horiz-adv-x="333" 
d="M82 -23q-12 -69 16 -100t94 -31h62q20 0 34 11t19 34q4 23 -6.5 34t-30.5 11h-25q-21 0 -30 13.5t-4 44.5l33 189q6 34 -2.5 53.5t-23.5 30t-33 13.5t-31 4v2q14 1 33 4t37.5 13.5t34 30t21.5 53.5l34 189q5 31 19 44.5t35 13.5h25q20 0 34 11t19 34q4 23 -6.5 34
t-30.5 11h-62q-66 0 -105 -31t-51 -100l-35 -194q-4 -22 -10 -35.5t-14 -20t-17 -8.5t-18 -2q-25 0 -39.5 -15t-17.5 -33t6 -33t34 -15q9 0 17.5 -2t14 -8.5t7 -19.5t-2.5 -36z" />
    <glyph glyph-name="bar" unicode="|" horiz-adv-x="222" 
d="M296 710q5 27 -8 43.5t-41 16.5t-47 -16.5t-24 -43.5l-117 -662q-5 -27 8.5 -43.5t41.5 -16.5t46.5 16.5t23.5 43.5z" />
    <glyph glyph-name="braceright" unicode="}" horiz-adv-x="333" 
d="M352 593q12 69 -16 100t-94 31h-62q-20 0 -34.5 -11t-18.5 -34q-5 -23 6 -34t31 -11h25q21 0 30 -13.5t4 -44.5l-34 -189q-6 -34 2.5 -53.5t23.5 -30t33 -13.5t31 -4v-2q-13 -1 -32 -4t-38 -13.5t-34.5 -30t-21.5 -53.5l-33 -189q-5 -31 -19 -44.5t-35 -13.5h-25
q-20 0 -34.5 -11t-18.5 -34q-5 -23 6 -34t31 -11h62q66 0 105 31t51 100l34 194q4 23 10.5 36t14.5 19.5t17 8.5t18 2q25 0 39 15t17 33t-5.5 33t-33.5 15q-9 0 -17.5 2t-14 8.5t-7.5 20t2 35.5z" />
    <glyph glyph-name="asciitilde" unicode="~" horiz-adv-x="600" 
d="M454 279q-19 0 -42.5 10.5t-49 23.5t-53 23.5t-55.5 10.5q-36 0 -66.5 -12t-53 -31t-37 -42.5t-18.5 -46.5q-3 -18 3.5 -33.5t30.5 -15.5q16 0 29 9.5t27 21t29.5 21t36.5 9.5q19 0 42.5 -10.5t49 -23.5t53 -23.5t55.5 -10.5q36 0 66.5 12t53.5 31t37 42.5t18 46.5
q4 18 -3 33.5t-31 15.5q-16 0 -29 -9.5t-27 -21t-29.5 -21t-36.5 -9.5z" />
    <glyph glyph-name="Adieresis" unicode="&#xc4;" horiz-adv-x="630" 
d="M26 97l-6.5 -12.5t-6.5 -20.5q-5 -30 13.5 -50t48.5 -20q31 0 50.5 15t30.5 38l47 93h278l13 -94q3 -23 17.5 -37.5t46.5 -14.5q28 0 52 18.5t29 47.5q1 5 0.5 15t-2.5 22l-100 544q-7 36 -29.5 59.5t-62.5 23.5q-38 0 -70.5 -24t-51.5 -59zM416 568h2l42 -290h-190z
M501 837q-5 -30 12 -51t47 -21t55 21t30 51t-12.5 51t-47.5 21t-54.5 -21t-29.5 -51zM281 837q-5 -30 12 -51t47 -21t55 21t30 51t-12.5 51t-47.5 21t-54.5 -21t-29.5 -51z" />
    <glyph glyph-name="onesuperior" unicode="&#xb9;" horiz-adv-x="630" 
d="M26 97l-6.5 -12.5t-6.5 -20.5q-5 -30 13.5 -50t48.5 -20q31 0 50.5 15t30.5 38l47 93h278l13 -94q3 -23 17.5 -37.5t46.5 -14.5q28 0 52 18.5t29 47.5q1 5 0.5 15t-2.5 22l-100 544q-7 36 -29.5 59.5t-62.5 23.5q-38 0 -70.5 -24t-51.5 -59zM416 568h2l42 -290h-190z
M364 840q-4 -21 0.5 -39t16 -31.5t28 -21t37.5 -7.5t40 7.5t35 21t26.5 31.5t14.5 39t-0.5 39t-15.5 31.5t-27.5 21t-37.5 7.5t-40.5 -7.5t-35 -21t-26.5 -31.5t-15 -39zM418 840q4 19 19 32t34 13t30 -13t7 -32q-3 -19 -18.5 -32t-34.5 -13t-29.5 13t-7.5 32z" />
    <glyph glyph-name="twosuperior" unicode="&#xb2;" horiz-adv-x="611" 
d="M80 356q-14 -78 -0.5 -145t50 -116.5t95 -78t134.5 -28.5q28 0 67.5 5t77 18t66.5 36t35 59q2 9 0 20.5t-8.5 22t-17.5 18t-28 7.5q-15 0 -31.5 -6.5l-36 -14.5t-43.5 -14.5t-56 -6.5q-46 0 -78 18t-50.5 48t-23.5 70t3 85q8 46 27.5 87t48.5 72t67.5 49.5t84.5 18.5
q32 0 53 -5.5t36.5 -12l29 -12t28.5 -5.5q28 0 48.5 20t25.5 47q6 33 -13.5 54.5t-51 34.5t-67.5 18t-63 5q-76 0 -144.5 -28t-123 -77.5t-91 -117t-50.5 -145.5zM322 0l-30 -33q-3 -3 -7.5 -8.5l-9 -11.5t-8 -11.5t-4.5 -8.5q-3 -17 7 -19.5t23 -3.5q13 0 23 -4t6 -24
q-3 -18 -13.5 -23.5t-24.5 -4.5t-26 5.5t-20 4.5q-11 0 -19 -7.5t-10 -18.5q-3 -17 5.5 -26.5t22 -15t28.5 -7t26 -1.5q18 0 39 5.5t39 17t31.5 29.5t17.5 42q7 36 -11 56t-50 20q-5 0 -11.5 -1.5t-11.5 -1.5l48 51h-60z" />
    <glyph glyph-name="Eacute" unicode="&#xc9;" horiz-adv-x="463" 
d="M58 75q-6 -34 12.5 -54.5t51.5 -20.5h258q35 0 56.5 21.5t26.5 47.5t-9 47.5t-50 21.5h-185l27 152h164q36 0 58 21.5t27 47.5t-9.5 47.5t-51.5 21.5h-164l26 146h176q35 0 56.5 21.5t26.5 47.5t-8.5 47.5t-49.5 21.5h-248q-40 0 -63.5 -24.5t-30.5 -62.5zM300 877l-9 -4
q-14 -7 -23.5 -18t-11.5 -22q-2 -13 -0.5 -26t7 -23.5t14 -17t19.5 -6.5h11t6 1t8 3t17 6l120 44q44 17 51 59q2 10 -0.5 21t-8 20t-14.5 15t-20 6q-8 0 -18 -2.5t-22 -7.5z" />
    <glyph glyph-name="threesuperior" unicode="&#xb3;" horiz-adv-x="685" 
d="M52 72q-7 -38 11 -58t50 -20t57 20t32 58l65 373h2l244 -418q8 -14 25.5 -23.5t31.5 -9.5q32 0 57 20t32 58l100 568q7 38 -11 58t-50 20t-57 -20t-32 -58l-67 -378h-2l-242 423q-8 14 -25.5 23.5t-31.5 9.5q-32 0 -57 -20t-32 -58zM362 767q13 0 23 4t18.5 9t17 9
t17.5 4t22 -4l28 -8.5t30.5 -8.5t27.5 -4q18 0 36.5 6.5t34.5 18t28 27.5t15 35q4 21 -5 38.5t-32 17.5q-10 0 -21.5 -4.5t-22.5 -10t-21 -10t-18 -4.5q-9 0 -20.5 4l-25 8.5t-29.5 8.5t-33 4q-39 0 -71 -23t-40 -65q-3 -19 9.5 -35.5t31.5 -16.5z" />
    <glyph glyph-name="Odieresis" unicode="&#xd6;" horiz-adv-x="722" 
d="M383 126q-48 0 -80 19t-49.5 50.5t-21.5 73t4 87.5q8 45 27 87t48 73.5t67.5 50.5t85.5 19t79 -19t50 -50.5t22.5 -73.5t-3.5 -87q-8 -46 -27 -87.5t-48 -73t-67.5 -50.5t-86.5 -19zM359 -12q77 0 145.5 28.5t122.5 78t90.5 116.5t50.5 145q14 76 0 143t-50.5 117t-95 79
t-133.5 29q-76 0 -144.5 -28t-123 -77.5t-91 -117t-50.5 -145.5t-0.5 -145t50 -116.5t95 -78t134.5 -28.5zM547 837q-5 -30 12 -51t47 -21t55 21t30 51t-12.5 51t-47.5 21t-54.5 -21t-29.5 -51zM327 837q-5 -30 12 -51t47 -21t55 21t30 51t-12.5 51t-47.5 21t-54.5 -21
t-29.5 -51z" />
    <glyph glyph-name="Udieresis" unicode="&#xdc;" horiz-adv-x="685" 
d="M89 283q-11 -64 3.5 -118t49 -93.5t85.5 -61.5t114 -22q62 0 121 22.5t107 62t82 93.5t45 117l63 357q7 38 -11 58t-50 20t-57 -20t-32 -58l-62 -349q-6 -33 -22 -63t-40.5 -52.5t-55 -36t-64.5 -13.5q-36 0 -62 13t-42 35t-21.5 52.5t0.5 64.5l62 349q7 38 -11 58
t-50 20t-57 -20t-32 -58zM529 837q-5 -30 12 -51t47 -21t55 21t30 51t-12.5 51t-47.5 21t-54.5 -21t-29.5 -51zM309 837q-5 -30 12 -51t47 -21t55 21t30 51t-12.5 51t-47.5 21t-54.5 -21t-29.5 -51z" />
    <glyph glyph-name="dieresistonos" unicode="&#x385;" horiz-adv-x="222" 
d="M353 675q-5 -30 12 -51t47 -21t55 21t30 51t-12 51t-47 21t-55 -21t-30 -51zM-29 675q-5 -30 12.5 -51t47.5 -21t54.5 21t29.5 51t-12 51t-47 21t-55 -21t-30 -51zM146 686l-8 -5q-13 -10 -19.5 -22.5t-5.5 -23.5q2 -26 19 -44.5t40 -13.5q8 2 11 3t5.5 2.5l7.5 4.5l15 9
l111 70q40 25 37 67q-1 10 -6 19.5t-13 16.5t-18.5 10.5t-21.5 0.5q-8 -2 -17.5 -6.5t-20.5 -12.5z" />
    <glyph glyph-name="agrave" unicode="&#xe0;" horiz-adv-x="574" 
d="M611 444q3 14 4.5 30.5t-2 30.5t-16 23.5t-38.5 9.5t-49 -17t-31 -43q-18 34 -51.5 50t-73.5 16q-49 0 -96.5 -21.5t-86 -59t-66 -88.5t-38.5 -110q-11 -61 -1.5 -111.5t35 -87.5t65 -57.5t90.5 -20.5q80 0 149 67q2 -29 14 -45t44 -16q26 0 41.5 9.5t24.5 23.5t13 30.5
t7 30.5zM211 265q5 26 16 52t29 47t41.5 34.5t53.5 13.5q29 0 47.5 -13.5t28 -34.5t12 -47t-2.5 -52q-4 -26 -15.5 -52t-29 -46.5t-41 -33.5t-51.5 -13q-29 0 -48 13t-29.5 33.5t-12.5 46.5t2 52zM472 686l6 -5q9 -10 11.5 -22.5t-2.5 -23.5q-5 -13 -14 -24.5t-20 -20
t-22.5 -12.5t-22.5 -1q-7 2 -10 3t-5 2.5l-6 4.5l-12 9l-86 70q-31 25 -13 67q4 10 12.5 19.5t19 16.5t22.5 10.5t22 0.5q8 -2 15 -6.5t16 -12.5z" />
    <glyph glyph-name="acircumflex" unicode="&#xe2;" horiz-adv-x="574" 
d="M611 444q3 14 4.5 30.5t-2 30.5t-16 23.5t-38.5 9.5t-49 -17t-31 -43q-18 34 -51.5 50t-73.5 16q-49 0 -96.5 -21.5t-86 -59t-66 -88.5t-38.5 -110q-11 -61 -1.5 -111.5t35 -87.5t65 -57.5t90.5 -20.5q80 0 149 67q2 -29 14 -45t44 -16q26 0 41.5 9.5t24.5 23.5t13 30.5
t7 30.5zM211 265q5 26 16 52t29 47t41.5 34.5t53.5 13.5q29 0 47.5 -13.5t28 -34.5t12 -47t-2.5 -52q-4 -26 -15.5 -52t-29 -46.5t-41 -33.5t-51.5 -13q-29 0 -48 13t-29.5 33.5t-12.5 46.5t2 52zM308 721q-23 -9 -37.5 -23t-19.5 -38q-4 -24 11 -44t39 -20q9 0 24.5 6
l30.5 12l42 17l36 -17l27 -12t22 -6q12 0 24 5.5t22 14.5t17 20.5t9 23.5q5 24 -5 38t-30 23l-98 43z" />
    <glyph glyph-name="adieresis" unicode="&#xe4;" horiz-adv-x="222" 
d="M154 686l-8 -5q-13 -10 -19.5 -22.5t-5.5 -23.5q2 -26 19 -44.5t40 -13.5q8 2 11 3t5.5 2.5l7.5 4.5l15 9l111 70q40 25 37 67q-1 10 -6 19.5t-13 16.5t-18.5 10.5t-21.5 0.5q-8 -2 -17.5 -6.5t-20.5 -12.5z" />
    <glyph glyph-name="tonos" unicode="&#x384;" horiz-adv-x="222" 
d="M268 675q-5 -30 12 -51t47 -21t55 21t30 51t-12 51t-47 21t-55 -21t-30 -51zM48 675q-5 -30 12 -51t47 -21t55 21t30 51t-12 51t-47 21t-55 -21t-30 -51z" />
    <glyph glyph-name="dieresis" unicode="&#xa8;" horiz-adv-x="574" 
d="M611 444q3 14 4.5 30.5t-2 30.5t-16 23.5t-38.5 9.5t-49 -17t-31 -43q-18 34 -51.5 50t-73.5 16q-49 0 -96.5 -21.5t-86 -59t-66 -88.5t-38.5 -110q-11 -61 -1.5 -111.5t35 -87.5t65 -57.5t90.5 -20.5q80 0 149 67q2 -29 14 -45t44 -16q26 0 41.5 9.5t24.5 23.5t13 30.5
t7 30.5zM211 265q5 26 16 52t29 47t41.5 34.5t53.5 13.5q29 0 47.5 -13.5t28 -34.5t12 -47t-2.5 -52q-4 -26 -15.5 -52t-29 -46.5t-41 -33.5t-51.5 -13q-29 0 -48 13t-29.5 33.5t-12.5 46.5t2 52zM308 678q-4 -21 0.5 -39t15.5 -31.5t27.5 -21t37.5 -7.5t40.5 7.5t35 21
t26.5 31.5t15 39q7 42 -16.5 70.5t-65.5 28.5q-21 0 -40 -7.5t-35 -21t-27 -31.5t-14 -39zM362 678q3 19 18 32t34 13t30 -13t8 -32q-4 -19 -19 -32t-34 -13t-30 13t-7 32z" />
    <glyph glyph-name="ccedilla" unicode="&#xe7;" horiz-adv-x="463" 
d="M534 453q5 26 -11.5 43.5t-42.5 28t-55.5 15t-50.5 4.5q-57 0 -108.5 -23t-92.5 -61.5t-69 -89t-37 -105.5q-10 -56 -0.5 -106.5t36.5 -88.5t71 -60t102 -22q20 0 50.5 5t60.5 16.5t53.5 30.5t28.5 47q5 26 -10 44.5t-41 18.5q-6 0 -19.5 -4.5t-29.5 -10.5t-32.5 -10.5
t-30.5 -4.5q-29 0 -49.5 12.5t-32 33t-15 46.5t1.5 53q5 28 17 54.5t30.5 47t43.5 33t56 12.5q17 0 31.5 -4.5t27 -9.5t25 -9.5t25.5 -4.5t24 6.5t20 16.5t15 22.5t8 23.5zM248 0l-30 -33q-3 -3 -7.5 -8.5l-9 -11.5t-8 -11.5t-4.5 -8.5q-3 -17 7 -19.5t23 -3.5q13 0 23 -4
t6 -24q-3 -18 -13.5 -23.5t-24.5 -4.5t-26 5.5t-20 4.5q-11 0 -19 -7.5t-10 -18.5q-3 -17 5.5 -26.5t22 -15t28.5 -7t26 -1.5q18 0 39 5.5t39 17t31.5 29.5t17.5 42q7 36 -11 56t-50 20q-5 0 -11.5 -1.5t-11.5 -1.5l48 51h-60z" />
    <glyph glyph-name="eacute" unicode="&#xe9;" horiz-adv-x="537" 
d="M502 218q33 0 51 16t24 48q8 45 -2.5 91.5t-37.5 84.5t-70.5 62t-102.5 24q-57 0 -108.5 -23t-92.5 -61.5t-69 -89t-37 -105.5q-10 -60 0 -110.5t39 -87.5t75 -58t107 -21q40 0 83.5 10.5t80.5 27.5t62.5 39t29.5 45q2 12 -0.5 23t-9.5 19.5t-16.5 14t-21.5 5.5
q-14 0 -32.5 -9l-40.5 -20t-47 -20t-53 -9q-25 0 -47 6.5t-38 19t-25 32t-8 46.5h307zM209 314q7 23 19.5 43t30 35t39 23.5t45.5 8.5q51 0 74 -31t21 -79h-229zM323 686l-7 -5q-13 -10 -20 -22.5t-6 -23.5q2 -26 19 -44.5t40 -13.5q8 2 11 3t6 2.5t8 4.5l15 9l110 70
q40 25 37 67q-1 10 -6 19.5t-13 16.5t-18 10.5t-22 0.5q-8 -2 -17.5 -6.5t-20.5 -12.5z" />
    <glyph glyph-name="egrave" unicode="&#xe8;" horiz-adv-x="537" 
d="M502 218q33 0 51 16t24 48q8 45 -2.5 91.5t-37.5 84.5t-70.5 62t-102.5 24q-57 0 -108.5 -23t-92.5 -61.5t-69 -89t-37 -105.5q-10 -60 0 -110.5t39 -87.5t75 -58t107 -21q40 0 83.5 10.5t80.5 27.5t62.5 39t29.5 45q2 12 -0.5 23t-9.5 19.5t-16.5 14t-21.5 5.5
q-14 0 -32.5 -9l-40.5 -20t-47 -20t-53 -9q-25 0 -47 6.5t-38 19t-25 32t-8 46.5h307zM209 314q7 23 19.5 43t30 35t39 23.5t45.5 8.5q51 0 74 -31t21 -79h-229zM468 686l6 -5q9 -10 11.5 -22.5t-2.5 -23.5q-5 -13 -14 -24.5t-20 -20t-22.5 -12.5t-22.5 -1q-7 2 -10 3
t-5 2.5l-6 4.5l-12 9l-86 70q-31 25 -13 67q4 10 12.5 19.5t19 16.5t22.5 10.5t22 0.5q8 -2 15 -6.5t16 -12.5z" />
    <glyph glyph-name="ecircumflex" unicode="&#xea;" horiz-adv-x="537" 
d="M502 218q33 0 51 16t24 48q8 45 -2.5 91.5t-37.5 84.5t-70.5 62t-102.5 24q-57 0 -108.5 -23t-92.5 -61.5t-69 -89t-37 -105.5q-10 -60 0 -110.5t39 -87.5t75 -58t107 -21q40 0 83.5 10.5t80.5 27.5t62.5 39t29.5 45q2 12 -0.5 23t-9.5 19.5t-16.5 14t-21.5 5.5
q-14 0 -32.5 -9l-40.5 -20t-47 -20t-53 -9q-25 0 -47 6.5t-38 19t-25 32t-8 46.5h307zM209 314q7 23 19.5 43t30 35t39 23.5t45.5 8.5q51 0 74 -31t21 -79h-229zM290 721q-23 -9 -37.5 -23t-19.5 -38q-4 -24 11 -44t39 -20q9 0 24.5 6l30.5 12l42 17l36 -17l27 -12t22 -6
q12 0 24 5.5t22 14.5t17 20.5t9 23.5q5 24 -5 38t-30 23l-98 43z" />
    <glyph glyph-name="edieresis" unicode="&#xeb;" horiz-adv-x="537" 
d="M502 218q33 0 51 16t24 48q8 45 -2.5 91.5t-37.5 84.5t-70.5 62t-102.5 24q-57 0 -108.5 -23t-92.5 -61.5t-69 -89t-37 -105.5q-10 -60 0 -110.5t39 -87.5t75 -58t107 -21q40 0 83.5 10.5t80.5 27.5t62.5 39t29.5 45q2 12 -0.5 23t-9.5 19.5t-16.5 14t-21.5 5.5
q-14 0 -32.5 -9l-40.5 -20t-47 -20t-53 -9q-25 0 -47 6.5t-38 19t-25 32t-8 46.5h307zM209 314q7 23 19.5 43t30 35t39 23.5t45.5 8.5q51 0 74 -31t21 -79h-229zM426 675q-5 -30 12 -51t47 -21t55 21t30 51t-12 51t-47 21t-55 -21t-30 -51zM206 675q-5 -30 12 -51t47 -21
t55 21t30 51t-12 51t-47 21t-55 -21t-30 -51z" />
    <glyph glyph-name="sterling" unicode="&#xa3;" horiz-adv-x="611" 
d="M348 424l-11 26q-9 23 -3 53q7 38 39 57.5t70 19.5q39 0 58 -16.5t31 -36t24.5 -36t37.5 -16.5q34 0 59.5 20.5t31.5 55.5q7 37 -7.5 68.5t-44.5 55t-73.5 36.5t-96.5 13q-51 0 -99.5 -13.5t-87.5 -39t-65.5 -61t-34.5 -80.5q-1 -10 -1.5 -24.5t0.5 -29.5t3.5 -29
t5.5 -23h-21q-32 0 -55.5 -18.5t-28.5 -50.5q-6 -32 10.5 -50.5t48.5 -18.5h52q-8 -46 -27 -79t-39.5 -56.5t-37 -40.5t-19.5 -32q-7 -36 10 -57t54 -21h392q32 0 55.5 18.5t28.5 50.5q6 32 -11 50.5t-49 18.5h-278q30 33 50 70t27 78h129q32 0 55.5 18.5t29.5 50.5
q5 32 -11.5 50.5t-48.5 18.5h-152z" />
    <glyph glyph-name="trademark" unicode="&#x2122;" horiz-adv-x="1000" 
d="M229 360q-5 -27 8.5 -43.5t41.5 -16.5t46.5 16.5t23.5 43.5l47 262h79q20 0 34 11t19 34q4 23 -6.5 34t-30.5 11h-278q-20 0 -34.5 -11t-18.5 -34q-5 -23 6 -34t31 -11h79zM531 360q-5 -27 3.5 -43.5t40.5 -16.5t45.5 16.5t18.5 43.5l37 208h2l35 -208q2 -13 5 -24
t8.5 -19t15 -12.5t24.5 -4.5q31 0 45.5 17t27.5 43l109 208h2l-37 -208q-5 -27 3.5 -43.5t40.5 -16.5t45.5 16.5t18.5 43.5l53 296q5 26 -10.5 44t-63.5 18q-14 0 -27 -1.5t-25 -8t-24 -19t-24 -33.5l-103 -182l-39 182q-5 21 -12.5 33.5t-17.5 19t-22 8t-26 1.5
q-48 0 -69.5 -18t-26.5 -44z" />
    <glyph glyph-name="icircumflex" unicode="&#xee;" horiz-adv-x="222" 
d="M52 74q-6 -36 10 -58t48 -22t56 22t30 58l68 384q6 36 -10 58t-48 22t-56 -22t-30 -58zM132 721q-23 -9 -37.5 -23t-19.5 -38q-4 -24 11 -44t39 -20q9 0 24.5 6l30.5 12l42 17l36 -17l27 -12t22 -6q12 0 24 5.5t22 14.5t17 20.5t9 23.5q5 24 -5 38t-30 23l-98 43z" />
    <glyph glyph-name="idieresis" unicode="&#xef;" horiz-adv-x="222" 
d="M52 74q-6 -36 10 -58t48 -22t56 22t30 58l68 384q6 36 -10 58t-48 22t-56 -22t-30 -58zM268 675q-5 -30 12 -51t47 -21t55 21t30 51t-12 51t-47 21t-55 -21t-30 -51zM48 675q-5 -30 12 -51t47 -21t55 21t30 51t-12 51t-47 21t-55 -21t-30 -51z" />
    <glyph glyph-name="bullet" unicode="&#x2022;" horiz-adv-x="500" 
d="M135 356q-7 -37 1.5 -69.5t28 -56.5t49.5 -38t67 -14t72 14t63.5 38t48 56.5t26.5 69.5q6 37 -2 69.5t-28 56.5t-50 38t-67 14t-71.5 -14t-63 -38t-48.5 -56.5t-26 -69.5z" />
    <glyph glyph-name="onehalf" unicode="&#xbd;" horiz-adv-x="847" 
d="M175 74q-5 -6 -9.5 -16t-6.5 -21t1.5 -21t10 -17.5t16 -12t19.5 -4.5q18 0 27.5 8.5t23.5 24.5l447 629q8 11 9.5 17.5t3.5 12.5q4 23 -11 39.5t-38 16.5q-17 0 -27.5 -6.5t-24.5 -25.5zM784 0q18 0 31.5 10.5t18.5 38.5q4 22 -8 37.5t-30 15.5h-99q14 15 40 37.5
t52.5 49.5t48.5 57.5t28 63.5q5 29 -2.5 51.5t-24 38.5t-41.5 24.5t-55 8.5q-37 0 -67.5 -13t-53.5 -32t-36.5 -40t-16.5 -38q-5 -26 4.5 -41t32.5 -15q24 0 34.5 14t19.5 30.5t21.5 30.5t41.5 14q20 0 31.5 -9.5t8.5 -28.5q-3 -16 -12.5 -29.5t-20.5 -25.5
q-45 -49 -94.5 -92l-98.5 -88q-6 -5 -12 -13t-8 -17q-4 -21 8.5 -30.5t31.5 -9.5h227zM172 329q-4 -20 8 -32t35 -12q24 0 40 13t19 31l61 347q3 18 -5.5 30t-29.5 12h-93q-20 0 -34.5 -13.5t-18.5 -36.5q-5 -23 3.5 -37.5t31.5 -14.5h34z" />
    <glyph glyph-name="perthousand" unicode="&#x2030;" horiz-adv-x="1074" 
d="M887 -12q33 0 63.5 13t55 35t41 51t22.5 62t-0.5 62t-23 51.5t-42.5 35.5t-59 13t-63.5 -13t-55 -35.5t-41.5 -51.5t-23 -62t0.5 -62t23.5 -51t43 -35t59 -13zM905 90q-25 0 -35.5 17.5t-6.5 41.5q5 24 21.5 42t41.5 18t35.5 -18t5.5 -42q-4 -24 -20.5 -41.5t-41.5 -17.5
zM274 503q-25 0 -36 17.5t-6 41.5t21.5 42t41.5 18t35.5 -18t5.5 -42t-21 -41.5t-41 -17.5zM162 74q-5 -6 -9.5 -16t-6.5 -21t1.5 -21t10 -17.5t16 -12t19.5 -4.5q18 0 27.5 8.5t23.5 24.5l447 629q8 11 9.5 17.5t3.5 12.5q4 23 -11 39.5t-38 16.5q-17 0 -27.5 -6.5
t-24.5 -25.5zM256 401q33 0 63.5 13t55 35t41 51t22.5 62t-0.5 62t-23 51.5t-42.5 35.5t-59 13t-64 -13t-55.5 -35.5t-41 -51.5t-22.5 -62t0.5 -62t23.5 -51t43 -35t59 -13zM535 -12q33 0 63.5 13t55 35t41 51t22.5 62t-0.5 62t-23 51.5t-42.5 35.5t-59 13t-63.5 -13
t-55 -35.5t-41.5 -51.5t-23 -62t0.5 -62t23.5 -51t43 -35t59 -13zM553 90q-25 0 -35.5 17.5t-6.5 41.5q5 24 21.5 42t41.5 18t35.5 -18t5.5 -42q-4 -24 -20.5 -41.5t-41.5 -17.5z" />
    <glyph glyph-name="ocircumflex" unicode="&#xf4;" 
d="M374 544q-57 0 -108.5 -23t-92.5 -61.5t-69 -89t-37 -105.5q-10 -56 -0.5 -106.5t36.5 -88.5t71 -60t102 -22t109.5 22t92 60t68 88.5t37.5 106.5q9 55 -1 105.5t-37 89t-70.5 61.5t-100.5 23zM351 412q30 0 49 -13.5t29 -34.5t12.5 -47t-2.5 -52q-4 -26 -15.5 -52
t-29.5 -46.5t-42 -33.5t-53 -13t-48 13t-29.5 33.5t-12.5 46.5t2 52q5 26 16 52t29 47t41.5 34.5t53.5 13.5zM299 721q-23 -9 -37.5 -23t-19.5 -38q-4 -24 11 -44t39 -20q9 0 24.5 6l30.5 12l42 17l36 -17l27 -12t22 -6q12 0 24 5.5t22 14.5t17 20.5t9 23.5q5 24 -5 38
t-30 23l-98 43z" />
    <glyph glyph-name="odieresis" unicode="&#xf6;" 
d="M374 544q-57 0 -108.5 -23t-92.5 -61.5t-69 -89t-37 -105.5q-10 -56 -0.5 -106.5t36.5 -88.5t71 -60t102 -22t109.5 22t92 60t68 88.5t37.5 106.5q9 55 -1 105.5t-37 89t-70.5 61.5t-100.5 23zM351 412q30 0 49 -13.5t29 -34.5t12.5 -47t-2.5 -52q-4 -26 -15.5 -52
t-29.5 -46.5t-42 -33.5t-53 -13t-48 13t-29.5 33.5t-12.5 46.5t2 52q5 26 16 52t29 47t41.5 34.5t53.5 13.5zM435 675q-5 -30 12 -51t47 -21t55 21t30 51t-12 51t-47 21t-55 -21t-30 -51zM215 675q-5 -30 12 -51t47 -21t55 21t30 51t-12 51t-47 21t-55 -21t-30 -51z" />
    <glyph glyph-name="brokenbar" unicode="&#xa6;" 
d="M374 544q-57 0 -108.5 -23t-92.5 -61.5t-69 -89t-37 -105.5q-10 -56 -0.5 -106.5t36.5 -88.5t71 -60t102 -22t109.5 22t92 60t68 88.5t37.5 106.5q9 55 -1 105.5t-37 89t-70.5 61.5t-100.5 23zM351 412q30 0 49 -13.5t29 -34.5t12.5 -47t-2.5 -52q-4 -26 -15.5 -52
t-29.5 -46.5t-42 -33.5t-53 -13t-48 13t-29.5 33.5t-12.5 46.5t2 52q5 26 16 52t29 47t41.5 34.5t53.5 13.5zM269 605q13 0 22.5 4t18 9t17 9t17.5 4t22.5 -4l28.5 -8.5t30.5 -8.5t27.5 -4q18 0 36.5 6.5t34.5 18t27.5 27.5t14.5 35q4 21 -5 38.5t-32 17.5q-10 0 -21.5 -4.5
t-22.5 -10t-21 -10t-18 -4.5q-9 0 -20.5 4l-25 8.5t-29.5 8.5t-33 4q-39 0 -70.5 -23t-39.5 -65q-4 -19 9 -35.5t32 -16.5z" />
    <glyph glyph-name="Euro" unicode="&#x20ac;" horiz-adv-x="654" 
d="M523 469h-221q32 50 80 80.5t109 30.5q32 0 52.5 -5.5t36.5 -12l29 -12t28 -5.5q28 0 49 20t27 47q7 33 -11.5 54.5t-49.5 34.5t-67 18t-63 5q-62 0 -119.5 -18.5t-107 -52.5t-90 -81t-67.5 -103h-53q-19 0 -36 -11.5t-21 -30.5q-5 -19 7.5 -30.5t31.5 -11.5h40
l-3.5 -14.5l-3.5 -14.5q-2 -10 -3.5 -19.5t-3.5 -19.5h-41q-19 0 -35.5 -11.5t-21.5 -30.5q-4 -19 8 -30.5t31 -11.5h57q5 -54 26 -99t56 -77.5t83.5 -50.5t108.5 -18q28 0 67.5 5t77.5 18t68 36t37 59q2 9 0.5 20.5t-7.5 22t-16.5 18t-27.5 7.5q-15 0 -31.5 -6.5
l-36.5 -14.5t-44 -14.5t-56 -6.5q-59 0 -93.5 28t-47.5 73h217q19 0 36 11.5t21 30.5q5 19 -7.5 30.5t-31.5 11.5h-241q2 9 3 18t3 18l4 16l4 16h242q19 0 35.5 11.5t21.5 30.5q4 19 -8 30.5t-31 11.5z" />
    <glyph glyph-name="ugrave" unicode="&#xf9;" 
d="M76 198q-17 -97 34 -153.5t166 -56.5t186 56.5t88 153.5l46 260q6 36 -10 58t-48 22t-56 -22t-30 -58l-46 -257q-4 -22 -14.5 -39.5t-25.5 -29.5t-33 -18t-36 -6q-36 0 -60 24t-17 69l46 257q6 36 -10 58t-48 22t-56 -22t-30 -58zM452 686l6 -5q9 -10 11.5 -22.5
t-2.5 -23.5q-5 -13 -14 -24.5t-20 -20t-22.5 -12.5t-22.5 -1q-7 2 -10 3t-5 2.5l-6 4.5l-12 9l-86 70q-31 25 -13 67q4 10 12.5 19.5t19 16.5t22.5 10.5t22 0.5q8 -2 15 -6.5t16 -12.5z" />
    <glyph glyph-name="ucircumflex" unicode="&#xfb;" 
d="M76 198q-17 -97 34 -153.5t166 -56.5t186 56.5t88 153.5l46 260q6 36 -10 58t-48 22t-56 -22t-30 -58l-46 -257q-4 -22 -14.5 -39.5t-25.5 -29.5t-33 -18t-36 -6q-36 0 -60 24t-17 69l46 257q6 36 -10 58t-48 22t-56 -22t-30 -58zM299 721q-23 -9 -37.5 -23t-19.5 -38
q-4 -24 11 -44t39 -20q9 0 24.5 6l30.5 12l42 17l36 -17l27 -12t22 -6q12 0 24 5.5t22 14.5t17 20.5t9 23.5q5 24 -5 38t-30 23l-98 43z" />
    <glyph glyph-name="udieresis" unicode="&#xfc;" 
d="M76 198q-17 -97 34 -153.5t166 -56.5t186 56.5t88 153.5l46 260q6 36 -10 58t-48 22t-56 -22t-30 -58l-46 -257q-4 -22 -14.5 -39.5t-25.5 -29.5t-33 -18t-36 -6q-36 0 -60 24t-17 69l46 257q6 36 -10 58t-48 22t-56 -22t-30 -58zM435 675q-5 -30 12 -51t47 -21t55 21
t30 51t-12 51t-47 21t-55 -21t-30 -51zM215 675q-5 -30 12 -51t47 -21t55 21t30 51t-12 51t-47 21t-55 -21t-30 -51z" />
    <glyph glyph-name="dagger" unicode="&#x2020;" horiz-adv-x="630" 
d="M220 -149q-6 -33 9.5 -51t47.5 -18t53.5 18t27.5 51l92 525h164q26 0 44.5 16.5t23.5 46.5t-7 46.5t-38 16.5h-164l26 153q6 33 -9 51t-47 18t-54 -18t-28 -51l-26 -153h-164q-26 0 -45 -16.5t-24 -46.5t7.5 -46.5t38.5 -16.5h164z" />
    <glyph glyph-name="Gamma" unicode="&#x393;" horiz-adv-x="444" 
d="M208 72l88 502h184q34 0 54 21.5t25 47.5t-8 47.5t-46 21.5h-256q-38 0 -62.5 -23.5t-29.5 -54.5l-99 -562q-7 -38 11 -58t50 -20t57 20t32 58z" />
    <glyph glyph-name="Delta" unicode="&#x394;" horiz-adv-x="630" 
d="M26 97l-6.5 -12.5t-6.5 -20.5q-5 -30 13.5 -50t48.5 -20h483q28 0 52 18.5t29 47.5q1 5 0.5 15t-2.5 22l-100 544q-7 36 -29.5 59.5t-62.5 23.5q-38 0 -70.5 -24t-51.5 -59zM416 568h2l61 -433h-280z" />
    <glyph glyph-name="Theta" unicode="&#x398;" horiz-adv-x="722" 
d="M768 356q14 76 0 143t-50.5 117t-95 79t-133.5 29q-76 0 -144.5 -28t-123 -77.5t-91 -117t-50.5 -145.5t-0.5 -145t50 -116.5t95 -78t134.5 -28.5q77 0 145.5 28.5t122.5 78t90.5 116.5t50.5 145zM256 428q14 33 34.5 62t46.5 50.5t58 33.5t69 12q38 0 65.5 -12
t46.5 -33.5t29 -50.5t12 -62h-361zM594 290q-13 -34 -33 -64t-46.5 -52.5t-59.5 -35t-72 -12.5t-67 12.5t-47 35t-28.5 52.5t-10.5 64h364z" />
    <glyph glyph-name="Lambda" unicode="&#x39b;" horiz-adv-x="630" 
d="M494 46l-6 42.5t-4.5 30t-6 40l-10.5 73l-19 129l-30 207.5h-2l-103 -207.5l-64.5 -129l-37 -73l-20 -40l-14.5 -30l-21 -41.5q-11 -23 -30.5 -38t-50.5 -15q-30 0 -48.5 20t-13.5 50q2 12 6.5 20.5l6.5 12.5l297 544q19 35 51.5 59t70.5 24q40 0 62.5 -23.5t29.5 -59.5
l100 -544q2 -12 2.5 -22t-0.5 -15q-5 -29 -29 -47.5t-52 -18.5q-32 0 -46.5 14.5t-17.5 37.5z" />
    <glyph glyph-name="Xi" unicode="&#x39e;" horiz-adv-x="562" 
d="M91 0h380q35 0 56.5 21.5t26.5 47.5t-9 47.5t-50 21.5h-115l27 152h94q36 0 58 21.5t27 47.5t-9.5 47.5t-51.5 21.5h-94l26 146h106q35 0 56.5 21.5t26.5 47.5t-9 47.5t-50 21.5h-361q-36 0 -57.5 -21.5t-26.5 -47.5t9.5 -47.5t49.5 -21.5h106l-26 -146h-94
q-37 0 -58.5 -21.5t-26.5 -47.5t10 -47.5t51 -21.5h94l-27 -152h-115q-36 0 -57 -21.5t-26 -47.5t9.5 -47.5t49.5 -21.5z" />
    <glyph glyph-name="Pi" unicode="&#x3a0;" horiz-adv-x="704" 
d="M58 72q-7 -38 11 -58t50 -20t57 20t32 58l89 505h314l-89 -505q-7 -38 11 -58t50 -20t57 20t32 58l100 568q7 38 -11 58t-50 20h-464q-32 0 -57 -20t-32 -58z" />
    <glyph glyph-name="germandbls" unicode="&#xdf;" 
d="M52 74q-6 -36 10 -58t48 -22t56 22t30 58l78 442q4 23 11 45t19 39t31 27.5t47 10.5q35 0 52.5 -23.5t12.5 -50.5q-5 -31 -16.5 -48t-26.5 -26t-31 -13.5t-30.5 -11t-25.5 -18.5t-15 -36q-5 -28 5.5 -41t28 -19.5t38.5 -11t37.5 -15.5t25 -33t1.5 -64q-7 -40 -36 -67.5
t-62 -34.5q-16 -3 -31 -7t-28 -10.5t-22 -18t-12 -29.5q-5 -29 11.5 -50.5t62.5 -21.5q50 0 94.5 22t79 56.5t57.5 77t30 83.5q6 32 4 63t-12.5 57.5t-30.5 46.5t-50 29q40 22 62.5 61.5t29.5 79.5q8 46 -2 84t-34 65t-61 42t-82 15q-57 0 -103.5 -19.5t-81.5 -54t-58.5 -81
t-32.5 -99.5z" />
    <glyph glyph-name="registered" unicode="&#xae;" horiz-adv-x="800" 
d="M398 316h30l42 -118q7 -18 14.5 -33t31.5 -15q48 0 54 35q2 11 -3 21l-50 116q48 2 79 29t40 81q6 35 -1.5 57.5t-25.5 36t-44.5 18.5t-56.5 5h-113q-29 0 -40 -12.5t-14 -29.5l-54 -309q-5 -24 2.5 -36t33.5 -12t38 13.5t16 34.5zM410 388l16 89h75q25 0 37.5 -9
t7.5 -36t-20.5 -35.5t-40.5 -8.5h-75zM95 356q-13 -76 4 -143t58 -117t103 -79t138 -29t148 29t131 79t100 117t54 143q14 76 -3.5 143t-58.5 117t-103 79t-138 29t-148 -29t-131 -79t-99.5 -117t-54.5 -143zM185 356q10 58 41 108.5t75 88t98.5 59.5t112.5 22t104.5 -22
t77.5 -59.5t44 -88t3 -108.5t-41 -108.5t-75 -88t-98.5 -59.5t-112.5 -22t-104.5 22t-77.5 59.5t-44 88t-3 108.5z" />
    <glyph glyph-name="copyright" unicode="&#xa9;" horiz-adv-x="800" 
d="M605 389q26 5 35 16t14 38q3 17 -5.5 37.5t-28 38.5t-49.5 30.5t-69 12.5q-46 0 -85.5 -15.5t-70.5 -43.5t-51 -65.5t-28 -81.5t-1 -81.5t28 -65.5t55 -43.5t80 -15.5q39 0 73.5 12.5t60.5 30.5t41.5 39t18.5 37q5 27 -0.5 38t-29.5 16q-28 0 -39.5 -14t-22.5 -31
q-5 -6 -11.5 -12.5t-16 -12.5t-24 -9.5t-34.5 -3.5q-45 0 -62.5 31t-7.5 85q9 54 37.5 85t73.5 31q20 0 33 -3.5t21 -9.5t12 -12.5t7 -12.5q2 -9 4.5 -17t7 -14t12.5 -10t22 -4zM95 356q-13 -76 4 -143t58 -117t103 -79t138 -29t148 29t131 79t100 117t54 143
q14 76 -3.5 143t-58.5 117t-103 79t-138 29t-148 -29t-131 -79t-99.5 -117t-54.5 -143zM185 356q10 58 41 108.5t75 88t98.5 59.5t112.5 22t104.5 -22t77.5 -59.5t44 -88t3 -108.5t-41 -108.5t-75 -88t-98.5 -59.5t-112.5 -22t-104.5 22t-77.5 59.5t-44 88t-3 108.5z" />
    <glyph glyph-name="Sigma" unicode="&#x3a3;" horiz-adv-x="593" 
d="M499 0h-394q-40 0 -58.5 20t-12.5 52q2 15 10 29.5t20 28.5l36 40l54 59.5l57 62.5l45.5 49t18.5 20q-1 1 -10.5 18.5l-25 46l-32 58l-30.5 55.5l-20 37q-7 13 -10 30t-1 34q5 26 29.5 49t67.5 23h359q28 0 49 -15.5t15 -49.5t-32.5 -49.5t-54.5 -15.5h-255l89 -165
q11 -19 12 -35t-3.5 -29.5t-13 -25t-17.5 -21.5l-165 -176h296q14 0 26.5 -4t22 -12t14 -20t1.5 -29q-6 -34 -32.5 -49.5t-54.5 -15.5z" />
    <glyph glyph-name="Iotadieresis" unicode="&#x3aa;" horiz-adv-x="240" 
d="M58 72q-7 -38 11 -58t50 -20t57 20t32 58l100 568q7 38 -11 58t-50 20t-57 -20t-32 -58zM306 837q-5 -30 12 -51t47 -21t55 21t30 51t-12.5 51t-47.5 21t-54.5 -21t-29.5 -51zM86 837q-5 -30 12 -51t47 -21t55 21t30 51t-12.5 51t-47.5 21t-54.5 -21t-29.5 -51z" />
    <glyph glyph-name="section" unicode="&#xa7;" horiz-adv-x="574" 
d="M408 724q-44 0 -86 -12.5t-76 -36.5t-57.5 -59t-31.5 -80q-7 -35 1.5 -57.5t26.5 -47.5q-51 -36 -80 -75t-39 -97q-7 -40 1.5 -69t27 -50t44 -35.5t53.5 -26.5q27 -12 53.5 -22t46.5 -22t31 -27t7 -36q-3 -14 -11.5 -24.5t-20.5 -18t-25.5 -11t-25.5 -3.5
q-30 0 -47.5 14.5t-30 32.5t-24.5 32.5t-32 14.5q-32 0 -59.5 -21t-33.5 -54q-5 -30 12.5 -57t49 -48t74 -33.5t86.5 -12.5q41 0 81.5 12.5t73.5 36t56.5 57.5t31.5 78q6 32 -1.5 55.5t-22.5 49.5q57 35 91.5 74.5t45.5 103.5q6 35 -3.5 60.5t-29 45.5t-46.5 35t-55 29
q-29 15 -57.5 25t-49.5 20.5t-33 24t-8 34.5q3 15 11 28t20 22t26.5 14t28.5 5q29 0 47 -13.5t33 -30t30 -30t37 -13.5q14 0 27 6t24 16t18.5 23t10.5 26q7 42 -14.5 70.5t-56.5 45.5t-76.5 24.5t-73.5 7.5zM258 209q-23 11 -33.5 26.5t-5.5 40.5q4 23 20 40t36 31l103 -43
q28 -12 46.5 -30t13.5 -45t-22 -43.5t-41 -29.5z" />
    <glyph glyph-name="notequal" unicode="&#x2260;" horiz-adv-x="549" 
 />
    <glyph glyph-name="degree" unicode="&#xb0;" horiz-adv-x="400" 
d="M216 563q3 17 12.5 32t23 26.5t29.5 18t33 6.5q34 0 54 -24.5t14 -58.5t-34.5 -58.5t-62.5 -24.5t-54.5 24.5t-14.5 58.5zM138 563q-6 -33 2 -62.5t26 -51.5t45 -34.5t60 -12.5t65 12.5t57.5 34.5t43 51.5t23.5 62.5t-1.5 62.5t-25.5 51.5t-45 34.5t-60 12.5t-65 -12.5
t-57.5 -34.5t-43.5 -51.5t-24 -62.5z" />
    <glyph glyph-name="periodcentered" unicode="&#xb7;" horiz-adv-x="268" 
d="M197 359q-16 0 -31.5 -6t-27.5 -16.5t-20.5 -25t-11.5 -30.5q-6 -32 13 -55t51 -23t59 22.5t33 55.5q3 16 -1 30t-13 24.5t-22 17t-29 6.5z" />
    <glyph glyph-name="periodcentered" unicode="&#x22c5;" horiz-adv-x="268" 
d="M197 359q-16 0 -31.5 -6t-27.5 -16.5t-20.5 -25t-11.5 -30.5q-6 -32 13 -55t51 -23t59 22.5t33 55.5q3 16 -1 30t-13 24.5t-22 17t-29 6.5z" />
    <glyph glyph-name="Alpha" unicode="&#x391;" horiz-adv-x="630" 
d="M26 97l-6.5 -12.5t-6.5 -20.5q-5 -30 13.5 -50t48.5 -20q31 0 50.5 15t30.5 38l47 93h278l13 -94q3 -23 17.5 -37.5t46.5 -14.5q28 0 52 18.5t29 47.5q1 5 0.5 15t-2.5 22l-100 544q-7 36 -29.5 59.5t-62.5 23.5q-38 0 -70.5 -24t-51.5 -59zM416 568h2l42 -290h-190z" />
    <glyph glyph-name="plusminus" unicode="&#xb1;" horiz-adv-x="600" 
d="M309 394h-145q-28 0 -46.5 -16.5t-23.5 -43.5t8 -43.5t41 -16.5h145l-11 -64q-5 -27 8 -43.5t41 -16.5t47 16.5t24 43.5l11 64h145q28 0 47 16.5t24 43.5t-8.5 43.5t-41.5 16.5h-145l12 64q5 27 -8.5 43.5t-41.5 16.5t-46.5 -16.5t-23.5 -43.5zM116 120
q-28 0 -46.5 -16.5t-23.5 -43.5t8 -43.5t41 -16.5h410q28 0 47 16.5t24 43.5t-8.5 43.5t-41.5 16.5h-410z" />
    <glyph glyph-name="lessequal" unicode="&#x2264;" horiz-adv-x="424" 
d="M311 -19q-3 -18 -4.5 -26l-2.5 -13.5t-2 -12t-4 -21.5q-5 -31 11 -51.5t50 -20.5q35 0 58.5 20.5t28.5 51.5l16 88q6 35 -1.5 55.5t-24 32t-40.5 16.5t-51 9q-38 6 -68 30t-33 70q-2 35 15 76t46 83.5t67.5 85.5t78 82.5t77.5 73.5l66 59q11 10 15.5 19.5t7.5 23.5
q3 15 -1 23.5t-11 13.5t-14.5 6.5t-12.5 1.5h-311q-27 0 -49 -16.5t-27 -46.5q-6 -30 10 -46.5t43 -16.5q48 0 70 -0.5t33 -0.5h18h26q-63 -52 -118 -111t-95.5 -119t-64 -117.5t-22.5 -107.5q1 -55 24 -91.5t57 -58.5t71.5 -31.5t67.5 -12.5z" />
    <glyph glyph-name="greaterequal" unicode="&#x2265;" horiz-adv-x="549" 
 />
    <glyph glyph-name="yen" unicode="&#xa5;" horiz-adv-x="574" 
d="M224 67q-5 -28 8.5 -50.5t53.5 -22.5q41 0 62 22.5t26 50.5l21 121h142q19 0 35.5 11.5t20.5 30.5q3 19 -9.5 30.5t-31.5 11.5h-142l12 68h142q19 0 35.5 11.5t19.5 30.5q4 19 -8.5 30.5t-31.5 11.5h-81l158 176q17 21 22 45q5 30 -11 51.5t-48 21.5q-17 0 -36 -8
t-32 -22l-180 -209l-106 209q-7 14 -23 22t-33 8q-32 0 -56 -21.5t-29 -51.5q-5 -25 6 -45l96 -176h-81q-19 0 -35.5 -11.5t-20.5 -30.5q-3 -19 9.5 -30.5t31.5 -11.5h142l-12 -68h-142q-19 0 -35.5 -11.5t-19.5 -30.5q-4 -19 8.5 -30.5t31.5 -11.5h142z" />
    <glyph glyph-name="Beta" unicode="&#x392;" horiz-adv-x="574" 
d="M58 76q-6 -35 13 -55.5t54 -20.5h206q52 0 97 14t80.5 41.5t59.5 68t33 93.5q6 33 -0.5 62t-23 51.5t-42 37.5t-56.5 19l1 2q52 23 80.5 58.5t38.5 88.5q7 40 -2 72.5t-30.5 55.5t-53.5 35.5t-71 12.5h-192q-35 0 -60.5 -19.5t-32.5 -55.5zM297 580h78q33 0 54 -18
t15 -53q-7 -38 -32.5 -58.5t-62.5 -20.5h-78zM248 298h106q53 0 75.5 -22t16.5 -57q-8 -42 -38.5 -64.5t-71.5 -22.5h-118z" />
    <glyph glyph-name="Epsilon" unicode="&#x395;" horiz-adv-x="463" 
d="M58 75q-6 -34 12.5 -54.5t51.5 -20.5h258q35 0 56.5 21.5t26.5 47.5t-9 47.5t-50 21.5h-185l27 152h164q36 0 58 21.5t27 47.5t-9.5 47.5t-51.5 21.5h-164l26 146h176q35 0 56.5 21.5t26.5 47.5t-8.5 47.5t-49.5 21.5h-248q-40 0 -63.5 -24.5t-30.5 -62.5z" />
    <glyph glyph-name="Zeta" unicode="&#x396;" horiz-adv-x="593" 
d="M232 132l399 444q11 13 20.5 30t12.5 34q2 13 -0.5 26t-11 23t-23 16.5t-36.5 6.5h-366q-29 0 -53 -19.5t-29 -48.5q-6 -31 11 -47.5t47 -16.5h263l-401 -450q-12 -14 -20 -28.5t-10 -29.5q-6 -32 12.5 -52t58.5 -20h393q14 0 27.5 5t25.5 14t20 21t11 26q5 32 -12 49
t-49 17h-290z" />
    <glyph glyph-name="Eta" unicode="&#x397;" horiz-adv-x="704" 
d="M58 72q-7 -38 11 -58t50 -20t57 20t32 58l38 218h314l-38 -218q-7 -38 11 -58t50 -20t57 20t32 58l100 568q7 38 -11 58t-50 20t-57 -20t-32 -58l-38 -212h-314l38 212q7 38 -11 58t-50 20t-57 -20t-32 -58z" />
    <glyph glyph-name="Iota" unicode="&#x399;" horiz-adv-x="240" 
d="M58 72q-7 -38 11 -58t50 -20t57 20t32 58l100 568q7 38 -11 58t-50 20t-57 -20t-32 -58z" />
    <glyph glyph-name="Kappa" unicode="&#x39a;" horiz-adv-x="611" 
d="M57 66q-6 -33 12 -52.5t50 -19.5q34 0 58.5 21.5t29.5 50.5l45 255l209 -280q17 -23 31.5 -35t36.5 -12q31 0 57.5 17t32.5 52q4 23 -5 40t-23 36l-189 241l222 186q29 25 44 42.5t19 37.5q5 32 -13.5 52t-47.5 20q-21 0 -37 -9.5t-26 -18.5l-293 -262l39 216
q6 35 -12 54.5t-50 19.5q-34 0 -58.5 -21.5t-29.5 -52.5z" />
    <glyph glyph-name="Mu" unicode="&#x39c;" horiz-adv-x="870" 
d="M40 83q-2 -5 -2.5 -9t-1.5 -8q-6 -33 11.5 -52.5t47.5 -19.5q38 0 58.5 17.5t31.5 52.5l131 407h2l46 -419q1 -9 4.5 -19t11.5 -19t21 -14.5t33 -5.5t35 5.5t26 14.5t18 19t11 19l194 419h2l-13 -407q-1 -35 13.5 -52.5t52.5 -17.5q30 0 54.5 19.5t30.5 52.5q2 10 2 17
l5 558q0 14 -5.5 27.5t-16.5 24.5t-26.5 18t-35.5 7q-38 0 -69 -22.5t-44 -49.5l-188 -396h-2l-48 396q-3 27 -26 49.5t-61 22.5q-20 0 -38 -7t-33 -18t-25.5 -24.5t-15.5 -27.5z" />
    <glyph glyph-name="Phi" unicode="&#x3a6;" horiz-adv-x="782" 
d="M580 663q-1 24 -17 39.5t-45 15.5t-51 -15.5t-31 -38.5q-75 -11 -136 -41.5t-106 -72.5t-73.5 -93t-37.5 -102t1.5 -101.5t41 -92.5t81 -72.5t120.5 -41.5q2 -23 18 -37.5t45 -14.5t50.5 14.5t31.5 37.5q74 11 135 41.5t106.5 72.5t74 92.5t37.5 101.5t-1.5 102t-41 93
t-81 72.5t-121.5 40.5zM560 536q36 -9 60.5 -26.5t37.5 -41.5t16.5 -52.5t-2.5 -60.5t-19 -61t-35 -53t-52.5 -41t-69.5 -26zM412 536l-64 -361q-36 9 -60.5 26.5t-38 41t-16.5 52.5t2 60q6 32 19.5 60.5t35 52.5t52 41.5t70.5 26.5z" />
    <glyph glyph-name="Upsilondieresis" unicode="&#x3ab;" horiz-adv-x="536" 
d="M205 67q-5 -28 8.5 -50.5t53.5 -22.5t61.5 22.5t26.5 50.5l47 267l236 266q17 21 22 45q5 30 -11 51.5t-48 21.5q-41 0 -68 -30l-181 -209l-107 209q-7 14 -21.5 22t-34.5 8q-32 0 -56 -21.5t-29 -51.5q-5 -25 6 -45l142 -266zM454 837q-5 -30 12 -51t47 -21t55 21t30 51
t-12.5 51t-47.5 21t-54.5 -21t-29.5 -51zM234 837q-5 -30 12 -51t47 -21t55 21t30 51t-12.5 51t-47.5 21t-54.5 -21t-29.5 -51z" />
    <glyph glyph-name="Psi" unicode="&#x3a8;" horiz-adv-x="777" 
d="M474 72l14 77q59 4 114 28t100 63t76.5 91t41.5 112l35 197q7 38 -11 58t-50 20t-57 -20t-32 -58l-33 -189q-6 -30 -20 -57.5t-35 -49.5t-48 -37t-57 -19l62 352q7 38 -11 58t-50 20t-57 -20t-32 -58l-62 -352q-57 10 -82.5 55.5t-14.5 107.5l33 189q7 38 -11 58t-50 20
t-57 -20t-32 -58l-35 -197q-10 -60 2 -111.5t43 -90.5t77 -63t103 -29l-14 -77q-7 -38 11 -58t50 -20t57 20t32 58z" />
    <glyph glyph-name="Omega" unicode="&#x3a9;" horiz-adv-x="761" 
d="M347 140l-24 -140h-235q-27 0 -47 15.5t-15 47.5q6 32 31.5 47.5t52.5 15.5h54q-22 20 -37.5 47.5t-24.5 59.5t-11 66.5t4 67.5q12 66 45.5 129t86.5 112.5t124 79.5t156 30q86 0 146 -30t95.5 -79.5t47 -112.5t-0.5 -129q-6 -33 -20 -67t-34.5 -66t-46 -60t-52.5 -48h53
q27 0 47 -15.5t15 -47.5q-6 -32 -31.5 -47.5t-52.5 -15.5h-239l25 139q41 14 73 38t54.5 55t36.5 65.5t20 69.5q8 44 3.5 85t-23 72.5t-52.5 51t-86 19.5q-51 0 -92 -19.5t-71 -51t-48.5 -72.5t-26.5 -85q-6 -34 -4.5 -68.5t13 -65t34 -55t57.5 -38.5z" />
    <glyph glyph-name="alphatonos" unicode="&#x3ac;" horiz-adv-x="574" 
d="M611 444q3 14 4.5 30.5t-2 30.5t-16 23.5t-38.5 9.5t-49 -17t-31 -43q-18 34 -51.5 50t-73.5 16q-49 0 -96.5 -21.5t-86 -59t-66 -88.5t-38.5 -110q-11 -61 -1.5 -111.5t35 -87.5t65 -57.5t90.5 -20.5q80 0 149 67q2 -29 14 -45t44 -16q26 0 41.5 9.5t24.5 23.5t13 30.5
t7 30.5zM211 265q5 26 16 52t29 47t41.5 34.5t53.5 13.5q29 0 47.5 -13.5t28 -34.5t12 -47t-2.5 -52q-4 -26 -15.5 -52t-29 -46.5t-41 -33.5t-51.5 -13q-29 0 -48 13t-29.5 33.5t-12.5 46.5t2 52zM329 686l-7 -5q-13 -10 -20 -22.5t-6 -23.5q2 -26 19 -44.5t40 -13.5
q8 2 11 3t6 2.5t8 4.5l15 9l110 70q40 25 37 67q-1 10 -6 19.5t-13 16.5t-18 10.5t-22 0.5q-14 -3 -37 -19z" />
    <glyph glyph-name="Nu" unicode="&#x39d;" horiz-adv-x="685" 
d="M52 72q-7 -38 11 -58t50 -20t57 20t32 58l65 373h2l244 -418q8 -14 25.5 -23.5t31.5 -9.5q32 0 57 20t32 58l100 568q7 38 -11 58t-50 20t-57 -20t-32 -58l-67 -378h-2l-242 423q-8 14 -25.5 23.5t-31.5 9.5q-32 0 -57 -20t-32 -58z" />
    <glyph glyph-name="Omicron" unicode="&#x39f;" horiz-adv-x="722" 
d="M383 126q-48 0 -80 19t-49.5 50.5t-21.5 73t4 87.5q8 45 27 87t48 73.5t67.5 50.5t85.5 19t79 -19t50 -50.5t22.5 -73.5t-3.5 -87q-8 -46 -27 -87.5t-48 -73t-67.5 -50.5t-86.5 -19zM359 -12q77 0 145.5 28.5t122.5 78t90.5 116.5t50.5 145q14 76 0 143t-50.5 117t-95 79
t-133.5 29q-76 0 -144.5 -28t-123 -77.5t-91 -117t-50.5 -145.5t-0.5 -145t50 -116.5t95 -78t134.5 -28.5z" />
    <glyph glyph-name="Rho" unicode="&#x3a1;" 
d="M58 72q-7 -38 11 -58t50 -20t57 20t32 58l29 164h111q51 0 99.5 16.5t88 47.5t67 74.5t36.5 98.5q10 54 -1.5 98t-40 75.5t-72.5 48.5t-99 17h-177q-38 0 -62 -21.5t-30 -56.5zM297 580h102q48 0 70.5 -30.5t14.5 -75.5t-41.5 -75.5t-80.5 -30.5h-102z" />
    <glyph glyph-name="approxequal" unicode="&#x2248;" horiz-adv-x="549" 
 />
    <glyph glyph-name="Tau" unicode="&#x3a4;" horiz-adv-x="480" 
d="M178 72q-7 -38 11 -58t50 -20t57 20t32 58l88 502h109q36 0 55.5 21.5t24.5 47.5t-9 47.5t-46 21.5h-368q-32 0 -54 -21.5t-27 -47.5t7.5 -47.5t48.5 -21.5h109z" />
    <glyph glyph-name="guillemotleft" unicode="&#xab;" horiz-adv-x="500" 
d="M325 341q-9 -11 -20 -26.5t-14 -29.5q-2 -9 -1.5 -18.5t4.5 -17.5l75 -159q13 -25 45 -25q27 0 47 18.5t25 44.5q1 7 0.5 15.5t-5.5 18.5l-58 119l100 121q8 10 12 19t6 19q4 22 -9 38.5t-40 16.5q-15 0 -26 -4.5t-20 -12.5zM121 341q-9 -11 -20 -26.5t-14 -29.5
q-2 -9 -1.5 -18.5t4.5 -17.5l75 -159q13 -25 45 -25q27 0 47 18.5t25 44.5q1 7 0.5 15.5t-5.5 18.5l-58 119l100 121q8 10 12 19t6 19q4 22 -9 38.5t-40 16.5q-15 0 -26 -4.5t-20 -12.5z" />
    <glyph glyph-name="guillemotright" unicode="&#xbb;" horiz-adv-x="500" 
d="M280 158q-15 -16 -18 -38q-4 -22 8.5 -38.5t39.5 -16.5q29 0 46 17l122 137q9 11 20 26.5t13 29.5q2 9 2 18q0 10 -4 18l-75 159q-6 12 -18.5 18.5t-27.5 6.5q-27 0 -46.5 -18.5t-24.5 -44.5q-1 -7 -0.5 -15.5t5.5 -18.5l59 -117zM76 158q-15 -16 -18 -38
q-4 -22 8.5 -38.5t39.5 -16.5q29 0 46 17l122 137q9 11 20 26.5t13 29.5q2 9 2 18q0 10 -4 18l-75 159q-6 12 -18.5 18.5t-27.5 6.5q-27 0 -46.5 -18.5t-24.5 -44.5q-1 -7 -0.5 -15.5t5.5 -18.5l59 -117z" />
    <glyph glyph-name="ellipsis" unicode="&#x2026;" horiz-adv-x="1000" 
d="M101 66q-6 -32 13 -55t51 -23t59 23t33 55q5 32 -14 55t-51 23q-16 0 -31.5 -6t-27.5 -16.5t-20.5 -25t-11.5 -30.5zM434 66q-6 -32 13 -55t51 -23t59 23t33 55q5 32 -14 55t-51 23q-16 0 -31.5 -6t-27.5 -16.5t-20.5 -25t-11.5 -30.5zM767 66q-6 -32 13 -55t51 -23
t59 23t33 55q5 32 -14 55t-51 23q-16 0 -31.5 -6t-27.5 -16.5t-20.5 -25t-11.5 -30.5z" />
    <glyph glyph-name="nonbreakingspace" unicode="&#xa0;" horiz-adv-x="268" 
 />
    <glyph glyph-name="Upsilon" unicode="&#x3a5;" horiz-adv-x="536" 
d="M205 67q-5 -28 8.5 -50.5t53.5 -22.5t61.5 22.5t26.5 50.5l47 267l236 266q17 21 22 45q5 30 -11 51.5t-48 21.5q-41 0 -68 -30l-181 -209l-107 209q-7 14 -21.5 22t-34.5 8q-32 0 -56 -21.5t-29 -51.5q-5 -25 6 -45l142 -266z" />
    <glyph glyph-name="Chi" unicode="&#x3a7;" horiz-adv-x="612" 
d="M41 115q-8 -8 -15.5 -21.5t-10.5 -29.5q-5 -32 13 -51t51 -19q38 0 68 33l204 228l124 -228q17 -33 56 -33q33 0 58 19t30 51q3 16 0 29.5t-8 21.5l-151 266l201 220q20 21 24 44q5 33 -13 53t-50 20q-19 0 -38.5 -11t-33.5 -26l-155 -176l-93 176q-8 15 -23.5 26
t-34.5 11q-32 0 -58 -20t-31 -53q-2 -12 0.5 -23t7.5 -21l123 -220z" />
    <glyph glyph-name="Alphatonos" unicode="&#x386;" horiz-adv-x="630" 
d="M26 97l-6.5 -12.5t-6.5 -20.5q-5 -30 13.5 -50t48.5 -20q31 0 50.5 15t30.5 38l47 93h278l13 -94q3 -23 17.5 -37.5t46.5 -14.5q28 0 52 18.5t29 47.5q1 5 0.5 15t-2.5 22l-100 544q-7 36 -29.5 59.5t-62.5 23.5q-38 0 -70.5 -24t-51.5 -59zM416 568h2l42 -290h-190z
M83 686l-8 -5q-13 -10 -19.5 -22.5t-5.5 -23.5q2 -26 19 -44.5t40 -13.5q8 2 11 3t5.5 2.5l7.5 4.5l15 9l111 70q40 25 37 67q-1 10 -6 19.5t-13 16.5t-18.5 10.5t-21.5 0.5q-8 -2 -17.5 -6.5t-20.5 -12.5z" />
    <glyph glyph-name="Epsilontonos" unicode="&#x388;" horiz-adv-x="463" 
d="M58 75q-6 -34 12.5 -54.5t51.5 -20.5h258q35 0 56.5 21.5t26.5 47.5t-9 47.5t-50 21.5h-185l27 152h164q36 0 58 21.5t27 47.5t-9.5 47.5t-51.5 21.5h-164l26 146h176q35 0 56.5 21.5t26.5 47.5t-8.5 47.5t-49.5 21.5h-248q-40 0 -63.5 -24.5t-30.5 -62.5zM-48 686l-8 -5
q-13 -10 -20 -22.5t-6 -23.5q2 -26 19 -44.5t40 -13.5l10.5 3t6.5 2.5t8 4.5l15 9l110 70q41 25 38 67q-1 10 -6 19.5t-13 16.5t-18.5 10.5t-21.5 0.5q-9 -2 -18 -6.5t-20 -12.5z" />
    <glyph glyph-name="oe" unicode="&#x153;" horiz-adv-x="907" 
d="M579 314q14 46 50.5 78t84.5 32q50 0 73 -31t21 -79h-229zM872 218q33 0 51 16t24 48q9 53 -4 100.5t-42.5 83.5t-73 57t-95.5 21q-58 0 -106 -24t-80 -57q-28 34 -70 57.5t-102 23.5q-57 0 -108.5 -23t-92.5 -61.5t-69 -89t-37 -105.5q-10 -56 -0.5 -106.5t36.5 -88.5
t71 -60t102 -22q60 0 109.5 23t86.5 60q24 -38 68.5 -60.5t107.5 -22.5q40 0 83.5 10.5t80.5 27.5t62.5 39t29.5 45q2 12 -0.5 23t-9.5 19.5t-16.5 14t-21.5 5.5q-14 0 -32.5 -9l-40.5 -20t-47 -20t-52 -9q-25 0 -47 6.5t-38.5 19t-25.5 32t-8 46.5h307zM211 265q5 26 16 52
t29 47t41.5 34.5t53.5 13.5t49 -13.5t29 -34.5t12.5 -47t-2.5 -52q-4 -26 -15.5 -52t-29.5 -46.5t-42 -33.5t-53 -13t-48 13t-29.5 33.5t-12.5 46.5t2 52z" />
    <glyph glyph-name="endash" unicode="&#x2013;" horiz-adv-x="500" 
d="M122 350q-28 0 -47 -16.5t-24 -43.5t8.5 -43.5t41.5 -16.5h380q28 0 46.5 16.5t23.5 43.5t-8 43.5t-41 16.5h-380z" />
    <glyph glyph-name="afii00208" unicode="&#x2015;" horiz-adv-x="1000" 
d="M62 350q-28 0 -47 -16.5t-24 -43.5t8.5 -43.5t41.5 -16.5h1000q28 0 46.5 16.5t23.5 43.5t-8 43.5t-41 16.5h-1000z" />
    <glyph glyph-name="quotedblleft" unicode="&#x201c;" horiz-adv-x="444" 
d="M531 618l12 19.5t8 20.5q5 27 -12.5 46.5t-44.5 19.5q-12 0 -31.5 -8.5t-32.5 -25.5l-110 -150q-7 -10 -12 -19.5t-7 -20.5q-5 -27 12.5 -46.5t44.5 -19.5q12 0 31 8.5t32 25.5zM327 618l12 19.5t8 20.5q5 27 -12.5 46.5t-44.5 19.5q-12 0 -31.5 -8.5t-32.5 -25.5
l-110 -150q-7 -10 -12 -19.5t-7 -20.5q-5 -27 12.5 -46.5t44.5 -19.5q12 0 31 8.5t32 25.5z" />
    <glyph glyph-name="quotedblright" unicode="&#x201d;" horiz-adv-x="444" 
d="M531 618l12 19.5t8 20.5q5 27 -12.5 46.5t-44.5 19.5q-12 0 -31.5 -8.5t-32.5 -25.5l-110 -150q-7 -10 -12 -19.5t-7 -20.5q-5 -27 12.5 -46.5t44.5 -19.5q12 0 31 8.5t32 25.5zM327 618l12 19.5t8 20.5q5 27 -12.5 46.5t-44.5 19.5q-12 0 -31.5 -8.5t-32.5 -25.5
l-110 -150q-7 -10 -12 -19.5t-7 -20.5q-5 -27 12.5 -46.5t44.5 -19.5q12 0 31 8.5t32 25.5z" />
    <glyph glyph-name="quoteleft" unicode="&#x2018;" horiz-adv-x="240" 
d="M327 618l12 19.5t8 20.5q5 27 -12.5 46.5t-44.5 19.5q-12 0 -31.5 -8.5t-32.5 -25.5l-110 -150q-7 -10 -12 -19.5t-7 -20.5q-5 -27 12.5 -46.5t44.5 -19.5q12 0 31 8.5t32 25.5z" />
    <glyph glyph-name="quoteright" unicode="&#x2019;" horiz-adv-x="240" 
d="M327 618l12 19.5t8 20.5q5 27 -12.5 46.5t-44.5 19.5q-12 0 -31.5 -8.5t-32.5 -25.5l-110 -150q-7 -10 -12 -19.5t-7 -20.5q-5 -27 12.5 -46.5t44.5 -19.5q12 0 31 8.5t32 25.5z" />
    <glyph glyph-name="divide" unicode="&#xf7;" horiz-adv-x="600" 
d="M150 313q-28 0 -46.5 -16.5t-23.5 -43.5t8 -43.5t41 -16.5h410q28 0 47 16.5t24 43.5t-8.5 43.5t-41.5 16.5h-410zM230 46q-5 -32 13.5 -55t50.5 -23q16 0 31.5 6t28 16.5t21 25t11.5 30.5q6 32 -13 55t-51 23t-59 -23t-33 -55zM303 460q-5 -32 13.5 -55t50.5 -23
q16 0 31.5 6t28 16.5t21 25t11.5 30.5q6 32 -13 55t-51 23t-59 -23t-33 -55z" />
    <glyph glyph-name="Etatonos" unicode="&#x389;" horiz-adv-x="704" 
d="M58 72q-7 -38 11 -58t50 -20t57 20t32 58l38 218h314l-38 -218q-7 -38 11 -58t50 -20t57 20t32 58l100 568q7 38 -11 58t-50 20t-57 -20t-32 -58l-38 -212h-314l38 212q7 38 -11 58t-50 20t-57 -20t-32 -58zM-48 686l-8 -5q-13 -10 -20 -22.5t-6 -23.5q2 -26 19 -44.5
t40 -13.5l10.5 3t6.5 2.5t8 4.5l15 9l110 70q41 25 38 67q-1 10 -6 19.5t-13 16.5t-18.5 10.5t-21.5 0.5q-9 -2 -18 -6.5t-20 -12.5z" />
    <glyph glyph-name="Iotatonos" unicode="&#x38a;" horiz-adv-x="240" 
d="M58 72q-7 -38 11 -58t50 -20t57 20t32 58l100 568q7 38 -11 58t-50 20t-57 -20t-32 -58zM-53 686l-8 -5q-13 -10 -20 -22.5t-6 -23.5q2 -26 19 -44.5t40 -13.5l10.5 3t6.5 2.5t8 4.5l15 9l110 70q41 25 38 67q-1 10 -6 19.5t-13 16.5t-18.5 10.5t-21.5 0.5
q-9 -2 -18 -6.5t-20 -12.5z" />
    <glyph glyph-name="Omicrontonos" unicode="&#x38c;" horiz-adv-x="722" 
d="M383 126q-48 0 -80 19t-49.5 50.5t-21.5 73t4 87.5q8 45 27 87t48 73.5t67.5 50.5t85.5 19t79 -19t50 -50.5t22.5 -73.5t-3.5 -87q-8 -46 -27 -87.5t-48 -73t-67.5 -50.5t-86.5 -19zM359 -12q77 0 145.5 28.5t122.5 78t90.5 116.5t50.5 145q14 76 0 143t-50.5 117t-95 79
t-133.5 29q-76 0 -144.5 -28t-123 -77.5t-91 -117t-50.5 -145.5t-0.5 -145t50 -116.5t95 -78t134.5 -28.5zM24 686l-8 -5q-13 -10 -20 -22.5t-6 -23.5q2 -26 19 -44.5t40 -13.5q8 2 11 3t6 2.5t8 4.5l15 9l110 70q41 25 38 67q-1 10 -6 19.5t-13 16.5t-18.5 10.5t-21.5 0.5
q-8 -2 -17.5 -6.5t-20.5 -12.5z" />
    <glyph glyph-name="Upsilontonos" unicode="&#x38e;" horiz-adv-x="536" 
d="M205 67q-5 -28 8.5 -50.5t53.5 -22.5t61.5 22.5t26.5 50.5l47 267l236 266q17 21 22 45q5 30 -11 51.5t-48 21.5q-41 0 -68 -30l-181 -209l-107 209q-7 14 -21.5 22t-34.5 8q-32 0 -56 -21.5t-29 -51.5q-5 -25 6 -45l142 -266zM-98 686l-8 -5q-13 -10 -20 -22.5t-6 -23.5
q2 -26 19 -44.5t40 -13.5l10.5 3t6.5 2.5t7.5 4.5t15.5 9l110 70q41 25 38 67q-1 10 -6 19.5t-13 16.5t-18.5 10.5t-21.5 0.5q-9 -2 -18 -6.5t-20 -12.5z" />
    <glyph glyph-name="epsilontonos" unicode="&#x3ad;" horiz-adv-x="463" 
d="M389 14q39 15 61 33.5t28 35.5q4 13 2.5 26t-7 23.5t-15.5 17t-24 7.5q-16 1 -30 -5l-30 -13.5t-36.5 -15t-51.5 -10.5q-21 -2 -37.5 2.5t-27.5 12t-16.5 17.5t-4.5 19q2 20 14.5 32t29 18.5t35 8.5t33.5 3q12 1 25.5 2.5t25.5 7t20.5 16t11.5 29.5q3 18 -4.5 28
t-21 14.5t-31 5.5l-34.5 2q-30 2 -48 12.5t-11 27.5t23 26.5t34.5 13t37 2t31.5 -6.5q15 -6 33 -14t37 -8q15 0 27 7t21 17.5t14 22.5t7 23q4 21 -8 38t-34.5 28.5t-52.5 17.5t-62 5q-40 -1 -82.5 -11.5t-78.5 -31.5t-61.5 -53t-32.5 -76q-4 -25 7.5 -51.5t48.5 -39.5
q-23 -10 -41.5 -24.5t-31 -30.5t-20.5 -33t-10 -33q-7 -47 9 -80t47 -53.5t71 -29t79 -7.5q37 0 68.5 7t63.5 18zM304 686l-8 -5q-13 -10 -20 -22.5t-6 -23.5q2 -26 19 -44.5t40 -13.5q8 2 11 3t6 2.5t8 4.5l15 9l110 70q41 26 38 67q-1 10 -6 19.5t-13 16.5t-18.5 10.5
t-22.5 0.5q-14 -3 -37 -19z" />
    <glyph glyph-name="etatonos" unicode="&#x3ae;" 
d="M54 74q-6 -36 10 -58t48 -22t56 22t30 58l44 251q8 42 36.5 70.5t73.5 28.5q39 0 62 -24t14 -75l-44 -251q-6 -36 10 -58t48 -22t56 22t30 58l49 276q8 46 -0.5 82t-30.5 61t-56 38t-76 13q-51 0 -87 -15t-62 -44q0 25 -14.5 39t-42.5 14q-32 0 -56 -22t-30 -58zM287 686
l-8 -5q-13 -10 -20 -22.5t-6 -23.5q2 -26 19 -44.5t40 -13.5q8 2 11 3t6 2.5t8 4.5l15 9l110 70q41 26 38 67q-1 10 -6 19.5t-13 16.5t-18.5 10.5t-22.5 0.5q-14 -3 -37 -19z" />
    <glyph glyph-name="iotatonos" unicode="&#x3af;" horiz-adv-x="222" 
d="M52 74q-6 -36 10 -58t48 -22t56 22t30 58l68 384q6 36 -10 58t-48 22t-56 -22t-30 -58zM172 686l-8 -5q-13 -10 -19.5 -22.5t-5.5 -23.5q2 -26 19 -44.5t40 -13.5q8 2 11 3t5.5 2.5l7.5 4.5l15 9l111 70q40 25 37 67q-1 10 -6 19.5t-13 16.5t-18.5 10.5t-21.5 0.5
q-8 -2 -17.5 -6.5t-20.5 -12.5z" />
    <glyph glyph-name="omicrontonos" unicode="&#x3cc;" 
d="M374 544q-57 0 -108.5 -23t-92.5 -61.5t-69 -89t-37 -105.5q-10 -56 -0.5 -106.5t36.5 -88.5t71 -60t102 -22t109.5 22t92 60t68 88.5t37.5 106.5q9 55 -1 105.5t-37 89t-70.5 61.5t-100.5 23zM351 412q30 0 49 -13.5t29 -34.5t12.5 -47t-2.5 -52q-4 -26 -15.5 -52
t-29.5 -46.5t-42 -33.5t-53 -13t-48 13t-29.5 33.5t-12.5 46.5t2 52q5 26 16 52t29 47t41.5 34.5t53.5 13.5zM349 686l-7 -5q-13 -10 -20 -22.5t-6 -23.5q2 -26 19 -44.5t40 -13.5q8 2 11 3t6 2.5t8 4.5l15 9l110 70q41 26 37 67q0 10 -5 19.5t-13 16.5t-18.5 10.5
t-22.5 0.5q-14 -3 -37 -19z" />
    <glyph glyph-name="Omegatonos" unicode="&#x38f;" horiz-adv-x="761" 
d="M347 140l-24 -140h-235q-27 0 -47 15.5t-15 47.5q6 32 31.5 47.5t52.5 15.5h54q-22 20 -37.5 47.5t-24.5 59.5t-11 66.5t4 67.5q12 66 45.5 129t86.5 112.5t124 79.5t156 30q86 0 146 -30t95.5 -79.5t47 -112.5t-0.5 -129q-6 -33 -20 -67t-34.5 -66t-46 -60t-52.5 -48h53
q27 0 47 -15.5t15 -47.5q-6 -32 -31.5 -47.5t-52.5 -15.5h-239l25 139q41 14 73 38t54.5 55t36.5 65.5t20 69.5q8 44 3.5 85t-23 72.5t-52.5 51t-86 19.5q-51 0 -92 -19.5t-71 -51t-48.5 -72.5t-26.5 -85q-6 -34 -4.5 -68.5t13 -65t34 -55t57.5 -38.5zM36 686l-8 -5
q-13 -10 -20 -22.5t-6 -23.5q2 -26 19 -44.5t40 -13.5q8 2 11 3t6 2.5t8 4.5l15 9l110 70q41 25 38 67q-1 10 -6 19.5t-13 16.5t-18.5 10.5t-21.5 0.5q-9 -2 -18 -6.5t-20 -12.5z" />
    <glyph glyph-name="upsilontonos" unicode="&#x3cd;" 
d="M76 198q-17 -97 34 -153.5t166 -56.5t186 56.5t88 153.5l46 260q6 36 -10 58t-48 22t-56 -22t-30 -58l-46 -257q-4 -22 -14.5 -39.5t-25.5 -29.5t-33 -18t-36 -6q-36 0 -60 24t-17 69l46 257q6 36 -10 58t-48 22t-56 -22t-30 -58zM325 686l-7 -5q-13 -10 -20 -22.5
t-6 -23.5q2 -26 19 -44.5t40 -13.5q8 2 11 3t6 2.5t8 4.5l15 9l110 70q41 26 38 67q-1 10 -6 19.5t-13 16.5t-18.5 10.5t-22.5 0.5q-14 -3 -37 -19z" />
    <glyph glyph-name="alpha" unicode="&#x3b1;" horiz-adv-x="574" 
d="M611 444q3 14 4.5 30.5t-2 30.5t-16 23.5t-38.5 9.5t-49 -17t-31 -43q-18 34 -51.5 50t-73.5 16q-49 0 -96.5 -21.5t-86 -59t-66 -88.5t-38.5 -110q-11 -61 -1.5 -111.5t35 -87.5t65 -57.5t90.5 -20.5q80 0 149 67q2 -29 14 -45t44 -16q26 0 41.5 9.5t24.5 23.5t13 30.5
t7 30.5zM211 265q5 26 16 52t29 47t41.5 34.5t53.5 13.5q29 0 47.5 -13.5t28 -34.5t12 -47t-2.5 -52q-4 -26 -15.5 -52t-29 -46.5t-41 -33.5t-51.5 -13q-29 0 -48 13t-29.5 33.5t-12.5 46.5t2 52z" />
    <glyph glyph-name="beta" unicode="&#x3b2;" horiz-adv-x="547" 
d="M571 247q11 62 -6.5 117.5t-63.5 84.5q45 44 59 99.5t-1.5 105.5t-59.5 84t-115 34q-50 0 -94.5 -17.5t-79 -48t-57.5 -73t-32 -92.5l-22.5 -128l-14 -81l-9.5 -54l-8.5 -47.5l-10.5 -61.5t-17 -95q-6 -36 10 -58t48 -22q30 0 50.5 15.5t32.5 44.5q14 -33 48.5 -49.5
t71.5 -16.5q53 0 99 22t81 58t58.5 82.5t32.5 96.5zM423 247q-4 -24 -13 -47t-24 -40.5t-35 -28.5t-47 -11q-30 0 -48 13.5t-27.5 35t-10.5 48.5t4 53l46 264q6 34 17 55.5t24.5 34t27.5 17.5t26 5q15 0 28 -6t22.5 -17t13.5 -25.5t1 -32.5q-4 -23 -11.5 -37.5t-17 -23.5
t-19.5 -12.5t-19 -4.5q-10 -1 -23 -5.5t-24 -13t-20 -21t-12 -29.5q-3 -15 2 -27t14 -19.5t21 -11.5t22 -4q21 0 38.5 -5.5t29 -18t16 -33.5t-1.5 -52z" />
    <glyph glyph-name="psi" unicode="&#x3c8;" horiz-adv-x="694" 
d="M393 -136l22 124q55 1 101.5 16.5t82 43t59 65.5t31.5 85l46 260q6 36 -10 58t-48 22t-56 -22t-30 -58l-46 -257q-3 -21 -14.5 -37.5t-26.5 -28t-33 -18.5t-35 -9l61 350q7 36 -9 58t-48 22t-56 -22t-31 -58l-61 -349q-15 2 -30 9t-25.5 19t-15.5 28t-2 36l46 257
q6 36 -10 58t-48 22t-56 -22t-30 -58l-46 -260q-8 -46 1.5 -84t35 -65.5t65.5 -43t94 -17.5l-22 -124q-7 -36 9.5 -58t48.5 -22t55.5 22t30.5 58z" />
    <glyph glyph-name="delta" unicode="&#x3b4;" 
d="M351 412q30 0 49 -13.5t29 -34.5t12.5 -47t-2.5 -52q-4 -26 -15.5 -52t-29.5 -46.5t-42 -33.5t-53 -13t-48 13t-29.5 33.5t-12.5 46.5t2 52q5 26 16 52t29 47t41.5 34.5t53.5 13.5zM229 502q-31 -19 -58 -45t-48 -56.5t-35.5 -65t-20.5 -70.5q-10 -56 -0.5 -106.5
t36.5 -88.5t71 -60t102 -22t109.5 22t92 60t68 88.5t37.5 106.5q13 71 -1 119t-41.5 79.5t-62.5 51t-65.5 33t-50.5 25t-17 27.5q3 21 19.5 30.5t36.5 9.5q18 0 35 -6.5t33 -14.5l29.5 -14.5t23.5 -6.5q26 0 46 19.5t24 44.5q5 27 -9.5 46.5t-39.5 32t-55 19t-57 6.5
q-43 0 -81 -12t-67.5 -34.5t-49.5 -53t-27 -68.5q-5 -31 1.5 -54.5t21.5 -41.5z" />
    <glyph glyph-name="epsilon" unicode="&#x3b5;" horiz-adv-x="463" 
d="M389 14q39 15 61 33.5t28 35.5q4 13 2.5 26t-7 23.5t-15.5 17t-24 7.5q-16 1 -30 -5l-30 -13.5t-36.5 -15t-51.5 -10.5q-21 -2 -37.5 2.5t-27.5 12t-16.5 17.5t-4.5 19q2 20 14.5 32t29 18.5t35 8.5t33.5 3q12 1 25.5 2.5t25.5 7t20.5 16t11.5 29.5q3 18 -4.5 28
t-21 14.5t-31 5.5l-34.5 2q-30 2 -48 12.5t-11 27.5t23 26.5t34.5 13t37 2t31.5 -6.5q15 -6 33 -14t37 -8q15 0 27 7t21 17.5t14 22.5t7 23q4 21 -8 38t-34.5 28.5t-52.5 17.5t-62 5q-40 -1 -82.5 -11.5t-78.5 -31.5t-61.5 -53t-32.5 -76q-4 -25 7.5 -51.5t48.5 -39.5
q-23 -10 -41.5 -24.5t-31 -30.5t-20.5 -33t-10 -33q-7 -47 9 -80t47 -53.5t71 -29t79 -7.5q37 0 68.5 7t63.5 18z" />
    <glyph glyph-name="phi" unicode="&#x3c6;" horiz-adv-x="753" 
d="M770 263q9 55 -4 105.5t-44 89t-77.5 61.5t-103.5 23h-62h-8q-32 0 -56 -22t-30 -58l-61 -344q-22 1 -39.5 9t-31 21.5t-22 31t-11.5 36.5q-5 31 3 69t29 67q15 20 29.5 32.5t26.5 21t20.5 13.5t12.5 11q17 22 16.5 47t-20.5 38q-22 14 -50 6t-55.5 -26.5t-51 -42
t-36.5 -40.5q-24 -31 -42.5 -72t-25.5 -77q-10 -55 2.5 -105t43 -88t76.5 -60.5t103 -23.5l-22 -124q-7 -36 9.5 -58t48.5 -22t55.5 22t30.5 58l22 124q58 0 112 22.5t98 60.5t74.5 88t40.5 106zM626 263q-4 -25 -18.5 -51t-36 -46.5t-48 -34t-55.5 -13.5l51 292
q29 0 51 -13.5t36 -34.5t19.5 -47t0.5 -52z" />
    <glyph glyph-name="gamma" unicode="&#x3b3;" horiz-adv-x="462" 
d="M277 -138l31 175l221 389q8 14 11.5 23t5.5 19q6 35 -14 52.5t-49 17.5q-30 0 -47.5 -17t-25.5 -34l-142 -284h-2l-42 284q-2 17 -13.5 34t-41.5 17q-29 0 -55 -17.5t-32 -52.5q-2 -10 -2 -19t3 -23l82 -383l-32 -181q-6 -36 10 -58t48 -22t56 22t30 58z" />
    <glyph glyph-name="eta" unicode="&#x3b7;" 
d="M54 74q-6 -36 10 -58t48 -22t56 22t30 58l44 251q8 42 36.5 70.5t73.5 28.5q39 0 62 -24t14 -75l-44 -251q-6 -36 10 -58t48 -22t56 22t30 58l49 276q8 46 -0.5 82t-30.5 61t-56 38t-76 13q-51 0 -87 -15t-62 -44q0 25 -14.5 39t-42.5 14q-32 0 -56 -22t-30 -58z" />
    <glyph glyph-name="iota" unicode="&#x3b9;" horiz-adv-x="222" 
d="M52 74q-6 -36 10 -58t48 -22t56 22t30 58l68 384q6 36 -10 58t-48 22t-56 -22t-30 -58z" />
    <glyph glyph-name="xi" unicode="&#x3be;" horiz-adv-x="465" 
d="M510 613q30 1 49 20t24 52q2 12 -6 26.5t-27.5 26.5t-50.5 20.5t-74 8.5q-65 0 -113.5 -18t-82.5 -46.5t-53.5 -64t-25.5 -71.5q-3 -18 -1 -38.5t9 -39.5t20 -35t31 -25q-28 -12 -52 -34.5t-43 -49t-31 -53t-16 -47.5q-12 -67 4.5 -115t51.5 -79.5t85 -48t107 -20.5
l-13 -73q-5 -31 11 -51.5t50 -20.5q35 0 58.5 20.5t28.5 51.5l16 88q6 33 -2 53.5t-24.5 32t-40 17t-48.5 9.5q-28 5 -55 11t-47 20t-29.5 38.5t-2.5 66.5q7 39 26.5 64t45.5 40t55.5 20.5t55.5 5.5q15 0 31 2t29.5 8.5t23.5 18t12 29.5t-5 28t-19.5 14.5t-27.5 5.5l-30 2
q-24 2 -42 5t-40 10q-27 8 -34.5 32t2 49.5t35.5 45t68 19.5q14 0 27 -5t26.5 -11t27 -11t26.5 -4z" />
    <glyph glyph-name="kappa" unicode="&#x3ba;" horiz-adv-x="500" 
d="M54 74q-6 -36 10 -58t48 -22t56 22t30 58l31 175h2l138 -217q14 -21 27.5 -32.5t33.5 -11.5q29 0 52 19.5t28 48.5q2 12 0 24.5t-10 23.5l-134 198l148 114q19 14 27.5 27.5t10.5 29.5q5 24 -8.5 44.5t-40.5 20.5q-14 0 -32.5 -7t-38.5 -24l-185 -153l19 105q6 36 -10 58
t-48 22t-56 -22t-30 -58z" />
    <glyph glyph-name="lambda" unicode="&#x3bb;" horiz-adv-x="481" 
d="M251 492l-33 169q-2 10 -3 20.5t1 21.5q4 23 26.5 42.5t59.5 19.5q26 0 39.5 -17t18.5 -40l133 -613q2 -8 2 -17t-2 -20q-5 -27 -30.5 -44.5t-48.5 -17.5q-26 0 -42 13.5t-21 37.5l-58 271l-147 -271q-13 -24 -34 -37.5t-47 -13.5q-11 0 -22.5 4.5t-19.5 13t-12.5 20
t-2.5 24.5q4 22 14 37z" />
    <glyph glyph-name="mu" unicode="&#xb5;" 
d="M17 -138q-7 -36 9.5 -58t48.5 -22t55.5 22t30.5 58l31 176h2q11 -22 34.5 -36t46.5 -14t52.5 17t52.5 58h2q-5 -32 11.5 -50.5t48.5 -18.5t56 22t30 58l68 384q6 36 -10 58t-48 22t-56 -22t-30 -58l-46 -257q-4 -22 -14.5 -39.5t-25.5 -29.5t-33 -18t-36 -6q-36 0 -60 24
t-17 69l46 257q6 36 -10 58t-48 22t-56 -22t-30 -58z" />
    <glyph glyph-name="mu" unicode="&#x3bc;" 
d="M17 -138q-7 -36 9.5 -58t48.5 -22t55.5 22t30.5 58l31 176h2q11 -22 34.5 -36t46.5 -14t52.5 17t52.5 58h2q-5 -32 11.5 -50.5t48.5 -18.5t56 22t30 58l68 384q6 36 -10 58t-48 22t-56 -22t-30 -58l-46 -257q-4 -22 -14.5 -39.5t-25.5 -29.5t-33 -18t-36 -6q-36 0 -60 24
t-17 69l46 257q6 36 -10 58t-48 22t-56 -22t-30 -58z" />
    <glyph glyph-name="nu" unicode="&#x3bd;" horiz-adv-x="462" 
d="M163 54q5 -28 17.5 -44t49.5 -16t55 16t34 44l210 372q8 14 11.5 23t5.5 19q6 35 -14 52.5t-49 17.5q-30 0 -47.5 -17t-25.5 -34l-142 -284h-2l-42 284q-2 17 -13.5 34t-41.5 17q-29 0 -55 -17.5t-32 -52.5q-2 -10 -2 -19t3 -23z" />
    <glyph glyph-name="omicron" unicode="&#x3bf;" 
d="M374 544q-57 0 -108.5 -23t-92.5 -61.5t-69 -89t-37 -105.5q-10 -56 -0.5 -106.5t36.5 -88.5t71 -60t102 -22t109.5 22t92 60t68 88.5t37.5 106.5q9 55 -1 105.5t-37 89t-70.5 61.5t-100.5 23zM351 412q30 0 49 -13.5t29 -34.5t12.5 -47t-2.5 -52q-4 -26 -15.5 -52
t-29.5 -46.5t-42 -33.5t-53 -13t-48 13t-29.5 33.5t-12.5 46.5t2 52q5 26 16 52t29 47t41.5 34.5t53.5 13.5z" />
    <glyph glyph-name="pi" unicode="&#x3c0;" 
d="M442 -6q34 0 57.5 20t28.5 49l32 184l20.5 116l11 63t4.5 26l1 5q6 32 -11.5 53.5t-49.5 21.5h-330q-38 0 -60.5 -23.5t-27.5 -53.5l-69 -392q-5 -29 11.5 -49t50.5 -20t57.5 20t28.5 49l61 347h183l-61 -347q-5 -29 11.5 -49t50.5 -20z" />
    <glyph glyph-name="omegatonos" unicode="&#x3ce;" horiz-adv-x="802" 
d="M536 -8q62 0 110.5 24.5t84 64t57.5 88.5t31 97q6 32 5 64.5t-9.5 63t-23.5 57t-38 46.5q-40 35 -75 37.5t-57.5 -12.5t-30.5 -39t5 -42q9 -12 22 -19t25 -16q12 -10 20 -25.5t12 -34.5t4 -40q0 -20 -3 -40q-11 -64 -42.5 -106.5t-78.5 -42.5q-27 0 -40.5 17.5t-4.5 66.5
l26 151q5 29 -9.5 52.5t-48.5 23.5t-57.5 -23.5t-28.5 -52.5l-26 -151q-9 -48 -29 -66t-47 -18q-23 0 -38.5 11.5t-24 31.5t-10 47t4.5 59q3 20 10.5 40.5t18.5 39.5t24.5 34.5t28.5 25.5q15 9 30.5 16t28.5 19q20 18 20.5 42t-16.5 39t-52.5 12.5t-88.5 -37.5
q-30 -20 -55 -46.5t-43.5 -57t-31 -63t-18.5 -64.5q-9 -48 -5.5 -96.5t24 -88t60.5 -64.5t105 -25q48 0 86 22t67 55q16 -35 44.5 -56t77.5 -21zM450 686l-8 -5q-12 -10 -19 -22.5t-6 -23.5q2 -26 19 -44.5t40 -13.5q8 2 11 3t6 2.5t7.5 4.5t15.5 9l110 70q40 25 37 67
q-1 10 -6 19.5t-13 16.5t-18.5 10.5t-21.5 0.5q-8 -2 -17.5 -6.5t-20.5 -12.5z" />
    <glyph glyph-name="rho" unicode="&#x3c1;" horiz-adv-x="574" 
d="M389 544q-32 0 -79.5 -12t-94.5 -45t-86.5 -92t-56.5 -154l-66 -379q-7 -36 9.5 -58t48.5 -22t55.5 22t30.5 58l31 176q24 -25 56.5 -37.5t66.5 -12.5q54 0 102 23t85.5 61.5t63 87t34.5 99.5q9 53 0.5 104t-33.5 91t-67 65t-100 25zM222 270q5 26 16 51.5t28.5 45.5
t41 32.5t52.5 12.5q28 0 46.5 -13.5t29 -34.5t13 -47t-2.5 -52q-4 -25 -16 -51t-29.5 -47t-41 -34t-51.5 -13q-30 0 -49 13.5t-28.5 35t-11.5 48.5t3 53z" />
    <glyph glyph-name="sigma" unicode="&#x3c3;" horiz-adv-x="598" 
d="M348 399q30 0 49.5 -12t30 -31.5t13 -44.5t-2.5 -51q-4 -26 -15.5 -51t-29 -45t-41.5 -32t-53 -12t-48.5 12t-30 32t-12.5 45t2 51q5 26 16 51t28 44.5t40.5 31.5t53.5 12zM376 531h-4q-57 0 -108.5 -22t-92 -59t-68 -86t-37.5 -104q-10 -56 -0.5 -105.5t37 -86.5
t71.5 -58.5t102 -21.5t109.5 21.5t91.5 58.5t67.5 86.5t37.5 105.5q14 80 -13 145h32q28 0 51 14.5t29 48.5q6 35 -12 49t-46 14h-247z" />
    <glyph glyph-name="tau" unicode="&#x3c4;" horiz-adv-x="419" 
d="M439 531h-277q-27 0 -48 -18t-26 -45q-5 -29 8.5 -46t42.5 -17h62l-58 -331q-6 -36 10 -58t48 -22t56 22t30 58l58 331h71q28 0 51.5 14.5t29.5 48.5q6 35 -12 49t-46 14z" />
    <glyph glyph-name="theta" unicode="&#x3b8;" horiz-adv-x="588" 
d="M292 -9q78 0 135.5 35t97.5 91t63.5 124.5t35.5 135.5q12 68 12 136q0 69 -20.5 124.5t-65 90.5t-121.5 35q-76 0 -133.5 -35.5t-97.5 -91t-65 -124t-37 -135.5t-11 -135.5t21.5 -124.5t65 -91t120.5 -35zM406 635q33 0 51.5 -16.5t26.5 -42t8 -57.5t-3 -63h-230
q8 32 19.5 63.5t28.5 57.5t41 42t58 16zM234 329h236q-7 -35 -18.5 -72.5t-29.5 -68t-44 -50.5t-63 -20t-56 19.5t-26 50t-5.5 68t6.5 73.5z" />
    <glyph glyph-name="omega" unicode="&#x3c9;" horiz-adv-x="802" 
d="M536 -8q62 0 110.5 24.5t84 64t57.5 88.5t31 97q6 32 5 64.5t-9.5 63t-23.5 57t-38 46.5q-40 35 -75 37.5t-57.5 -12.5t-30.5 -39t5 -42q9 -12 22 -19t25 -16q12 -10 20 -25.5t12 -34.5t4 -40q0 -20 -3 -40q-11 -64 -42.5 -106.5t-78.5 -42.5q-27 0 -40.5 17.5t-4.5 66.5
l26 151q5 29 -9.5 52.5t-48.5 23.5t-57.5 -23.5t-28.5 -52.5l-26 -151q-9 -48 -29 -66t-47 -18q-23 0 -38.5 11.5t-24 31.5t-10 47t4.5 59q3 20 10.5 40.5t18.5 39.5t24.5 34.5t28.5 25.5q15 9 30.5 16t28.5 19q20 18 20.5 42t-16.5 39t-52.5 12.5t-88.5 -37.5
q-30 -20 -55 -46.5t-43.5 -57t-31 -63t-18.5 -64.5q-9 -48 -5.5 -96.5t24 -88t60.5 -64.5t105 -25q48 0 86 22t67 55q16 -35 44.5 -56t77.5 -21z" />
    <glyph glyph-name="sigma1" unicode="&#x3c2;" horiz-adv-x="426" 
d="M481 440q5 27 -10 46.5t-40 32t-55 19t-57 6.5q-43 0 -81 -12t-67.5 -34.5t-49.5 -53t-27 -68.5q-7 -41 6.5 -69t38 -47t54.5 -31.5l56 -23.5t42.5 -22.5t13.5 -27.5q-3 -20 -17 -30.5t-47 -10.5q-25 0 -42.5 7.5t-32 17t-29.5 17t-36 7.5q-15 0 -28 -7t-22.5 -17
t-15.5 -21t-8 -19q-4 -24 12.5 -44.5t44 -35.5t61.5 -23t64 -8q47 0 87 13t70.5 35.5t51 53.5t26.5 67q7 41 -6.5 68.5t-38 46.5t-54.5 31.5l-56 23.5t-42.5 22.5t-13.5 28.5q4 21 20 30.5t36 9.5q18 0 35 -6.5t33 -14.5l29.5 -14.5t23.5 -6.5q26 0 46 19.5t25 44.5z" />
    <glyph glyph-name="chi" unicode="&#x3c7;" horiz-adv-x="500" 
d="M40 113q-10 -9 -18.5 -23t-10.5 -26q-5 -32 11 -51t48 -19q24 0 38 9t28 23l144 146l94 -146q8 -14 19 -23t35 -9q32 0 55 19t28 51q2 12 -1 26t-10 23l-117 166l146 137q11 11 20 24.5t12 27.5q2 14 -2 27t-13 22.5t-21 15t-26 5.5q-17 0 -30.5 -7t-27.5 -21l-123 -126
l-79 126q-9 14 -20 21t-28 7q-14 0 -28.5 -5.5t-26.5 -15t-20.5 -22.5t-10.5 -27q-3 -14 1 -27.5t11 -24.5l98 -137z" />
    <glyph glyph-name="upsilon" unicode="&#x3c5;" 
d="M76 198q-17 -97 34 -153.5t166 -56.5t186 56.5t88 153.5l46 260q6 36 -10 58t-48 22t-56 -22t-30 -58l-46 -257q-4 -22 -14.5 -39.5t-25.5 -29.5t-33 -18t-36 -6q-36 0 -60 24t-17 69l46 257q6 36 -10 58t-48 22t-56 -22t-30 -58z" />
    <glyph glyph-name="zeta" unicode="&#x3b6;" horiz-adv-x="481" 
d="M40 88q-5 -6 -11.5 -16.5t-8.5 -22.5q-5 -25 10.5 -37t39.5 -12h335q27 0 49 16.5t27 46.5t-11 46.5t-43 16.5h-190l283 318q11 11 16 20t7 23q3 15 -1 23.5t-11 13.5t-14.5 6.5t-12.5 1.5h-327q-27 0 -49 -16.5t-27 -46.5t11 -46.5t43 -16.5h167z" />
    <glyph glyph-name="iotadieresis" unicode="&#x3ca;" horiz-adv-x="222" 
d="M52 74q-6 -36 10 -58t48 -22t56 22t30 58l68 384q6 36 -10 58t-48 22t-56 -22t-30 -58zM268 675q-5 -30 12 -51t47 -21t55 21t30 51t-12 51t-47 21t-55 -21t-30 -51zM48 675q-5 -30 12 -51t47 -21t55 21t30 51t-12 51t-47 21t-55 -21t-30 -51z" />
    <glyph glyph-name="upsilondieresis" unicode="&#x3cb;" 
d="M76 198q-17 -97 34 -153.5t166 -56.5t186 56.5t88 153.5l46 260q6 36 -10 58t-48 22t-56 -22t-30 -58l-46 -257q-4 -22 -14.5 -39.5t-25.5 -29.5t-33 -18t-36 -6q-36 0 -60 24t-17 69l46 257q6 36 -10 58t-48 22t-56 -22t-30 -58zM431 675q-5 -30 12 -51t47 -21t55 21
t30 51t-12 51t-47 21t-55 -21t-30 -51zM211 675q-5 -30 12 -51t47 -21t55 21t30 51t-12 51t-47 21t-55 -21t-30 -51z" />
    <glyph glyph-name="iotadieresistonos" unicode="&#x390;" horiz-adv-x="222" 
d="M52 74q-6 -36 10 -58t48 -22t56 22t30 58l68 384q6 36 -10 58t-48 22t-56 -22t-30 -58zM353 675q-5 -30 12 -51t47 -21t55 21t30 51t-12 51t-47 21t-55 -21t-30 -51zM-29 675q-5 -30 12.5 -51t47.5 -21t54.5 21t29.5 51t-12 51t-47 21t-55 -21t-30 -51zM146 686l-8 -5
q-13 -10 -19.5 -22.5t-5.5 -23.5q2 -26 19 -44.5t40 -13.5q8 2 11 3t5.5 2.5l7.5 4.5l15 9l111 70q40 25 37 67q-1 10 -6 19.5t-13 16.5t-18.5 10.5t-21.5 0.5q-8 -2 -17.5 -6.5t-20.5 -12.5z" />
    <glyph glyph-name="upsilondieresistonos" unicode="&#x3b0;" 
d="M76 198q-17 -97 34 -153.5t166 -56.5t186 56.5t88 153.5l46 260q6 36 -10 58t-48 22t-56 -22t-30 -58l-46 -257q-4 -22 -14.5 -39.5t-25.5 -29.5t-33 -18t-36 -6q-36 0 -60 24t-17 69l46 257q6 36 -10 58t-48 22t-56 -22t-30 -58zM517 675q-5 -30 12 -51t47 -21t55 21
t30 51t-12.5 51t-47.5 21t-54.5 -21t-29.5 -51zM135 675q-5 -30 12 -51t47 -21t55 21t30 51t-12 51t-47 21t-55 -21t-30 -51zM310 686l-8 -5q-13 -10 -20 -22.5t-6 -23.5q2 -26 19 -44.5t40 -13.5q8 2 11 3t6 2.5t8 4.5l15 9l110 70q41 25 38 67q-1 10 -6 19.5t-13 16.5
t-18.5 10.5t-21.5 0.5q-8 -2 -17.5 -6.5t-20.5 -12.5z" />
    <glyph glyph-name="FL0019" unicode="&#xe001;" horiz-adv-x="268" 
 />
    <glyph glyph-name="FL0020" unicode="&#xe002;" horiz-adv-x="268" 
 />
    <glyph glyph-name="FL0025" unicode="&#xe003;" horiz-adv-x="374" 
d="M310 724q-20 0 -46 -7t-50 -19.5t-41.5 -30.5t-21.5 -40q-3 -17 5.5 -30.5t28.5 -13.5q17 0 29 8t23 17.5t24.5 17.5t32.5 8q23 0 31.5 -9.5t6.5 -23.5q-5 -25 -20.5 -32.5t-33.5 -12.5q-18 -4 -33.5 -11t-19.5 -31q-3 -13 0.5 -20.5t10.5 -11.5t17 -6l20 -4
q10 -1 19.5 -4t16 -8.5t10 -15t0.5 -23.5q-3 -20 -24 -33t-47 -13q-27 0 -39 9.5t-19 21t-13.5 21t-23.5 9.5t-35.5 -11.5t-21.5 -28.5q-4 -26 7.5 -46.5t32 -35t46.5 -22t50 -7.5q30 0 60.5 7.5t57 23.5t45.5 40.5t25 58.5q7 36 -10.5 64.5t-50.5 43.5q29 16 47.5 39.5
t23.5 52.5q5 26 -3.5 46t-25.5 34t-41 21.5t-50 7.5z" />
    <glyph glyph-name="FL0026" unicode="&#xe004;" horiz-adv-x="381" 
d="M267 393q14 15 40 37t52.5 49t48.5 57.5t28 63.5q5 29 -2.5 51.5t-24 39t-41 25t-54.5 8.5q-37 0 -67.5 -13t-53.5 -32.5t-37 -40.5t-17 -38q-5 -26 4.5 -41t32.5 -15q24 0 35 14t19.5 31t21.5 31t42 14q20 0 31 -10t8 -29q-3 -16 -12.5 -29.5t-20.5 -25.5
q-44 -49 -94 -92l-99 -88q-5 -5 -11.5 -13t-8.5 -17q-4 -20 8.5 -29.5t31.5 -9.5h224q20 0 34 11t19 40t-5 40t-30 11h-102z" />
    <glyph glyph-name="FL0030" unicode="&#xe005;" horiz-adv-x="268" 
 />
    <glyph glyph-name="FL0031" unicode="&#xe006;" horiz-adv-x="268" 
 />
    <glyph glyph-name="FL0018" unicode="&#xe007;" horiz-adv-x="268" 
 />
    <glyph glyph-name="FL0127" unicode="&#xe008;" horiz-adv-x="268" 
 />
    <glyph glyph-name="NUL" unicode="&#xe009;" horiz-adv-x="268" 
 />
    <glyph glyph-name="FL0016" unicode="&#xe00a;" horiz-adv-x="268" 
 />
    </font>
</defs>
</svg>
